<svg width="24" height="24" viewBox="0 0 24 24" fill="none" xmlns="http://www.w3.org/2000/svg">
<path fill-rule="evenodd" clip-rule="evenodd" d="M3.77354 8.87739C4.11718 4.70845 7.60097 1.5 11.7841 1.5H12.216C16.3991 1.5 19.8829 4.70845 20.2265 8.87739C20.4115 11.122 19.7182 13.3508 18.2925 15.0943L13.4995 20.9561C12.7245 21.9039 11.2756 21.9039 10.5006 20.9561L5.70752 15.0943C4.28187 13.3508 3.58852 11.122 3.77354 8.87739ZM12 5.25C9.37665 5.25 7.25 7.37665 7.25 10C7.25 12.6234 9.37665 14.75 12 14.75C14.6234 14.75 16.75 12.6234 16.75 10C16.75 7.37665 14.6234 5.25 12 5.25Z" fill="#F3F5F8"/>
<path d="M14 10C14 11.1046 13.1046 12 12 12C10.8954 12 10 11.1046 10 10C10 8.89543 10.8954 8 12 8C13.1046 8 14 8.89543 14 10Z" fill="#F3F5F8"/>
</svg>
