<svg width="51" height="48" viewBox="0 0 51 48" fill="none" xmlns="http://www.w3.org/2000/svg">
<path fill-rule="evenodd" clip-rule="evenodd" d="M40.3132 7.37764L24 7L7.68677 7.37764C4.39021 7.44463 1.59549 9.82101 0.999468 13.0639C-0.333156 20.3146 -0.333156 27.7475 0.999468 34.9981C1.59549 38.2411 4.3902 40.6175 7.68676 40.6844L24 41.0621L40.3132 40.6844C43.6098 40.6175 46.4045 38.2411 47.0005 34.9981C48.3332 27.7475 48.3332 20.3146 47.0005 13.0639C46.4045 9.82101 43.6098 7.44463 40.3132 7.37764ZM44.4367 21.7602C44.4367 23.0143 43.42 24.031 42.1659 24.031H5.83402C4.57993 24.031 3.56328 23.0143 3.56328 21.7602C3.56328 20.5061 4.57993 19.4895 5.83403 19.4895H42.1659C43.42 19.4895 44.4367 20.5061 44.4367 21.7602Z" fill="#0067C6"/>
<mask id="path-2-outside-1" maskUnits="userSpaceOnUse" x="33" y="-3" width="18" height="25" fill="black">
<rect fill="white" x="33" y="-3" width="18" height="25"/>
<path d="M41.8125 0.0594682C41.5229 -0.0675167 41.2376 0.0213183 41.0541 0.208205C40.8759 0.389746 40.7867 0.666819 40.8492 0.946172C40.9479 1.38712 41 1.84587 41 2.31709C41 3.39293 40.7289 4.14644 40.2623 4.77108C39.788 5.40606 39.1015 5.92302 38.2347 6.5063C38.221 6.51547 38.2083 6.52596 38.1968 6.53762L38.0918 6.64342C36.232 7.84497 35 9.93708 35 12.3171C35 16.045 38.0221 19.0671 41.75 19.0671C45.4779 19.0671 48.5 16.045 48.5 12.3171C48.5 11.2225 48.2393 10.1881 47.7764 9.27332C47.7387 9.1989 47.6664 9.14816 47.5836 9.13805C47.5008 9.12793 47.4184 9.15977 47.364 9.22294C47.2935 9.30469 47.2244 9.38537 47.1564 9.46487C46.2781 10.4911 45.5693 11.3192 44.1162 11.6891C44.0544 11.7048 44.016 11.6931 43.9887 11.6761C43.9567 11.6561 43.9216 11.6161 43.8976 11.5522C43.8475 11.4191 43.869 11.2493 43.9716 11.1381C44.7488 10.2955 45.3009 9.15167 45.4982 7.52456C45.8677 4.47666 44.4825 1.23006 41.8125 0.0594682Z"/>
</mask>
<path d="M41.8125 0.0594682C41.5229 -0.0675167 41.2376 0.0213183 41.0541 0.208205C40.8759 0.389746 40.7867 0.666819 40.8492 0.946172C40.9479 1.38712 41 1.84587 41 2.31709C41 3.39293 40.7289 4.14644 40.2623 4.77108C39.788 5.40606 39.1015 5.92302 38.2347 6.5063C38.221 6.51547 38.2083 6.52596 38.1968 6.53762L38.0918 6.64342C36.232 7.84497 35 9.93708 35 12.3171C35 16.045 38.0221 19.0671 41.75 19.0671C45.4779 19.0671 48.5 16.045 48.5 12.3171C48.5 11.2225 48.2393 10.1881 47.7764 9.27332C47.7387 9.1989 47.6664 9.14816 47.5836 9.13805C47.5008 9.12793 47.4184 9.15977 47.364 9.22294C47.2935 9.30469 47.2244 9.38537 47.1564 9.46487C46.2781 10.4911 45.5693 11.3192 44.1162 11.6891C44.0544 11.7048 44.016 11.6931 43.9887 11.6761C43.9567 11.6561 43.9216 11.6161 43.8976 11.5522C43.8475 11.4191 43.869 11.2493 43.9716 11.1381C44.7488 10.2955 45.3009 9.15167 45.4982 7.52456C45.8677 4.47666 44.4825 1.23006 41.8125 0.0594682Z" fill="#FF5621"/>
<path d="M41.0541 0.208205L42.4812 1.60946L42.4812 1.60945L41.0541 0.208205ZM41.8125 0.0594682L42.6156 -1.77222L41.8125 0.0594682ZM40.8492 0.946172L38.8975 1.38288L38.8975 1.38288L40.8492 0.946172ZM40.2623 4.77108L41.8647 5.96791L40.2623 4.77108ZM38.2347 6.5063L37.1181 4.84699L37.1181 4.847L38.2347 6.5063ZM38.1968 6.53762L39.6164 7.9464L39.6164 7.94639L38.1968 6.53762ZM38.0918 6.64342L39.1771 8.32333C39.298 8.24524 39.4101 8.15434 39.5114 8.0522L38.0918 6.64342ZM47.7764 9.27332L45.9918 10.1764L45.9918 10.1764L47.7764 9.27332ZM47.5836 9.13805L47.8262 7.15281L47.8262 7.15281L47.5836 9.13805ZM47.364 9.22294L45.8493 7.91682V7.91682L47.364 9.22294ZM47.1564 9.46487L48.6758 10.7653L48.6758 10.7653L47.1564 9.46487ZM44.1162 11.6891L43.6228 9.75093L43.6228 9.75093L44.1162 11.6891ZM43.9887 11.6761L42.9292 13.3724L42.9292 13.3724L43.9887 11.6761ZM43.8976 11.5522L45.7695 10.848L45.7695 10.8479L43.8976 11.5522ZM43.9716 11.1381L42.5015 9.78208L42.5015 9.78208L43.9716 11.1381ZM45.4982 7.52456L43.5127 7.28382V7.28382L45.4982 7.52456ZM42.4812 1.60945C42.3246 1.76893 42.1075 1.90479 41.8375 1.96625C41.5531 2.03099 41.2595 2.00077 41.0095 1.89115L42.6156 -1.77222C41.4694 -2.27478 40.3154 -1.89408 39.6271 -1.19304L42.4812 1.60945ZM42.801 0.509465C42.8892 0.903649 42.7699 1.31548 42.4812 1.60946L39.6271 -1.19304C38.9819 -0.535984 38.6843 0.429988 38.8975 1.38288L42.801 0.509465ZM43 2.31709C43 1.69799 42.9315 1.09281 42.801 0.509463L38.8975 1.38288C38.9643 1.68142 39 1.99374 39 2.31709H43ZM41.8647 5.96791C42.6157 4.96243 43 3.77819 43 2.31709H39C39 3.00767 38.842 3.33044 38.6599 3.57425L41.8647 5.96791ZM39.3512 8.16562C40.2214 7.58006 41.1675 6.90131 41.8647 5.96791L38.6599 3.57425C38.4085 3.91082 37.9816 4.26597 37.1181 4.84699L39.3512 8.16562ZM39.6164 7.94639C39.5354 8.02801 39.4466 8.10143 39.3512 8.16561L37.1181 4.847C36.9955 4.92951 36.8813 5.02392 36.7771 5.12885L39.6164 7.94639ZM39.5114 8.0522L39.6164 7.9464L36.7772 5.12884L36.6722 5.23463L39.5114 8.0522ZM37 12.3171C37 10.6444 37.8633 9.17212 39.1771 8.32333L37.0065 4.9635C34.6006 6.51782 33 9.22978 33 12.3171H37ZM41.75 17.0671C39.1266 17.0671 37 14.9404 37 12.3171H33C33 17.1496 36.9175 21.0671 41.75 21.0671V17.0671ZM46.5 12.3171C46.5 14.9404 44.3734 17.0671 41.75 17.0671V21.0671C46.5825 21.0671 50.5 17.1496 50.5 12.3171H46.5ZM45.9918 10.1764C46.3164 10.8177 46.5 11.5434 46.5 12.3171H50.5C50.5 10.9017 50.1622 9.55863 49.5609 8.37029L45.9918 10.1764ZM47.341 11.1233C46.7615 11.0525 46.2555 10.6973 45.9918 10.1764L49.5609 8.37029C49.2219 7.70048 48.5713 7.24385 47.8262 7.15281L47.341 11.1233ZM48.8786 10.529C48.4973 10.9712 47.9206 11.1941 47.341 11.1233L47.8262 7.15281C47.081 7.06177 46.3396 7.34833 45.8493 7.91682L48.8786 10.529ZM48.6758 10.7653C48.7442 10.6854 48.8109 10.6075 48.8786 10.529L45.8493 7.91682C45.776 8.00184 45.7046 8.08532 45.6369 8.1644L48.6758 10.7653ZM44.6096 13.6273C46.7371 13.0857 47.8067 11.7809 48.6758 10.7653L45.6369 8.16439C44.7495 9.20125 44.4015 9.55269 43.6228 9.75093L44.6096 13.6273ZM42.9292 13.3724C43.436 13.689 44.0381 13.7728 44.6096 13.6273L43.6228 9.75093C43.8054 9.70443 44.0507 9.67454 44.3339 9.71668C44.6254 9.76007 44.8664 9.86624 45.0482 9.97983L42.9292 13.3724ZM42.0257 12.2565C42.1735 12.6494 42.4569 13.0774 42.9292 13.3724L45.0483 9.97986C45.4565 10.2348 45.6697 10.5829 45.7695 10.848L42.0257 12.2565ZM42.5015 9.78208C41.8233 10.5173 41.7438 11.5073 42.0257 12.2565L45.7695 10.8479C45.8725 11.1217 45.8934 11.4011 45.8511 11.6599C45.8081 11.9227 45.6884 12.2266 45.4417 12.4941L42.5015 9.78208ZM43.5127 7.28382C43.3587 8.55435 42.9557 9.28961 42.5015 9.78208L45.4417 12.4941C46.5419 11.3013 47.2431 9.749 47.4836 7.76529L43.5127 7.28382ZM41.0095 1.89115C42.6511 2.61092 43.8081 4.84749 43.5127 7.28382L47.4836 7.76529C47.9273 4.10583 46.3138 -0.150792 42.6156 -1.77222L41.0095 1.89115Z" fill="#F3F5F8" mask="url(#path-2-outside-1)"/>
</svg>
