<svg width="55" height="30" viewBox="0 0 55 30" fill="none" xmlns="http://www.w3.org/2000/svg">
<g clip-path="url(#clip0)">
<path d="M54.4766 -2.88098H0.837696V32.8774H54.4766V-2.88098Z" fill="white"/>
<path d="M28.4381 27.3202C28.4325 27.3147 28.4214 27.3147 28.4214 27.3091L28.4158 27.3036C28.3797 27.273 28.3492 27.2369 28.3214 27.2091C28.2436 27.1202 28.1353 26.9897 28.0408 26.8702C27.8547 26.6369 27.702 26.4425 27.6714 26.4008L27.6242 26.3425L27.1603 26.2008L26.8214 26.0452L26.9992 25.8425L27.6186 26.1119L28.0825 26.2063L28.9408 26.8369C28.9408 26.8369 28.8158 26.9369 28.6964 27.0508C28.6436 27.098 28.5714 27.1647 28.5242 27.2175C28.5075 27.2425 28.4881 27.2591 28.4714 27.2841C28.4575 27.2841 28.4436 27.3008 28.4381 27.3202ZM25.2603 26.3675C24.8436 26.3619 24.4325 26.248 24.0742 26.0341C24.1159 25.9619 24.1742 25.898 24.2464 25.848C24.3603 25.7647 24.5686 25.6619 24.9075 25.6619H24.9131C25.3131 25.6619 25.802 25.798 26.3686 26.0675C26.0297 26.2647 25.6492 26.373 25.2603 26.3675ZM23.5103 25.9786C23.4381 25.9786 23.3742 25.948 23.3186 25.9008C23.277 25.8536 23.2464 25.7925 23.2353 25.7286C23.2186 25.6452 23.2103 25.5619 23.2103 25.4786C23.2409 25.4675 23.2686 25.4619 23.3048 25.4536H23.3103C23.4603 25.4536 23.5798 25.5841 23.627 25.7091C23.6575 25.7675 23.6631 25.8286 23.6436 25.8952C23.6214 25.948 23.5686 25.9841 23.5103 25.9786ZM26.5909 25.6202C25.5547 25.4702 25.1186 25.0952 24.9353 24.8091C24.8159 24.6369 24.7631 24.4286 24.7798 24.2119C24.8325 24.2008 24.8881 24.1952 24.9409 24.1952C25.2075 24.2036 25.9103 24.3397 26.5909 25.6202ZM24.4686 25.4175C24.027 25.4175 23.6881 25.3397 23.4686 25.1897C23.3742 25.1313 23.2964 25.048 23.2492 24.9452C23.2325 24.9091 23.2186 24.8675 23.2131 24.8258C23.3631 24.7675 23.5159 24.7313 23.677 24.7313C23.702 24.7313 23.7242 24.7313 23.7492 24.7313C24.0881 24.7313 24.6075 24.8452 25.1548 25.3758C24.927 25.4008 24.6964 25.4175 24.4686 25.4175ZM22.3298 25.3341C21.8659 25.3341 21.2214 25.1925 20.8214 24.7924C21.1242 24.7202 21.4353 24.6786 21.7464 24.6674C21.777 24.6674 21.8048 24.6674 21.8353 24.6674C22.2714 24.6674 22.6048 24.7508 22.8298 24.9174C22.8881 24.9536 22.9381 25.0119 22.9603 25.0841C22.9659 25.1369 22.9436 25.1841 22.8936 25.2091C22.7936 25.2869 22.6131 25.323 22.3631 25.3286L22.3298 25.3341ZM20.8159 24.5591C20.7575 24.5591 20.702 24.5341 20.6659 24.4869C20.6298 24.4452 20.6131 24.3924 20.5992 24.3369C20.5825 24.2647 20.5742 24.1952 20.5825 24.1175C20.6075 24.1063 20.6298 24.1008 20.6548 24.1008C20.7131 24.1008 20.7687 24.1313 20.8103 24.173C20.8575 24.2147 20.8881 24.2674 20.9103 24.3286C20.9353 24.3758 20.9353 24.4369 20.9214 24.4841C20.9048 24.5313 20.8631 24.5591 20.8159 24.5591ZM24.3075 24.4841C24.2353 24.4841 24.1714 24.4536 24.1159 24.4063C24.0742 24.3591 24.0436 24.298 24.0325 24.2341C24.0159 24.1508 24.0075 24.0675 24.0075 23.9841C24.0381 23.973 24.0659 23.9674 24.102 23.9591H24.1075C24.2575 23.9591 24.377 24.0897 24.4242 24.2147C24.4548 24.273 24.4603 24.3341 24.4409 24.4008C24.4214 24.4536 24.3686 24.4841 24.3075 24.4841ZM22.6103 24.4119C21.6742 24.3758 21.1853 24.1147 20.9409 23.8924C20.8409 23.8036 20.7492 23.6897 20.6909 23.5702C20.6659 23.523 20.6492 23.4758 20.6381 23.4286C20.7159 23.4036 20.7937 23.3924 20.8714 23.3924H20.8964C21.202 23.3869 21.8464 23.523 22.6103 24.4119ZM23.6298 24.3175C22.8742 24.2036 22.4492 23.8758 22.2242 23.6258C22.0881 23.4758 21.9798 23.298 21.9131 23.1063C21.9909 23.0897 22.0687 23.0758 22.1464 23.0758C22.1575 23.0758 22.1631 23.0758 22.177 23.0758C22.1909 23.0758 22.202 23.0758 22.2131 23.0758C22.5853 23.0897 23.2714 23.2563 23.6298 24.3175ZM19.7548 23.9536C19.5159 23.9536 19.277 23.923 19.0409 23.8702C18.6464 23.7702 18.4742 23.6202 18.402 23.5119C18.3714 23.4647 18.3492 23.4174 18.3437 23.3619C18.3381 23.3369 18.3381 23.3202 18.3437 23.2952C18.5464 23.248 18.7548 23.2174 18.9687 23.2174C18.9798 23.2174 18.9992 23.2174 19.0103 23.2174C19.1826 23.2174 19.3492 23.2341 19.5242 23.2647C19.9048 23.3424 20.2464 23.5563 20.4825 23.8675C20.2381 23.9286 19.9937 23.9591 19.7548 23.9536ZM21.502 23.3202C21.4298 23.3202 21.3659 23.2952 21.3103 23.2424C21.2687 23.1952 21.2381 23.1341 21.227 23.0702C21.2103 22.9869 21.202 22.9036 21.202 22.8202C21.2325 22.8091 21.2603 22.8036 21.2964 22.7952H21.302C21.452 22.7952 21.5714 22.9258 21.6187 23.0508C21.6492 23.1036 21.6492 23.1702 21.6298 23.2286C21.6131 23.2897 21.5603 23.3202 21.502 23.3202ZM20.1825 23.1369C19.9326 23.0647 19.6937 22.9647 19.4687 22.8258C19.1409 22.623 18.7353 22.2591 18.6826 21.7063C18.7076 21.7008 18.7298 21.7008 18.7603 21.6952C18.7659 21.6952 18.7714 21.6952 18.777 21.6952C18.877 21.6952 19.0742 21.7258 19.3187 21.9091C19.6409 22.148 19.927 22.5591 20.1825 23.1369ZM21.0492 23.1063C20.8464 23.0119 20.6548 22.8924 20.4825 22.7424C20.0409 22.3674 19.702 21.8897 19.4881 21.3536C19.5409 21.3286 19.602 21.3119 19.6603 21.3119C19.6659 21.3119 19.6714 21.3119 19.677 21.3119C19.6826 21.3119 19.6937 21.3119 19.7076 21.3119C19.8492 21.3174 20.0714 21.3786 20.3159 21.6397C20.5881 21.9369 20.8325 22.4341 21.0492 23.1063ZM18.8187 23.0397C18.5326 23.0397 18.4326 22.8841 18.402 22.8202C18.3714 22.748 18.3603 22.6786 18.3659 22.6008C18.4131 22.5897 18.4603 22.5841 18.5076 22.5841H18.5187C18.7103 22.5786 18.8881 22.6619 19.002 22.8119C19.0187 22.8369 19.0603 22.9119 19.027 22.973C18.9992 23.0174 18.927 23.0397 18.8187 23.0397ZM18.1826 22.2369C17.9631 22.2369 17.7353 22.2202 17.5214 22.1786C17.2659 22.1313 17.1215 21.9174 17.0437 21.7369C16.9909 21.6174 16.9548 21.4924 16.9353 21.3619C17.727 21.3869 18.1048 21.6174 18.277 21.8091C18.3853 21.923 18.4492 22.0647 18.4687 22.2202C18.4603 22.223 18.3492 22.2369 18.1826 22.2369ZM19.0048 21.4147C19.0048 21.4147 18.9159 21.3008 18.827 21.1647C18.7326 21.023 18.6492 20.8674 18.6492 20.7424C18.6492 20.623 18.6187 20.3674 18.602 20.2286C18.577 20.0508 18.5603 19.9008 18.5548 19.8841C18.5714 19.8897 19.0492 20.0702 19.0492 20.5147C19.0492 20.9591 19.0048 21.4063 19.0048 21.4147ZM18.3909 21.373C18.3853 21.373 18.3798 21.373 18.3742 21.373C18.2326 21.348 17.9881 21.2424 17.7131 21.0869C17.4103 20.9147 17.1659 20.7286 17.0215 20.5619C16.8909 20.4119 16.8131 20.1758 16.7881 19.8647C16.777 19.723 16.7826 19.5786 16.7937 19.4369C16.8187 19.4313 16.8465 19.4258 16.8715 19.4258C16.9798 19.4258 17.0853 19.473 17.2409 19.5813C17.377 19.6758 17.5103 19.7897 17.627 19.9091C17.777 20.0591 17.9187 20.2202 18.0548 20.3869C18.0714 20.4174 18.2048 20.6619 18.3103 20.9008C18.3631 21.0091 18.4048 21.1286 18.4298 21.2397C18.4409 21.2758 18.4409 21.3119 18.4298 21.348C18.4242 21.3591 18.4187 21.3647 18.4048 21.373C18.4076 21.373 18.3964 21.373 18.3909 21.373Z" fill="#4E5B31"/>
<path d="M26.8781 27.3202C26.8837 27.3147 26.8948 27.3147 26.8948 27.3091L26.9004 27.3036C26.9365 27.273 26.967 27.2369 26.9948 27.2091C27.0726 27.1202 27.1809 26.9897 27.2754 26.8702C27.4615 26.6369 27.6143 26.4425 27.6448 26.4008L27.692 26.3425L28.1559 26.2008L28.4948 26.0452L28.317 25.8425L27.6976 26.1119L27.2337 26.2063L26.3754 26.8369C26.3754 26.8369 26.5004 26.9369 26.6198 27.0508C26.6726 27.098 26.7448 27.1647 26.792 27.2175C26.8087 27.2425 26.8281 27.2591 26.8448 27.2841C26.8587 27.2841 26.8726 27.3008 26.8781 27.3202ZM30.0559 26.3675C30.4726 26.3619 30.8837 26.248 31.242 26.0341C31.2004 25.9619 31.142 25.898 31.0698 25.848C30.9559 25.7647 30.7476 25.6619 30.4087 25.6619H30.4032C30.0032 25.6619 29.5143 25.798 28.9476 26.0675C29.2865 26.2647 29.667 26.373 30.0559 26.3675ZM31.8059 25.9786C31.8782 25.9786 31.942 25.948 31.9976 25.9008C32.0393 25.8536 32.0698 25.7925 32.0809 25.7286C32.0976 25.6452 32.1059 25.5619 32.1059 25.4786C32.0754 25.4675 32.0476 25.4619 32.0115 25.4536H32.0059C31.8559 25.4536 31.7365 25.5841 31.6893 25.7091C31.6587 25.7675 31.6532 25.8286 31.6726 25.8952C31.6948 25.948 31.7476 25.9841 31.8059 25.9786ZM28.7254 25.6202C29.7615 25.4702 30.1976 25.0952 30.3809 24.8091C30.5004 24.6369 30.5532 24.4286 30.5365 24.2119C30.4837 24.2008 30.4282 24.1952 30.3754 24.1952C30.1087 24.2036 29.4059 24.3397 28.7254 25.6202ZM30.8476 25.4175C31.2893 25.4175 31.6282 25.3397 31.8476 25.1897C31.942 25.1313 32.0198 25.048 32.067 24.9452C32.0837 24.9091 32.0976 24.8675 32.1032 24.8258C31.9532 24.7675 31.8004 24.7313 31.6393 24.7313C31.6143 24.7313 31.592 24.7313 31.567 24.7313C31.2282 24.7313 30.7087 24.8452 30.1615 25.3758C30.3893 25.4008 30.6198 25.4175 30.8476 25.4175ZM32.9865 25.3341C33.4504 25.3341 34.0948 25.1925 34.4948 24.7924C34.1921 24.7202 33.8809 24.6786 33.5698 24.6674C33.5393 24.6674 33.5115 24.6674 33.4809 24.6674C33.0448 24.6674 32.7115 24.7508 32.4865 24.9174C32.4282 24.9536 32.3782 25.0119 32.3559 25.0841C32.3504 25.1369 32.3726 25.1841 32.4226 25.2091C32.5226 25.2869 32.7032 25.323 32.9532 25.3286L32.9865 25.3341ZM34.5004 24.5591C34.5587 24.5591 34.6143 24.5341 34.6504 24.4869C34.6865 24.4452 34.7032 24.3924 34.7171 24.3369C34.7337 24.2647 34.7421 24.1952 34.7337 24.1175C34.7087 24.1063 34.6865 24.1008 34.6615 24.1008C34.6032 24.1008 34.5476 24.1313 34.5059 24.173C34.4587 24.2147 34.4282 24.2674 34.4059 24.3286C34.3809 24.3758 34.3809 24.4369 34.3948 24.4841C34.4115 24.5313 34.4532 24.5591 34.5004 24.5591ZM31.0087 24.4841C31.0809 24.4841 31.1448 24.4536 31.2004 24.4063C31.242 24.3591 31.2726 24.298 31.2837 24.2341C31.3004 24.1508 31.3087 24.0675 31.3087 23.9841C31.2782 23.973 31.2504 23.9674 31.2143 23.9591H31.2087C31.0587 23.9591 30.9393 24.0897 30.892 24.2147C30.8615 24.273 30.8559 24.3341 30.8754 24.4008C30.8948 24.4536 30.9476 24.4841 31.0087 24.4841ZM32.7059 24.4119C33.6421 24.3758 34.1309 24.1147 34.3754 23.8924C34.4754 23.8036 34.5671 23.6897 34.6254 23.5702C34.6504 23.523 34.6671 23.4758 34.6782 23.4286C34.6004 23.4036 34.5226 23.3924 34.4448 23.3924H34.4198C34.1143 23.3869 33.4698 23.523 32.7059 24.4119ZM31.6948 24.3175C32.4504 24.2036 32.8754 23.8758 33.1004 23.6258C33.2365 23.4758 33.3448 23.298 33.4115 23.1063C33.3337 23.0897 33.2559 23.0758 33.1782 23.0758C33.1671 23.0758 33.1615 23.0758 33.1476 23.0758C33.1365 23.0758 33.1226 23.0758 33.1115 23.0758C32.7309 23.0897 32.0448 23.2563 31.6948 24.3175ZM35.5671 23.9536C35.806 23.9536 36.0448 23.923 36.281 23.8702C36.6754 23.7702 36.8476 23.6202 36.9198 23.5119C36.9504 23.4647 36.9726 23.4174 36.9782 23.3619C36.9837 23.3369 36.9837 23.3202 36.9782 23.2952C36.7754 23.248 36.5671 23.2174 36.3532 23.2174C36.3421 23.2174 36.3226 23.2174 36.3115 23.2174C36.1393 23.2174 35.9726 23.2341 35.7976 23.2647C35.4171 23.3424 35.0754 23.5563 34.8393 23.8675C35.0782 23.9286 35.3226 23.9591 35.5671 23.9536ZM33.8143 23.3202C33.8865 23.3202 33.9504 23.2952 34.0059 23.2424C34.0476 23.1952 34.0782 23.1341 34.0893 23.0702C34.1059 22.9869 34.1143 22.9036 34.1143 22.8202C34.0837 22.8091 34.0559 22.8036 34.0198 22.7952H34.0143C33.8643 22.7952 33.7448 22.9258 33.6976 23.0508C33.6671 23.1036 33.6671 23.1702 33.6865 23.2286C33.7032 23.2897 33.7559 23.3202 33.8143 23.3202ZM35.1337 23.1369C35.3837 23.0647 35.6226 22.9647 35.8476 22.8258C36.1754 22.623 36.581 22.2591 36.6337 21.7063C36.6087 21.7008 36.5865 21.7008 36.556 21.6952C36.5504 21.6952 36.5448 21.6952 36.5393 21.6952C36.4393 21.6952 36.2421 21.7258 35.9976 21.9091C35.6754 22.148 35.3893 22.5591 35.1337 23.1369ZM34.2671 23.1063C34.4698 23.0119 34.6615 22.8924 34.8337 22.7424C35.2754 22.3674 35.6143 21.8897 35.8282 21.3536C35.7754 21.3286 35.7143 21.3119 35.656 21.3119C35.6504 21.3119 35.6448 21.3119 35.6393 21.3119C35.6337 21.3119 35.6226 21.3119 35.6087 21.3119C35.4671 21.3174 35.2448 21.3786 35.0004 21.6397C34.7282 21.9369 34.4837 22.4341 34.2671 23.1063ZM36.4976 23.0397C36.7837 23.0397 36.8837 22.8841 36.9143 22.8202C36.9448 22.748 36.956 22.6786 36.9504 22.6008C36.9032 22.5897 36.856 22.5841 36.8087 22.5841H36.7976C36.606 22.5786 36.4282 22.6619 36.3143 22.8119C36.2976 22.8369 36.256 22.9119 36.2893 22.973C36.3171 23.0174 36.3893 23.0397 36.4976 23.0397ZM37.1337 22.2369C37.3532 22.2369 37.581 22.2202 37.7948 22.1786C38.0504 22.1313 38.1948 21.9174 38.2726 21.7369C38.3254 21.6174 38.3615 21.4924 38.381 21.3619C37.5893 21.3869 37.2115 21.6174 37.0393 21.8091C36.931 21.923 36.8671 22.0647 36.8476 22.2202C36.856 22.223 36.9671 22.2369 37.1337 22.2369ZM36.3115 21.4147C36.3115 21.4147 36.4004 21.3008 36.4893 21.1647C36.5837 21.023 36.6671 20.8674 36.6671 20.7424C36.6671 20.623 36.6976 20.3674 36.7143 20.2286C36.7393 20.0508 36.756 19.9008 36.7615 19.8841C36.7448 19.8897 36.2671 20.0702 36.2671 20.5147C36.2671 20.9591 36.3115 21.4063 36.3115 21.4147ZM36.9254 21.373C36.931 21.373 36.9365 21.373 36.9421 21.373C37.0837 21.348 37.3282 21.2424 37.6032 21.0869C37.906 20.9147 38.1504 20.7286 38.2949 20.5619C38.4254 20.4119 38.5032 20.1758 38.5282 19.8647C38.5393 19.723 38.5337 19.5786 38.5226 19.4369C38.4976 19.4313 38.4699 19.4258 38.4449 19.4258C38.3365 19.4258 38.231 19.473 38.0754 19.5813C37.9393 19.6758 37.806 19.7897 37.6893 19.9091C37.5393 20.0591 37.3976 20.2202 37.2615 20.3869C37.2448 20.4174 37.1115 20.6619 37.006 20.9008C36.9532 21.0091 36.9115 21.1286 36.8865 21.2397C36.8754 21.2758 36.8754 21.3119 36.8865 21.348C36.8921 21.3591 36.8976 21.3647 36.9115 21.373C36.9087 21.373 36.9198 21.373 36.9254 21.373Z" fill="#4E5B31"/>
<path d="M44.1714 3.31909L44.0298 3.37187L43.977 3.39687L43.8048 3.38576L43.6437 3.46354L43.3631 3.6552L43.352 3.66631L43.2436 3.69687L43.1492 3.6552L43.0964 3.6802L43.0798 3.79409L43.027 3.87743L42.9603 3.92465L42.7325 3.94965L42.5409 4.04409L42.2909 3.97742L42.177 4.02465L41.9325 4.24409L41.8075 4.30242H41.7659L41.5992 4.29687L41.527 4.32187L41.4187 4.42187L41.2214 4.43854L41.1631 4.4802L41.0687 4.67742L40.9603 4.78576L40.902 4.79687L40.8353 4.77187L40.7881 4.77742L40.7631 4.90242L40.7159 4.9552L40.5853 5.00243L40.477 5.09131L40.3825 5.13854L40.2575 5.13298H40.227L40.102 5.19965L39.8686 5.21631L39.7742 5.3052L39.7492 5.32187L39.702 5.35242L39.6298 5.39409L39.6131 5.4052L39.5242 5.38854L39.4159 5.4302L39.3742 5.36354L39.302 5.4052L39.2075 5.41076L39.0881 5.35798L38.9992 5.31631L38.9325 5.32743L38.9075 5.44131V5.45243L38.8353 5.54687L38.7048 5.62465L38.6881 5.64965L38.5381 5.84131L38.2575 6.13854L38.0186 6.25798L37.7742 6.33576L37.602 6.47742L37.1492 6.7052L36.4353 7.06354L36.2853 7.11076L36.077 7.14687L35.702 7.28298L35.3742 7.38298L35.3575 7.38854L35.2909 7.4052L34.827 7.54687L34.6131 7.52187L34.4825 7.56909L34.1492 7.53298L33.9159 7.53854L33.7659 7.56909L33.4909 7.69965L33.027 7.92742L32.8714 8.06909L32.6325 8.19409L32.352 8.28298V8.16354V8.15798L32.2575 8.18854L32.1853 8.21354L31.9575 8.24965H31.8325L31.7548 8.22465L31.7436 8.2302L31.2798 8.38576L30.7603 8.43298L30.4992 8.51631L30.302 8.51076L30.1825 8.54687L29.9437 8.57742L29.8603 8.55242L29.8436 8.54687L29.1409 8.57742L28.8186 8.54131L28.6631 8.57742L28.4075 8.49409L28.0325 8.45242L27.9436 8.42742L27.7464 8.36909L27.6575 8.42187L27.5909 8.42742L27.4298 8.36909H27.3714L27.2409 8.41631L27.1825 8.37465L27.1103 8.32187L26.9436 8.29687L26.8437 8.21354L26.2825 8.28576L26.127 8.23854L25.6131 8.08854L25.5298 8.09409L25.4298 8.17187L25.2798 8.22465L25.1492 8.26076L24.9714 8.26631L24.7631 8.21354L24.5492 8.11354L24.4714 8.09687L24.2937 8.11354L24.2409 8.11909L23.9131 7.94687L23.4964 7.68576L23.2103 7.54965L23.102 7.53298L23.0909 7.58576L23.1437 7.75242L23.1603 7.91909L23.1548 8.07465V8.16909L23.1798 8.25242L23.2798 8.36631L23.3214 8.4802L23.352 8.79687V9.11909L23.3048 9.63298L23.2881 9.71076L23.2298 9.97187L23.177 10.2163L22.9687 10.8608L22.9103 10.9385L22.7687 11.033L22.4464 11.2524L22.2075 11.3885L22.1298 11.4191H21.9437L21.8242 11.4135L21.6742 11.3302L21.5242 11.2941L21.3325 11.158L21.1186 11.1163L20.8853 10.9802L20.827 10.908L20.702 10.8969L20.5242 10.8441L20.4575 10.8274L20.4103 10.8163L20.1825 10.8108L19.9742 10.7163L19.8603 10.6913L19.7103 10.6858L19.5492 10.758L19.4659 10.7941L19.3659 10.7524L19.2937 10.758L19.2103 10.883L19.1992 10.8996L19.1409 10.9302H19.0687H19.0159L18.9575 10.9552L18.8742 10.9913L18.802 11.0219L18.7659 11.0385L18.7409 11.0441L18.7048 11.0496L18.6575 11.0608L18.5742 11.0135L18.527 10.9885L18.4492 10.9719L18.4075 11.0024L18.402 11.1385L18.3659 11.2219L18.2464 11.3219L18.127 11.4302L18.0437 11.5496L17.8242 12.0496L17.6881 12.2524L17.6464 12.2996L17.5048 12.4608L17.3798 12.5608L17.0881 12.7885L16.8075 12.8885L16.5687 12.9358H16.4492L16.2298 12.9052L16.0325 12.8469L15.8187 12.7108L15.5798 12.5191L15.2353 12.1802L15.1881 12.1496L15.177 12.1441L15.0687 12.0719H14.9853L14.9548 12.1246L14.9381 12.2024L14.927 12.2691L14.8853 12.6496V12.6746L14.902 12.8302L15.1631 13.1941L15.2464 13.3913L15.2575 13.4163L15.3103 13.5052L15.352 13.5774L15.3575 13.583L15.4464 13.8524L15.3798 14.0024L15.4103 14.1024L15.3325 14.1608L15.3214 14.2496L15.5603 14.5469L15.6131 14.6774L15.5548 14.8552L15.4659 14.9552L15.4409 14.9858L15.452 15.0635L15.5603 15.158L15.7464 15.3246L15.8409 15.5691L15.9187 15.6358L16.0075 15.6191L16.0548 15.6552H16.127L16.1992 15.7274L16.2464 15.7524L16.3187 15.7885L16.377 15.8663L16.3881 16.0996L16.4964 16.3913V16.5469V16.5719L16.5631 16.6858L16.5881 16.7746L16.552 17.0191L16.6353 17.0969L16.7298 17.0802L16.7881 17.0913L16.8825 17.1746L17.002 17.3524L17.1159 17.3358L17.1881 17.3719L17.5409 17.6885L17.6186 17.7302H17.6242L17.6825 17.7608L17.7548 17.833L17.8686 17.7608H17.8798L17.9992 17.7496L18.052 17.7858L18.152 17.8524H18.2825L18.5687 17.9413L18.6937 17.9719L18.9492 18.1274L19.0575 18.1941L19.1242 18.2469L19.2075 18.3191L19.3742 18.3913L19.5159 18.4274L19.5937 18.4441L19.652 18.4691V18.4635V18.4691L19.9687 18.5885L20.1409 18.6302L20.2964 18.6885L20.4103 18.7302H20.4936L20.6131 18.6302L20.727 18.6246L20.8214 18.6496L20.9159 18.633L21.0659 18.5441L21.0964 18.5024L21.2048 18.4552L21.5575 18.4135L21.6575 18.4496L21.927 18.3358L22.1048 18.383L22.2603 18.3302L22.6048 18.408L22.6936 18.4746L22.7937 18.5941H22.8048H22.9187L22.8714 18.6719L23.0214 18.8274L23.1575 19.0302L23.1687 19.0608L23.2687 19.3524L23.3409 19.4524L23.3937 19.5941V19.6885L23.3159 19.7469L23.3048 19.783L23.2992 19.7941L23.3159 19.8358L23.3464 19.8191L23.4048 19.7885L23.477 19.7774L23.602 19.7885L23.6853 19.7941L23.8159 19.7274L23.8992 19.6858L24.0353 19.7441H24.1853L24.252 19.7746L24.4298 19.858L24.5187 19.8635L24.5548 19.8385L24.5798 19.7858L24.5687 19.7274L24.4964 19.6496L24.3464 19.4774L24.2881 19.3885L24.2409 19.258L24.2298 19.0913L24.2187 18.9774L24.2353 18.8274L24.277 18.7746L24.3075 18.6552L24.3131 18.6246L24.3964 18.5108L24.6159 18.3691L24.8548 18.1552L25.0464 18.0302L25.2436 17.9469L25.2492 17.9219L25.2742 17.9274L25.7687 17.7608H25.7742L25.9936 17.7246L27.477 17.833L27.5298 17.8163L27.577 17.6802L27.602 17.6552L27.6186 17.6385L27.7798 17.5663L27.8575 17.5552L28.0714 17.608L28.1603 17.633L28.2964 17.5552H28.3964L28.5992 17.4413L28.7242 17.4469L28.7714 17.4302L29.0159 17.2524L29.2548 17.1858L29.3131 17.1552L29.3381 17.1441L29.5825 17.0191L29.7381 16.8996L29.8686 16.8274L30.0103 16.7913L30.3909 16.7663L30.4686 16.6413L30.6298 16.6163L30.7298 16.5024L30.8436 16.4552L30.927 16.3358L30.9936 16.2413L31.0881 16.1885L31.3909 16.1719L31.7492 16.2135L31.7964 16.183L31.8798 15.8913L31.9631 15.8385L32.1964 15.5052V15.3858V15.2858L32.2325 15.1441L32.2075 14.883L32.2381 14.6219L32.3798 14.2885L32.5048 14.1524L32.7075 14.0163L32.8075 13.9691L32.9492 13.9441L32.9742 13.9385L33.0103 13.933L33.5103 13.9274C33.5159 13.9219 33.6964 13.9274 33.6964 13.9274H33.8631L34.2853 14.0052L34.3159 14.0108L34.4575 14.058L34.6242 14.1885L34.7964 14.3608L34.8325 14.3913L34.9464 14.4385L34.9825 14.4552L35.077 14.4385L35.2075 14.3663L35.3075 14.283L35.4437 14.2052L35.4492 14.1996L35.527 14.0858L35.5575 14.0385L35.8187 13.9385L36.1298 13.9219L36.1659 13.9052L36.1825 13.8941L36.2659 13.7996H36.3436L36.5298 13.8663L36.6603 13.8413L36.7686 13.883L36.852 13.8719L37.0075 13.8552L37.1742 13.9691L37.2686 13.9802L37.6075 14.1774H37.6242H37.6353L37.652 14.183L37.6937 14.1719L37.752 14.1552H37.7575L37.7631 14.1663L37.7992 14.2191L37.852 14.2246L37.9103 14.1413L37.8853 14.1052L37.8742 14.0941L37.7548 14.0691L37.6464 13.883L37.7464 13.7691L37.5853 13.5719L37.5548 13.5358L37.5437 13.5246L37.4909 13.4413L37.2103 13.0135L36.8409 12.7219L36.7103 12.6219L36.6631 12.5858L36.4659 12.383L36.3242 12.1969L36.3075 12.1552L36.277 12.0885L36.1937 11.9024L36.0437 11.7885L35.9242 11.658L35.9187 11.6524L35.6742 11.3191L35.6325 11.2663L35.5742 11.2302H35.4492V11.1524L35.4437 11.1469L35.4492 11.1413L35.5075 11.083L35.5742 11.0663L35.6048 10.9996L35.4798 10.6358V10.6246L35.4686 10.5108L35.5687 9.9802L35.5798 9.91354L35.752 9.5552L35.8603 9.46631L35.9798 9.23298L36.0798 9.08298L36.1742 8.98854L36.1909 8.97742L36.3631 8.86909L36.5131 8.85242L36.6492 8.83576L36.8936 8.91354L37.127 8.90798L37.1742 8.90242L37.2825 8.89131L37.4548 8.83854L37.5381 8.79131L37.5798 8.72465L37.6687 8.42742L37.6992 8.33298L37.752 8.23298L38.0687 7.86909L38.3075 7.64965L38.8436 7.2552L39.1048 7.09965L39.2409 7.02187L40.4381 6.49131L40.7492 6.17465L40.9103 6.00798L41.1964 5.81631L41.5298 5.6802L41.8214 5.45243L41.8881 5.37465L41.9659 5.11909L42.0325 5.10242L42.0909 4.97187L42.1075 4.93576L42.3464 4.76909L42.3714 4.75798L43.2881 4.29965L43.4186 4.31631L43.4909 4.20798L43.7603 4.16076L43.8075 4.1552L43.8742 4.11909L43.927 4.02465V4.00798L43.9325 3.75243L43.9909 3.6802L44.0214 3.51354L44.052 3.47187L44.0825 3.4302L44.1603 3.37743L44.1714 3.31909Z" fill="#D57800"/>
</g>
<defs>
<clipPath id="clip0">
<rect width="53.3333" height="30" fill="white" transform="translate(0.991211)"/>
</clipPath>
</defs>
</svg>
