<svg width="54" height="30" viewBox="0 0 54 30" fill="none" xmlns="http://www.w3.org/2000/svg">
<g clip-path="url(#clip0)">
<path d="M-0.000976562 0H53.3324V30H-0.000976562V0Z" fill="black"/>
<path d="M-0.000976562 0H53.3324V20H-0.000976562V0Z" fill="white"/>
<path d="M-0.000976562 0H53.3324V10H-0.000976562V0Z" fill="#CE1126"/>
<path d="M26.7044 15.1193L30.1294 18.2998L29.885 12.5248C29.8489 11.6498 29.0906 11.8498 28.535 12.1637C27.9739 12.5248 27.335 12.5248 26.6656 12.2831C25.9906 12.5193 25.3517 12.5193 24.7961 12.1637C24.2461 11.8498 23.4822 11.6498 23.4461 12.5248L23.2017 18.2998L26.7044 15.1193Z" fill="white"/>
<path d="M30.1294 18.3306C30.1183 18.3306 30.1155 18.3251 30.11 18.3195L26.7044 15.1612L23.2211 18.3195C23.21 18.3306 23.1961 18.3306 23.185 18.3251C23.1739 18.3195 23.1655 18.3112 23.1655 18.2945L23.41 12.5195C23.4211 12.2251 23.5155 12.0251 23.6905 11.9306C24.035 11.7417 24.585 12.0112 24.8044 12.1362C25.3183 12.4667 25.9405 12.5056 26.6489 12.2556C26.6544 12.2556 26.6628 12.2556 26.6683 12.2556C27.3794 12.5056 27.9989 12.4667 28.5128 12.1362C28.7322 12.0112 29.2822 11.7362 29.6266 11.9251C29.8016 12.0195 29.8961 12.2195 29.9072 12.514L30.1516 18.289C30.1516 18.3029 30.1461 18.314 30.1322 18.3195C30.1405 18.3306 30.135 18.3306 30.1294 18.3306ZM23.9794 11.9306C23.8905 11.9306 23.7989 11.9445 23.7239 11.9917C23.5683 12.0779 23.485 12.2556 23.4739 12.5306L23.235 18.2306L26.685 15.1001C26.6961 15.089 26.7155 15.089 26.7294 15.1001L30.0989 18.2251L29.86 12.5306C29.8489 12.2612 29.7655 12.0751 29.61 11.9917C29.2961 11.8167 28.7711 12.0779 28.56 12.1973C28.035 12.5334 27.3989 12.5779 26.6711 12.3279C25.9461 12.5779 25.31 12.539 24.7822 12.1973C24.6155 12.1056 24.2766 11.9306 23.9794 11.9306Z" fill="#C09300"/>
<path d="M23.8409 12.3251L23.6048 17.939L23.2048 18.3001L23.4493 12.5251C23.5604 12.4446 23.7604 12.3251 23.8409 12.3251ZM24.3215 12.7251L24.1215 17.4251L23.7215 17.8362L23.9659 12.4112C24.0409 12.489 24.2771 12.6862 24.3215 12.7251ZM24.7548 13.0862L24.5937 17.0057L24.2687 17.3196L24.4687 12.8501C24.5548 12.9251 24.7159 13.039 24.7548 13.0862ZM25.2298 13.2862L25.0687 16.6251L24.7548 16.8807L24.9159 13.1668C24.9965 13.2001 25.1521 13.2862 25.2298 13.2862ZM25.6715 13.2862L25.5548 16.0696L25.2298 16.3835L25.3493 13.3196C25.4298 13.3196 25.6298 13.3196 25.6715 13.2862Z" fill="#C09300"/>
<path d="M29.4905 12.3251L29.7266 17.939L30.1266 18.3001L29.8821 12.5251C29.771 12.4446 29.571 12.3251 29.4905 12.3251ZM29.0099 12.7251L29.2099 17.4251L29.6099 17.8362L29.3655 12.4112C29.2905 12.489 29.0544 12.6862 29.0099 12.7251ZM28.5766 13.0862L28.7377 17.0057L29.0627 17.3196L28.8627 12.8501C28.7766 12.9251 28.6155 13.039 28.5766 13.0862ZM28.1016 13.2862L28.2627 16.6251L28.5766 16.8807L28.4155 13.1668C28.3349 13.2001 28.1794 13.2862 28.1016 13.2862ZM27.6599 13.2862L27.7738 16.0723L28.0988 16.3862L27.9794 13.3223C27.9016 13.3196 27.7016 13.3196 27.6599 13.2862Z" fill="#C09300"/>
<path d="M26.8267 15.7558L27.3045 17.9447L27.1433 18.1058L26.9795 17.9864L26.7045 16.0364L26.8183 17.9864L26.6572 18.1864L26.4961 17.9864L26.61 16.0364L26.335 17.9864L26.1711 18.1058L26.01 17.9447L26.4906 15.7558H26.8267Z" fill="#C09300"/>
<path d="M26.6656 18.2196L26.4795 17.9835L26.5545 16.6946L26.374 17.9946L26.1795 18.1335L25.9934 17.9474L26.4823 15.7224H26.8434L27.3323 17.9474L27.1462 18.1335L26.9517 17.9946L26.7767 16.6946L26.8517 17.9835L26.6656 18.2196ZM26.5351 17.9696L26.6656 18.1335L26.7962 17.9696L26.6823 16.0307L26.7378 16.0252L27.0073 17.9641L27.1434 18.0641L27.2739 17.9335L26.799 15.7835H26.524L26.049 17.9335L26.1795 18.0641L26.3156 17.9641L26.5851 16.0252L26.6406 16.0307L26.5351 17.9696Z" fill="#C09300"/>
<path d="M25.5906 14.7889L24.635 18.1751L25.9489 18.3751L26.51 15.8306L25.5906 14.7889Z" fill="white"/>
<path d="M25.9519 18.4111C25.9464 18.4111 25.9464 18.4111 25.9519 18.4111L24.638 18.2111C24.6269 18.2111 24.6241 18.2056 24.6186 18.1972C24.613 18.1917 24.613 18.1833 24.613 18.1722L25.5686 14.7861C25.5741 14.775 25.5797 14.7667 25.588 14.7667C25.5991 14.7611 25.6075 14.7667 25.6186 14.7778L26.538 15.8167C26.5436 15.8222 26.5491 15.8306 26.5436 15.8417L25.9825 18.3861C25.9769 18.4 25.9603 18.4111 25.9519 18.4111ZM24.6714 18.1556L25.9214 18.3445L26.4714 15.8389L25.6019 14.85L24.6714 18.1556Z" fill="#C09300"/>
<path d="M25.391 16.261H25.3855C25.3744 16.261 25.366 16.2499 25.3605 16.2416L25.2466 15.961L25.3077 15.936L25.4021 16.1721L25.9882 15.611L26.0327 15.6555L25.4105 16.2499C25.4049 16.2555 25.3966 16.261 25.391 16.261Z" fill="#C09300"/>
<path d="M26.0408 17.95L25.9158 17.3611L25.6602 17.7611C25.6547 17.7722 25.6408 17.775 25.6297 17.775C25.6186 17.775 25.6102 17.7639 25.6047 17.7556L25.4686 17.3417L25.2186 17.7556C25.213 17.7667 25.1991 17.7695 25.188 17.7695C25.1741 17.7695 25.163 17.7583 25.163 17.7445L24.9519 16.9806C24.9463 16.9695 24.9519 16.9611 24.963 16.95L25.3741 16.5306C25.3852 16.5195 25.3936 16.5195 25.4047 16.5195C25.4158 16.525 25.4241 16.5306 25.4297 16.5389L25.5408 16.9333L25.7963 16.5889C25.8074 16.5778 25.8158 16.575 25.8324 16.5778C25.8436 16.5833 25.8519 16.5917 25.8574 16.6028L25.9686 17.1972L26.2435 16.7833L26.0797 16.2195L25.8797 16.4806C25.8686 16.4917 25.8602 16.4945 25.8436 16.4917C25.8297 16.4861 25.8241 16.4778 25.8186 16.4667L25.688 15.2528L25.7519 15.2472L25.8713 16.3861L26.2158 15.9306L26.2658 15.9695L26.1213 16.1583L26.2824 16.7139L26.3574 16.6L26.413 16.6361L26.3074 16.7972L26.3324 16.8833L26.2713 16.9028L26.2602 16.8667L25.9797 17.2917L26.1158 17.9361L26.0408 17.95ZM25.4769 17.2306C25.4908 17.2306 25.5019 17.2417 25.5074 17.25L25.6436 17.6639L25.8991 17.2695L25.7936 16.6833L25.5436 17.0195C25.538 17.0306 25.5241 17.0333 25.513 17.0306C25.5019 17.0306 25.4936 17.0195 25.488 17.0056L25.3741 16.6L25.013 16.9639L25.1991 17.6389L25.4491 17.2278C25.4547 17.2361 25.4658 17.2306 25.4769 17.2306Z" fill="#C09300"/>
<path d="M25.7155 18.3891L25.5794 17.9752L25.3794 18.3141C25.3739 18.3252 25.36 18.328 25.3489 18.328C25.335 18.328 25.3239 18.3169 25.3239 18.3085L25.1683 17.7974L24.9433 18.1169L24.8933 18.0808L25.1572 17.7113C25.1628 17.7002 25.1766 17.6974 25.1878 17.6974C25.1989 17.6974 25.2072 17.7085 25.2128 17.7169L25.3628 18.2224L25.5628 17.8835C25.5683 17.8724 25.5822 17.8696 25.5933 17.8696C25.6044 17.8696 25.6183 17.8808 25.6183 17.8891L25.7794 18.3696L25.7155 18.3891Z" fill="#C09300"/>
<path d="M27.7407 14.7889L28.6963 18.1751L27.3824 18.3751L26.8213 15.8306L27.7407 14.7889Z" fill="white"/>
<path d="M27.3793 18.4112C27.3654 18.4112 27.3543 18.4001 27.3487 18.3862L26.7876 15.8417C26.7876 15.8306 26.7876 15.8223 26.7932 15.8167L27.7126 14.7779C27.7182 14.7667 27.732 14.7667 27.7432 14.7667C27.7543 14.7667 27.7626 14.7779 27.7626 14.7862L28.7182 18.1723C28.7182 18.1834 28.7182 18.1862 28.7126 18.1973C28.707 18.2029 28.7015 18.2084 28.6932 18.2112L27.3793 18.4112C27.3848 18.4112 27.3848 18.4112 27.3793 18.4112ZM26.8543 15.839L27.4043 18.3445L28.6543 18.1556L27.7237 14.8556L26.8543 15.839Z" fill="#C09300"/>
<path d="M27.9409 16.2613C27.9298 16.2613 27.927 16.2557 27.9214 16.2502L27.302 15.6613L27.3464 15.6168L27.9325 16.1779L28.027 15.9418L28.0881 15.9668L27.9742 16.2474C27.9686 16.2585 27.9603 16.2613 27.9492 16.2668C27.9464 16.2613 27.9464 16.2613 27.9409 16.2613Z" fill="#C09300"/>
<path d="M27.2907 17.95L27.2296 17.9361L27.3657 17.2917L27.0852 16.8667L27.074 16.9028L27.0129 16.8833L27.0379 16.7972L26.9324 16.6361L26.9879 16.6L27.0629 16.7139L27.224 16.1583L27.0796 15.9695L27.1296 15.9306L27.474 16.3861L27.5935 15.2472L27.6574 15.2528L27.5268 16.4667C27.5268 16.4806 27.5157 16.4917 27.5018 16.4917C27.4879 16.4917 27.4768 16.4917 27.4657 16.4806L27.2657 16.2195L27.1018 16.7833L27.3768 17.1972L27.4879 16.6028C27.4879 16.5917 27.499 16.5833 27.5129 16.5778C27.524 16.5722 27.5379 16.5778 27.549 16.5889L27.8046 16.9333L27.9157 16.5389C27.9213 16.5278 27.9268 16.5195 27.9407 16.5195C27.9518 16.5139 27.9657 16.5195 27.9713 16.5306L28.3824 16.95C28.3935 16.9611 28.3935 16.9695 28.3935 16.9806L28.1824 17.7445C28.1768 17.7556 28.1685 17.7639 28.1574 17.7695C28.1435 17.7695 28.1324 17.7639 28.1268 17.7556L27.8768 17.3417L27.7407 17.7556C27.7352 17.7667 27.7268 17.775 27.7157 17.775C27.7046 17.775 27.6907 17.7695 27.6852 17.7611L27.4296 17.3611L27.2907 17.95ZM27.4352 17.2695L27.6907 17.6639L27.8268 17.25C27.8324 17.2389 27.8407 17.2306 27.8518 17.2306C27.8629 17.2306 27.8768 17.2361 27.8824 17.2445L28.1324 17.6556L28.3185 16.9806L27.9574 16.6167L27.8435 17.0222C27.8379 17.0333 27.8296 17.0417 27.8185 17.0472C27.8074 17.0472 27.7935 17.0417 27.7879 17.0361L27.5379 16.7L27.4352 17.2695Z" fill="#C09300"/>
<path d="M27.6153 18.3891L27.5542 18.3696L27.7153 17.8891C27.7209 17.878 27.7292 17.8696 27.7403 17.8696C27.7542 17.8696 27.7653 17.8752 27.7709 17.8835L27.9709 18.2224L28.1209 17.7169C28.1264 17.7058 28.1348 17.6974 28.1459 17.6974C28.157 17.6974 28.1709 17.703 28.1764 17.7113L28.4403 18.0808L28.3903 18.1169L28.1653 17.7974L28.0098 18.3085C28.0042 18.3196 27.9959 18.328 27.9848 18.328C27.9736 18.328 27.9598 18.3224 27.9542 18.3141L27.7542 17.9752L27.6153 18.3891Z" fill="#C09300"/>
<path d="M26.6655 19.6891C27.66 19.6891 28.6155 19.6085 29.1766 19.4529C29.4128 19.4085 29.4128 19.2891 29.4128 19.1279C29.6489 19.0474 29.5266 18.7668 29.6933 18.7668C29.5294 18.8113 29.4933 18.4863 29.2933 18.5307C29.2933 18.2502 29.0128 18.2168 28.7794 18.2946C28.3044 18.4557 27.4655 18.489 26.6683 18.489C25.8739 18.4529 25.0378 18.4529 24.5572 18.2946C24.3211 18.214 24.0433 18.2502 24.0433 18.5307C23.8433 18.4863 23.8072 18.8113 23.6433 18.7668C23.8072 18.7668 23.6878 19.0474 23.9239 19.1279C23.9239 19.2891 23.9239 19.4085 24.1683 19.4529C24.7155 19.6113 25.6711 19.6891 26.6655 19.6891Z" fill="white"/>
<path d="M26.6658 19.7499C25.5964 19.7499 24.6797 19.6638 24.1519 19.511C23.888 19.461 23.863 19.3221 23.863 19.1721C23.738 19.111 23.713 18.9971 23.6936 18.9221C23.6797 18.8665 23.6742 18.8471 23.663 18.836C23.6519 18.836 23.6436 18.8304 23.6269 18.8304C23.5964 18.8193 23.5769 18.7943 23.5825 18.7665C23.588 18.736 23.613 18.7165 23.6436 18.7165C23.6575 18.7165 23.6686 18.7165 23.6797 18.7221C23.7103 18.7165 23.7353 18.686 23.7797 18.6332C23.8297 18.5693 23.8908 18.4888 23.9936 18.4777C24.0075 18.3721 24.063 18.3082 24.113 18.2776C24.2242 18.1971 24.3992 18.1888 24.5825 18.2471C24.9686 18.3721 25.588 18.3971 26.2464 18.4221C26.3908 18.4277 26.5325 18.4332 26.6769 18.436C27.6964 18.436 28.3825 18.3749 28.7658 18.2471C28.9519 18.186 29.1269 18.1971 29.2353 18.2776C29.2797 18.3138 29.3408 18.3721 29.3547 18.4777C29.4547 18.4888 29.5186 18.5665 29.5686 18.6332C29.613 18.6888 29.638 18.7193 29.6686 18.7221C29.6797 18.7221 29.6936 18.7165 29.7047 18.7165C29.7353 18.7165 29.7603 18.736 29.7658 18.7665C29.7714 18.7971 29.7519 18.8277 29.7214 18.8304C29.7103 18.836 29.6964 18.836 29.6853 18.836C29.6742 18.8415 29.6658 18.861 29.6547 18.9221C29.6353 19.0027 29.6103 19.111 29.4853 19.1721C29.4853 19.3221 29.4603 19.4665 29.1992 19.511C28.6519 19.6638 27.7297 19.7499 26.6658 19.7499ZM23.7769 18.7999C23.7908 18.8304 23.8019 18.8638 23.8075 18.8943C23.8269 18.9749 23.8436 19.0443 23.938 19.0804C23.963 19.0915 23.9769 19.111 23.9769 19.136C23.9769 19.2971 23.9769 19.3665 24.1714 19.3999H24.1769C24.6908 19.5443 25.6214 19.636 26.663 19.636C27.7186 19.636 28.6269 19.5499 29.1575 19.3999H29.163C29.3519 19.3638 29.3519 19.2943 29.3519 19.136C29.3519 19.111 29.3658 19.086 29.3908 19.0804C29.4853 19.0499 29.5019 18.9804 29.5214 18.8943C29.5269 18.8638 29.5353 18.8304 29.5519 18.7999C29.5158 18.7749 29.488 18.736 29.463 18.6999C29.3992 18.6193 29.363 18.5804 29.3019 18.5943C29.2825 18.5999 29.2658 18.5943 29.2519 18.5832C29.238 18.5721 29.2325 18.5527 29.2325 18.5388C29.2325 18.4638 29.2075 18.4027 29.1575 18.3693C29.0769 18.3138 28.938 18.3082 28.7936 18.3582C28.3992 18.4888 27.6992 18.5527 26.663 18.5527C26.5186 18.5471 26.3742 18.5415 26.2325 18.5388C25.5686 18.5138 24.938 18.4888 24.538 18.3582C24.3936 18.3082 24.2519 18.3138 24.1742 18.3693C24.1242 18.4054 24.0992 18.4582 24.0992 18.5388C24.0992 18.5582 24.088 18.5749 24.0797 18.5832C24.0658 18.5943 24.0492 18.5971 24.0297 18.5943C23.9686 18.5804 23.9297 18.6193 23.8686 18.6999C23.8408 18.736 23.8103 18.7693 23.7769 18.7999Z" fill="#C09300"/>
<path d="M25.3104 18.1749C25.6354 18.2194 25.991 18.2555 26.2715 18.2194C26.4326 18.2194 26.541 18.4944 26.2271 18.5333C25.9465 18.5694 25.5132 18.5333 25.2715 18.4888C25.0715 18.4527 24.6326 18.3749 24.3521 18.2944C24.0715 18.1749 24.2715 17.9332 24.4326 17.9694C24.6799 18.0555 24.9965 18.136 25.3104 18.1749ZM28.0215 18.1749C27.6965 18.2194 27.341 18.2555 27.066 18.2194C26.9021 18.2194 26.7854 18.4944 27.1021 18.5333C27.3826 18.5694 27.816 18.5333 28.0576 18.4888C28.2576 18.4527 28.6965 18.3749 28.9771 18.2944C29.2576 18.1749 29.0576 17.9332 28.8965 17.9694C28.6521 18.0555 28.3354 18.136 28.0215 18.1749Z" fill="white"/>
<path d="M27.3768 18.5808C27.2768 18.5808 27.1823 18.5752 27.1018 18.5669C26.8823 18.5363 26.8712 18.4058 26.8768 18.3669C26.8823 18.2669 26.9712 18.1863 27.0712 18.1863C27.3518 18.2224 27.7268 18.1808 28.0212 18.1419C28.4018 18.0919 28.7324 17.9974 28.8907 17.9419C28.9962 17.9169 29.1101 17.9863 29.1407 18.0863C29.1518 18.1224 29.1768 18.2474 28.9907 18.3252C28.7018 18.4113 28.2407 18.4891 28.0657 18.5196C27.9018 18.5558 27.6268 18.5808 27.3768 18.5808ZM27.0657 18.2502C26.9962 18.2502 26.9407 18.3141 26.9407 18.3696C26.9351 18.4391 27.0018 18.4835 27.1101 18.5002C27.3962 18.5363 27.8351 18.4946 28.0546 18.4558C28.2296 18.4252 28.6851 18.3419 28.9685 18.2613C29.0574 18.2224 29.099 18.1669 29.0796 18.1002C29.0601 18.0308 28.974 17.9863 28.9046 18.0002C28.7435 18.0502 28.4101 18.1502 28.024 18.2002C27.7268 18.2502 27.3518 18.2891 27.0657 18.2502ZM25.9546 18.5808C25.7046 18.5808 25.424 18.5502 25.2657 18.5196C25.0907 18.4891 24.6296 18.4058 24.3462 18.3252C24.1573 18.2446 24.1823 18.1196 24.1907 18.0863C24.2268 17.9863 24.3407 17.9224 24.4407 17.9419C24.6046 17.9974 24.9351 18.0919 25.3157 18.1419C25.6101 18.1808 25.9851 18.2224 26.2712 18.1863C26.3712 18.1863 26.4573 18.2669 26.4601 18.3669C26.4657 18.4058 26.4546 18.5363 26.2351 18.5669C26.1518 18.5808 26.0546 18.5808 25.9546 18.5808ZM24.4018 18.0058C24.3407 18.0058 24.2712 18.0502 24.2518 18.1113C24.2323 18.1724 24.2712 18.2308 24.3657 18.2724C24.6462 18.353 25.1046 18.4335 25.2768 18.4613C25.4962 18.5002 25.9323 18.5419 26.2212 18.5058C26.3351 18.4919 26.3962 18.4419 26.3907 18.3696C26.3851 18.3085 26.3268 18.2502 26.2657 18.2502C25.9768 18.2863 25.5962 18.2446 25.3018 18.2058C24.9157 18.1558 24.5879 18.0558 24.4212 18.0058C24.4157 18.0058 24.4101 18.0058 24.4018 18.0058Z" fill="#C09300"/>
<path d="M24.3215 18.0193C24.077 17.9749 23.9604 18.2554 24.0409 18.4138C24.077 18.3332 24.2409 18.3332 24.277 18.2527C24.3215 18.136 24.2409 18.136 24.3215 18.0193ZM25.277 18.7554C25.277 18.5943 25.4381 18.6166 25.4381 18.461C25.4381 18.3804 25.3937 18.261 25.3187 18.261C25.2381 18.261 25.1576 18.3416 25.1576 18.4221C25.1159 18.5693 25.277 18.5943 25.277 18.7554ZM26.4104 18.2999C26.6465 18.2999 26.6243 18.6138 26.5104 18.7749C26.5104 18.661 26.3104 18.6138 26.3104 18.5388C26.3048 18.4138 26.4909 18.4138 26.4104 18.2999ZM29.0104 18.0193C29.2548 17.9749 29.3715 18.2554 29.2909 18.4138C29.2548 18.3332 29.0909 18.3332 29.0548 18.2527C29.0104 18.136 29.0909 18.136 29.0104 18.0193ZM28.0548 18.7554C28.0548 18.5943 27.8937 18.6166 27.8937 18.461C27.8937 18.3804 27.9381 18.261 28.0131 18.261C28.0937 18.261 28.1743 18.3416 28.1743 18.4221C28.2159 18.5693 28.0548 18.5943 28.0548 18.7554ZM26.9215 18.2999C26.6854 18.2999 26.7076 18.6138 26.8215 18.7749C26.8215 18.661 27.0215 18.6138 27.0215 18.5388C27.027 18.4138 26.8409 18.4138 26.9215 18.2999Z" fill="white"/>
<path d="M26.5047 18.8057C26.4991 18.8057 26.4991 18.8057 26.4936 18.8057C26.4797 18.8001 26.4741 18.7918 26.4741 18.7751C26.4741 18.7307 26.4241 18.6946 26.3741 18.6613C26.3241 18.6251 26.2741 18.5918 26.2741 18.5418C26.2741 18.4724 26.3186 18.4307 26.3547 18.4057C26.3991 18.3696 26.4047 18.3613 26.3797 18.3251C26.3741 18.314 26.3741 18.3057 26.3797 18.289C26.3852 18.2779 26.3936 18.2751 26.4102 18.2751C26.5213 18.2751 26.5713 18.3363 26.5963 18.3807C26.6574 18.5001 26.6102 18.6918 26.5352 18.8001C26.5269 18.8001 26.5158 18.8057 26.5047 18.8057ZM26.4602 18.339C26.4713 18.3946 26.4241 18.4251 26.3963 18.4501C26.3602 18.4807 26.3352 18.5001 26.3352 18.539C26.3352 18.5585 26.3741 18.5835 26.4102 18.6085C26.4463 18.6335 26.4908 18.664 26.5158 18.6974C26.5602 18.6085 26.5797 18.4835 26.5352 18.4029C26.5213 18.3696 26.4963 18.3501 26.4602 18.339ZM26.8213 18.8057C26.8102 18.8057 26.8019 18.8001 26.7963 18.7918C26.7213 18.6863 26.6713 18.4974 26.7352 18.3724C26.7602 18.3224 26.8102 18.2668 26.9213 18.2668C26.9324 18.2668 26.9463 18.2724 26.9519 18.2807C26.9574 18.2918 26.9574 18.3057 26.9519 18.3168C26.9269 18.3557 26.938 18.3613 26.9769 18.3974C27.013 18.4279 27.0574 18.4613 27.0574 18.5335C27.0574 18.5835 27.0074 18.6196 26.9574 18.6529C26.9074 18.689 26.8574 18.7224 26.8574 18.7668C26.8574 18.7807 26.8463 18.7918 26.838 18.7974C26.8297 18.8057 26.8269 18.8057 26.8213 18.8057ZM26.8713 18.339C26.8352 18.3501 26.8102 18.3696 26.7908 18.4029C26.7519 18.4835 26.7713 18.6029 26.8102 18.6974C26.8352 18.6585 26.8797 18.6335 26.9158 18.6085C26.9519 18.5835 26.9908 18.5585 26.9908 18.539C26.9908 18.5029 26.9713 18.4779 26.9297 18.4501C26.9047 18.4251 26.8602 18.389 26.8713 18.339ZM28.0547 18.7863C28.0352 18.7863 28.0241 18.7724 28.0241 18.7557C28.0241 18.6918 27.9936 18.6668 27.9547 18.6307C27.9158 18.5946 27.8658 18.5501 27.8658 18.4613C27.8658 18.3613 27.9213 18.2251 28.0213 18.2251C28.1158 18.2251 28.2074 18.314 28.2102 18.4113C28.2297 18.5057 28.1852 18.5613 28.1491 18.6113C28.1186 18.6501 28.088 18.6918 28.088 18.7501C28.0908 18.7696 28.0769 18.7863 28.0547 18.7863ZM28.0213 18.289C27.9713 18.289 27.9324 18.389 27.9324 18.4585C27.9324 18.5224 27.963 18.5474 28.0019 18.5835C28.0213 18.5974 28.0408 18.6196 28.0574 18.639C28.0713 18.614 28.088 18.5946 28.1019 18.5751C28.138 18.5307 28.1658 18.489 28.1519 18.4251V18.4196C28.1463 18.3557 28.0797 18.289 28.0213 18.289ZM25.2769 18.7863C25.2574 18.7863 25.2463 18.7724 25.2463 18.7557C25.2463 18.6918 25.2158 18.6557 25.1852 18.6168C25.1463 18.5668 25.1047 18.5113 25.1241 18.4168C25.1241 18.3224 25.2186 18.2307 25.313 18.2307C25.413 18.2307 25.4686 18.3668 25.4686 18.4668C25.4686 18.5613 25.4186 18.6029 25.3797 18.6363C25.3408 18.6724 25.3102 18.6974 25.3102 18.7613C25.3047 18.7696 25.2908 18.7863 25.2769 18.7863ZM25.3102 18.289C25.2491 18.289 25.1852 18.3529 25.1852 18.414V18.4196C25.1713 18.489 25.1991 18.5251 25.2352 18.5696C25.2491 18.589 25.2658 18.6085 25.2797 18.6335C25.2936 18.6085 25.3158 18.5946 25.3352 18.5779C25.3741 18.5418 25.4047 18.5168 25.4047 18.4529C25.4019 18.389 25.3602 18.289 25.3102 18.289ZM24.0408 18.4446C24.0297 18.4446 24.0158 18.439 24.0102 18.4251C23.9602 18.3251 23.9741 18.189 24.0491 18.089C24.113 18.0029 24.213 17.964 24.3241 17.9835C24.3352 17.9835 24.3436 17.9946 24.3491 18.0029C24.3547 18.014 24.3547 18.0224 24.3436 18.0335C24.3075 18.089 24.3074 18.1085 24.313 18.1335C24.3186 18.164 24.3241 18.1974 24.3019 18.2585C24.2769 18.314 24.2213 18.3335 24.1658 18.3585C24.1213 18.3724 24.0769 18.3946 24.0658 18.4224C24.0658 18.439 24.0519 18.4446 24.0408 18.4446ZM24.2658 18.0446C24.1797 18.0446 24.1269 18.1001 24.1019 18.1307C24.0575 18.1946 24.038 18.2807 24.0519 18.3501C24.0769 18.3307 24.113 18.314 24.1463 18.3057C24.1908 18.2918 24.2352 18.2696 24.2463 18.2446C24.2602 18.2001 24.2574 18.1751 24.2519 18.1501C24.2519 18.114 24.2463 18.089 24.2658 18.0446ZM29.2908 18.4446C29.2769 18.4446 29.2658 18.439 29.2602 18.4251C29.2463 18.3946 29.1991 18.3807 29.1602 18.3613C29.1047 18.3418 29.0491 18.3168 29.0241 18.2668C28.9991 18.2029 29.0102 18.1668 29.013 18.1363C29.0158 18.1057 29.0241 18.0863 28.9824 18.0363C28.9769 18.0251 28.9769 18.0168 28.9769 18.0057C28.9824 17.9946 28.9908 17.9918 29.0019 17.9863C29.113 17.9668 29.213 18.0057 29.2769 18.0918C29.3519 18.1863 29.3658 18.3279 29.3158 18.4279C29.3158 18.439 29.3019 18.4446 29.2908 18.4446ZM29.0658 18.0446C29.0852 18.0835 29.0797 18.114 29.0769 18.1501C29.0713 18.1751 29.0658 18.2001 29.088 18.2446C29.0991 18.2696 29.1435 18.289 29.188 18.3057C29.2241 18.3196 29.2574 18.3307 29.2824 18.3501C29.2963 18.2807 29.2769 18.1946 29.2324 18.1307C29.2047 18.1001 29.1519 18.0501 29.0658 18.0446Z" fill="#C09300"/>
<path d="M24.4019 18.1C24.4824 18.1 24.6019 18.1361 24.638 18.1806L24.4019 18.1ZM24.7907 18.2195C24.8352 18.2195 24.9907 18.2556 25.0713 18.3L24.7907 18.2195ZM26.2269 18.3806C26.1463 18.3806 25.9907 18.3806 25.9463 18.4167L26.2269 18.3806ZM25.7907 18.3806C25.7463 18.3361 25.5907 18.3361 25.5102 18.3806H25.7907ZM28.9296 18.1C28.8491 18.1 28.7352 18.1361 28.6935 18.1806L28.9296 18.1ZM28.5352 18.2195C28.4907 18.2195 28.3352 18.2556 28.2546 18.3L28.5352 18.2195ZM27.1019 18.3806C27.1824 18.3806 27.338 18.3806 27.3824 18.4167L27.1019 18.3806ZM27.5407 18.3806C27.5852 18.3361 27.7407 18.3361 27.8213 18.3806H27.5407Z" fill="white"/>
<path d="M27.38 18.4362L27.0995 18.4001C27.0939 18.4001 27.0883 18.4001 27.0856 18.3945C27.08 18.389 27.0745 18.3806 27.08 18.3695C27.0856 18.3584 27.0939 18.3556 27.105 18.3584C27.2245 18.3584 27.3495 18.364 27.3939 18.3973C27.405 18.4029 27.405 18.4112 27.3995 18.4223C27.4022 18.4306 27.3911 18.4362 27.38 18.4362ZM25.9522 18.4362C25.9411 18.4362 25.9383 18.4306 25.9328 18.4223C25.9272 18.4112 25.9328 18.4029 25.9383 18.3973C25.9828 18.3612 26.1133 18.3584 26.2272 18.3584C26.2383 18.3584 26.2411 18.364 26.2467 18.3695C26.2522 18.3751 26.2522 18.3834 26.2467 18.3945C26.2411 18.4001 26.2356 18.4056 26.2272 18.4056L25.9522 18.4362ZM27.8217 18.4001H27.5411C27.53 18.4001 27.5217 18.389 27.5217 18.3806C27.5217 18.3751 27.5272 18.3667 27.5328 18.3612C27.5883 18.3112 27.7578 18.3167 27.8383 18.3612C27.8495 18.3667 27.8522 18.3751 27.8495 18.3862C27.8411 18.3945 27.83 18.4001 27.8217 18.4001ZM25.7911 18.4001H25.5106C25.4994 18.4001 25.4911 18.3945 25.4911 18.3862C25.4911 18.3751 25.4911 18.3667 25.5022 18.3612C25.5828 18.3167 25.7578 18.3112 25.8078 18.3667C25.8133 18.3723 25.8189 18.3806 25.8133 18.3917C25.805 18.3945 25.8022 18.4001 25.7911 18.4001ZM28.255 18.3195C28.2439 18.3195 28.2411 18.314 28.2356 18.3056C28.23 18.2945 28.2356 18.2806 28.2467 18.2751C28.3272 18.2306 28.4828 18.1945 28.5328 18.1945C28.5439 18.1945 28.5522 18.2001 28.5578 18.2056C28.5633 18.2167 28.5633 18.2251 28.5522 18.2306C28.5467 18.2362 28.5411 18.2362 28.5383 18.2362L28.2633 18.3167C28.2606 18.3195 28.2606 18.3195 28.255 18.3195ZM25.0717 18.3195H25.0661L24.7911 18.239C24.7856 18.239 24.78 18.2334 24.7772 18.2334C24.7717 18.2278 24.7661 18.214 24.7772 18.2084C24.7828 18.1973 24.7911 18.1973 24.8022 18.1973C24.8522 18.1973 25.0078 18.2362 25.0883 18.2779C25.0994 18.2834 25.1022 18.2917 25.0994 18.3084C25.0911 18.314 25.08 18.3195 25.0717 18.3195ZM28.6967 18.2001C28.6856 18.2001 28.6828 18.1945 28.6772 18.189C28.6717 18.1778 28.6717 18.1695 28.6828 18.164C28.7328 18.114 28.8578 18.0778 28.9328 18.0778C28.9439 18.0778 28.9522 18.089 28.9522 18.0973C28.9522 18.1084 28.9467 18.1167 28.9384 18.1223L28.7022 18.2028C28.7022 18.2001 28.6967 18.2001 28.6967 18.2001ZM24.6356 18.2001H24.63L24.3939 18.1195H24.3883C24.3772 18.114 24.3744 18.1001 24.3772 18.089C24.3828 18.0778 24.3911 18.0751 24.4022 18.0751C24.4883 18.0751 24.6133 18.114 24.6522 18.1612C24.6578 18.1723 24.6578 18.1806 24.6522 18.1862C24.6522 18.1945 24.6411 18.2001 24.6356 18.2001Z" fill="#C09300"/>
<path d="M24.3297 18.7305C24.3047 18.7249 24.2908 18.7055 24.2936 18.6805C24.3047 18.6499 24.3297 18.6305 24.3491 18.6416C24.363 18.6471 24.388 18.6721 24.388 18.6805C24.388 18.6916 24.3741 18.7193 24.3686 18.7193C24.363 18.7193 24.363 18.7193 24.3575 18.7249C24.3602 18.7305 24.3463 18.7305 24.3297 18.7305ZM27.0797 18.9249C27.0686 18.9193 27.0547 18.8999 27.0547 18.8888C27.0547 18.8693 27.0852 18.8388 27.0991 18.8388C27.1102 18.8388 27.1352 18.8499 27.138 18.8582C27.1519 18.8721 27.1519 18.9027 27.1269 18.9193C27.1269 18.9305 27.0963 18.9305 27.0797 18.9249ZM27.0963 19.0499C27.0769 19.0443 27.0658 19.036 27.0658 19.011C27.0658 18.986 27.0658 18.9805 27.0908 18.9721L27.1102 18.961L27.1241 18.9721C27.1491 18.9832 27.1602 18.9916 27.1602 19.011C27.1602 19.0249 27.1491 19.0471 27.1297 19.0555C27.1158 19.0555 27.1158 19.0555 27.0963 19.0499Z" fill="#C09300"/>
<path d="M24.552 18.5058C24.5381 18.5058 24.5131 18.5197 24.4965 18.5308C24.4659 18.5419 24.427 18.5614 24.3965 18.5364C24.3659 18.5252 24.327 18.5364 24.3215 18.5725C24.3326 18.6086 24.377 18.6225 24.402 18.603C24.4215 18.578 24.477 18.5586 24.4881 18.6086C24.4631 18.6447 24.4687 18.6891 24.4492 18.7225C24.4437 18.7475 24.4354 18.7669 24.4242 18.7864C24.3992 18.7864 24.3742 18.7864 24.3604 18.8002C24.3298 18.8002 24.2965 18.8141 24.2798 18.8447C24.2604 18.8752 24.2409 18.9058 24.2354 18.9391C24.2409 18.9752 24.2798 18.9836 24.3159 18.9891C24.352 19.0002 24.3798 19.0086 24.4159 19.0197C24.4715 19.0308 24.5215 19.0502 24.577 19.0641C24.6576 19.0891 24.7381 19.1002 24.8159 19.1197C24.827 19.1252 24.8298 19.1252 24.8409 19.1252C24.877 19.1308 24.8909 19.0947 24.8965 19.0697C24.9103 19.0086 24.927 18.9558 24.9409 18.8947C24.952 18.8697 24.9659 18.8197 24.9215 18.8308C24.8965 18.8447 24.8715 18.8697 24.8409 18.8697C24.7965 18.8752 24.8215 18.9141 24.8409 18.9336C24.8465 18.9641 24.8353 18.9975 24.8159 19.0225C24.7909 19.0364 24.7548 19.0169 24.7298 19.0114C24.6992 19.0114 24.6437 18.9975 24.6687 18.9558C24.6798 18.9252 24.6798 18.8947 24.6881 18.8669C24.702 18.8364 24.702 18.803 24.7131 18.7725C24.6937 18.7336 24.6631 18.7864 24.6381 18.7864C24.6242 18.7975 24.5576 18.8002 24.5937 18.8308C24.6242 18.8502 24.5992 18.8919 24.5937 18.9197C24.5937 18.9586 24.5548 18.9697 24.5187 18.9586C24.4881 18.9586 24.4437 18.9336 24.4687 18.8975C24.4742 18.8669 24.4826 18.8419 24.4881 18.8114C24.4992 18.7752 24.5076 18.7419 24.5242 18.7058C24.5298 18.6752 24.5381 18.6447 24.5548 18.6169C24.5548 18.5808 24.5798 18.553 24.5798 18.5169C24.5715 18.5114 24.5659 18.5058 24.552 18.5058ZM24.377 18.8641C24.3826 18.8641 24.3826 18.8641 24.3881 18.8641C24.3992 18.8697 24.402 18.878 24.3881 18.8891C24.3826 18.8947 24.377 18.9002 24.3742 18.9002C24.3492 18.9002 24.3437 18.8947 24.3437 18.8864C24.3437 18.8752 24.3437 18.8752 24.3576 18.8725C24.3659 18.8697 24.3715 18.8697 24.377 18.8641ZM24.3215 19.1197C24.2965 19.0947 24.302 19.0808 24.3354 19.0502C24.3492 19.0391 24.3604 19.0391 24.3798 19.0558C24.4104 19.0808 24.4104 19.0947 24.3854 19.1197C24.3742 19.1308 24.3715 19.1336 24.3548 19.1336C24.3409 19.1308 24.3354 19.1308 24.3215 19.1197ZM24.477 19.1641C24.452 19.1586 24.4409 19.1336 24.4465 19.1141C24.4465 19.1141 24.4465 19.1141 24.4465 19.1086C24.452 19.0891 24.4576 19.0836 24.4854 19.0836C24.5215 19.0836 24.5298 19.0891 24.5298 19.1197C24.5298 19.1391 24.5298 19.1391 24.5187 19.1502C24.5048 19.1614 24.4854 19.1697 24.477 19.1641ZM28.9298 19.1697C28.9187 19.1586 28.9159 19.1558 28.9159 19.1447C28.9159 19.1252 28.927 19.1086 28.952 19.1002C28.9881 19.0864 29.002 19.0864 29.0131 19.1114C29.027 19.1419 29.027 19.1502 29.0076 19.1752C28.9964 19.1864 28.9937 19.1864 28.9687 19.1864C28.9464 19.1808 28.9409 19.1808 28.9298 19.1697ZM24.677 19.2252C24.6576 19.2197 24.6465 19.2058 24.6465 19.1864C24.6465 19.1725 24.6465 19.1669 24.6603 19.1558C24.6715 19.1502 24.6798 19.1447 24.6909 19.1447C24.7048 19.1447 24.7103 19.1447 24.7215 19.1502C24.752 19.1697 24.7576 19.1891 24.7353 19.2058C24.7215 19.2308 24.7048 19.2364 24.677 19.2252ZM25.7715 19.2752C25.7659 19.2697 25.7576 19.2641 25.7576 19.2614C25.7576 19.2308 25.7631 19.2058 25.7687 19.1808C25.7742 19.1558 25.7687 19.1252 25.7798 19.1002C25.7909 19.0558 25.7909 19.0058 25.7992 18.9614C25.7992 18.9364 25.8048 18.9169 25.8103 18.8919C25.8215 18.8558 25.8103 18.8169 25.8215 18.7808C25.8215 18.7669 25.8353 18.7308 25.852 18.7502C25.8715 18.7808 25.8965 18.8002 25.9215 18.8252C25.9409 18.8391 25.9215 18.8558 25.9076 18.8614C25.8881 18.8725 25.8826 18.8919 25.8826 18.9114C25.877 18.9308 25.8715 18.9502 25.8715 18.9725C25.8659 19.003 25.8659 19.0364 25.8603 19.0669C25.8492 19.0975 25.8548 19.1308 25.8492 19.1614C25.8492 19.1808 25.8381 19.2002 25.8381 19.2225C25.8381 19.2419 25.8326 19.2669 25.8187 19.2836C25.8103 19.2891 25.7853 19.2891 25.7715 19.2752ZM27.2548 18.7864C27.2298 18.8058 27.2103 18.8252 27.1909 18.8475C27.1603 18.8669 27.2159 18.8836 27.2214 18.903C27.2326 18.9336 27.227 18.9641 27.2326 18.9919C27.2437 19.0225 27.2464 19.0475 27.2437 19.078C27.2381 19.1086 27.1992 19.103 27.1826 19.1169C27.1576 19.128 27.1464 19.153 27.127 19.1669C27.1159 19.1919 27.1131 19.2225 27.1131 19.2475C27.1131 19.2669 27.0992 19.2919 27.1131 19.3114C27.1131 19.3169 27.1187 19.3169 27.1187 19.3225C27.1242 19.328 27.1326 19.3225 27.1437 19.328C27.1687 19.328 27.1937 19.328 27.2187 19.3169C27.2798 19.3058 27.3381 19.3058 27.4048 19.303C27.4409 19.303 27.4798 19.2919 27.5159 19.2919C27.5464 19.2975 27.5603 19.2669 27.5548 19.2419C27.5409 19.2058 27.5548 19.1725 27.5409 19.1364C27.5298 19.1002 27.5353 19.0669 27.527 19.0308C27.527 19.0058 27.4909 18.9919 27.4714 19.0169C27.4576 19.0308 27.427 19.0364 27.4103 19.0558C27.3964 19.0864 27.4409 19.0864 27.4492 19.1114C27.4576 19.1364 27.4548 19.1614 27.4603 19.1864C27.4659 19.2169 27.4353 19.2169 27.4159 19.2225C27.3909 19.2336 27.352 19.2364 27.3353 19.2086C27.3242 19.1836 27.3242 19.1586 27.3242 19.1336C27.3242 19.0891 27.3131 19.0447 27.3103 18.9975C27.3048 18.9419 27.2992 18.8864 27.2964 18.8336C27.2909 18.8141 27.2909 18.7808 27.2548 18.7864ZM27.227 19.1947H27.2409V19.2141V19.2336L27.2214 19.2391C27.2103 19.2447 27.202 19.2447 27.202 19.2447C27.1964 19.2447 27.1965 19.2391 27.1909 19.2391C27.1798 19.228 27.1798 19.2197 27.1964 19.203C27.2103 19.2002 27.2103 19.1947 27.227 19.1947ZM25.727 18.7364C25.7076 18.7419 25.6826 18.7725 25.6659 18.7725C25.6215 18.778 25.627 18.8169 25.6603 18.8336C25.6659 18.8475 25.6603 18.8641 25.6603 18.878C25.6659 18.9169 25.6409 18.9475 25.6465 18.9891C25.6465 19.0336 25.6326 19.0752 25.6326 19.1197C25.6215 19.1641 25.6215 19.2086 25.6131 19.2586C25.6076 19.2975 25.577 19.2836 25.552 19.2725C25.552 19.253 25.552 19.2364 25.552 19.2169C25.5631 19.178 25.5326 19.1614 25.4965 19.1558C25.4603 19.1614 25.4465 19.1308 25.452 19.1002C25.4659 19.0808 25.502 19.0864 25.527 19.0864C25.577 19.0975 25.5715 19.0308 25.5465 19.0058C25.5326 18.9752 25.4853 18.9614 25.477 18.9252C25.4826 18.8808 25.452 18.8391 25.4159 18.8141C25.3603 18.8086 25.3215 18.8586 25.302 18.903C25.277 18.9086 25.2576 18.9169 25.2381 18.9225C25.202 18.9336 25.152 18.9919 25.1992 19.0169C25.2242 19.0225 25.3103 19.0419 25.2742 19.0808C25.2548 19.1169 25.2131 19.1169 25.1798 19.1058C25.1437 19.1058 25.1048 19.0864 25.1048 19.0447C25.0992 19.0086 25.0992 18.9641 25.0798 18.9308C25.0742 18.8919 25.0242 18.9002 25.0187 18.9364C24.9826 18.9614 24.9881 19.0058 25.0131 19.0364C25.027 19.0725 25.0131 19.1169 24.9992 19.1475C24.9881 19.1919 24.9381 19.1919 24.9103 19.2086C24.8965 19.2141 24.8298 19.203 24.8492 19.2447C24.8881 19.2586 24.9353 19.2697 24.9687 19.2586C25.0076 19.253 25.0437 19.2225 25.0631 19.1891C25.0937 19.1586 25.1381 19.1752 25.1742 19.1752C25.2131 19.1752 25.2548 19.2002 25.2881 19.1864C25.2992 19.1558 25.3492 19.1114 25.3631 19.1614C25.3576 19.2058 25.3992 19.2252 25.4381 19.2225C25.4826 19.2225 25.4631 19.253 25.4631 19.278C25.4687 19.3225 25.4992 19.3475 25.5326 19.3669C25.5465 19.3725 25.5576 19.3669 25.5715 19.3669C25.6076 19.3558 25.652 19.3364 25.6603 19.2975C25.6742 19.2614 25.6742 19.2225 25.6853 19.1864C25.6965 19.1308 25.7048 19.0725 25.7048 19.0169C25.7187 18.9669 25.7159 18.9114 25.7242 18.8558C25.7298 18.8169 25.7353 18.7752 25.7381 18.7419C25.752 18.7364 25.7409 18.7308 25.727 18.7364ZM25.3909 18.9391C25.402 18.9391 25.402 18.9502 25.4048 18.9641C25.4048 18.9836 25.4159 19.0002 25.4242 19.0002C25.4326 19.0002 25.4353 19.0114 25.4242 19.0197C25.4187 19.0252 25.4103 19.0252 25.3881 19.0252C25.3576 19.0252 25.3437 19.0141 25.327 19.0002L25.3159 18.9891L25.3298 18.978C25.3409 18.9669 25.3492 18.9641 25.3603 18.953C25.3715 18.9447 25.3798 18.9391 25.3909 18.9391ZM28.6909 18.5447C28.6603 18.5447 28.6353 18.5502 28.6048 18.5586C28.5548 18.553 28.5242 18.6086 28.5742 18.6391C28.6048 18.7141 28.6492 18.6252 28.6992 18.628C28.7687 18.6419 28.7798 18.7169 28.7881 18.778C28.7937 18.8391 28.8076 18.8919 28.8242 18.9475C28.8742 19.003 28.7881 19.0336 28.7548 18.9919C28.7242 18.9558 28.6603 18.9169 28.6187 18.9614C28.5742 18.9808 28.5742 19.0419 28.5326 19.0558C28.4714 19.0752 28.4631 19.0002 28.4326 18.9697C28.402 18.9308 28.3464 18.9252 28.302 18.9086C28.2826 18.8641 28.2909 18.7947 28.2464 18.7641C28.2103 18.778 28.1409 18.8502 28.1964 18.878C28.252 18.928 28.1714 18.9475 28.1464 18.9836C28.1103 19.0225 28.1076 19.078 28.0964 19.1336C28.0326 19.1697 28.0214 19.0947 28.0103 19.0475C28.0048 18.9919 27.9603 19.0086 27.9242 19.028C27.8742 19.0475 27.8548 19.0919 27.8187 19.128C27.8131 19.1586 27.8187 19.1975 27.8187 19.228C27.8298 19.2669 27.8798 19.2475 27.9076 19.2475C27.9576 19.228 27.977 19.278 27.9381 19.3086C27.9131 19.3447 27.827 19.3225 27.8326 19.378C27.8576 19.3836 27.8881 19.378 27.9187 19.378C27.9742 19.3641 28.0326 19.3225 28.0381 19.2641C28.0437 19.2086 28.1242 19.2197 28.1631 19.2086C28.2131 19.1947 28.277 19.1891 28.2881 19.253C28.3242 19.2891 28.3992 19.3336 28.4381 19.2836C28.477 19.2586 28.4992 19.2197 28.4937 19.1697C28.4826 19.1308 28.5576 19.1308 28.5742 19.1502C28.5992 19.1947 28.6853 19.1808 28.7187 19.1558C28.7576 19.1252 28.7687 19.0697 28.8298 19.0697C28.9187 19.0447 29.0103 19.0308 29.0992 18.9947C29.1687 18.9808 29.0881 18.9336 29.0687 18.9086C29.0131 18.8836 28.9687 18.9891 28.9076 18.9391C28.8631 18.903 28.8631 18.8336 28.8464 18.7836C28.8353 18.7141 28.8353 18.6391 28.7853 18.5836C28.7853 18.5558 28.7353 18.5447 28.6909 18.5447ZM28.352 19.0197C28.3576 19.0197 28.3659 19.0252 28.377 19.0308C28.3964 19.0419 28.4159 19.0614 28.4131 19.0808C28.4131 19.0919 28.4076 19.0919 28.3937 19.1002C28.3826 19.1058 28.3742 19.1114 28.3687 19.1114C28.3576 19.1114 28.3381 19.0919 28.3381 19.0864C28.3381 19.0808 28.3326 19.0725 28.3326 19.0614C28.327 19.0475 28.327 19.0475 28.3381 19.0364C28.3409 19.0252 28.3464 19.0197 28.352 19.0197ZM28.677 19.0391C28.6964 19.0391 28.7076 19.0447 28.7131 19.0586C28.7242 19.0725 28.7187 19.0891 28.6937 19.0975C28.6826 19.103 28.6742 19.1086 28.6742 19.1086C28.6742 19.1086 28.6631 19.103 28.6548 19.0975C28.6409 19.0864 28.6409 19.0836 28.6409 19.0725C28.6353 19.0558 28.6548 19.0391 28.677 19.0391ZM28.2298 19.0391C28.2353 19.0391 28.2409 19.0391 28.2437 19.0502C28.2548 19.0614 28.2548 19.0641 28.2576 19.0808C28.2576 19.0919 28.2576 19.1058 28.2576 19.1114C28.2576 19.1225 28.252 19.1225 28.227 19.1225C28.1964 19.1225 28.1909 19.1169 28.1909 19.0864C28.1909 19.0669 28.1909 19.0614 28.202 19.0502C28.2159 19.0447 28.227 19.0447 28.2298 19.0391ZM27.9548 19.1141C27.9659 19.1141 27.9742 19.1252 27.9742 19.1336C27.9798 19.1475 27.9742 19.1586 27.9603 19.1641C27.9492 19.1697 27.9242 19.1752 27.9159 19.1697C27.9159 19.1697 27.9103 19.1641 27.9048 19.1586C27.8992 19.153 27.8992 19.1475 27.9048 19.1475C27.9103 19.1475 27.9103 19.1419 27.9103 19.1364C27.9103 19.1364 27.9159 19.1252 27.9214 19.1225C27.9353 19.1141 27.9464 19.1114 27.9548 19.1141ZM28.4159 19.1752C28.427 19.1752 28.4298 19.1808 28.4353 19.1864C28.4464 19.1975 28.4464 19.2058 28.4353 19.2169C28.4298 19.2225 28.3909 19.2225 28.3798 19.2169C28.3742 19.2169 28.3687 19.2114 28.3687 19.2058C28.3687 19.2002 28.3687 19.1947 28.3826 19.1919C28.3964 19.1752 28.4048 19.1752 28.4159 19.1752ZM27.5603 19.4141C27.5548 19.4086 27.5492 19.4086 27.5548 19.403C27.5659 19.3891 27.5798 19.3836 27.5937 19.378C27.6187 19.3669 27.6437 19.3475 27.6631 19.3225C27.6631 19.3086 27.6826 19.2975 27.6826 19.278C27.6826 19.253 27.6826 19.228 27.677 19.2086C27.6714 19.1891 27.652 19.1697 27.6381 19.1586C27.6242 19.1475 27.602 19.1447 27.5992 19.128C27.5937 19.1141 27.6131 19.0975 27.6187 19.0836C27.6298 19.0641 27.6381 19.0391 27.6548 19.0197C27.6687 19.0058 27.6909 19.0197 27.6937 19.0336C27.7048 19.0475 27.7131 19.0641 27.7187 19.078C27.7326 19.0919 27.7492 19.1141 27.7548 19.1391C27.7603 19.153 27.7742 19.1697 27.7742 19.1891C27.7742 19.2086 27.7853 19.228 27.7853 19.2502C27.7853 19.2808 27.7853 19.3058 27.7742 19.3364C27.7687 19.3502 27.7548 19.3614 27.7437 19.3725C27.7298 19.3864 27.7076 19.403 27.6881 19.4086C27.6742 19.4141 27.6631 19.428 27.6492 19.4225C27.6242 19.4225 27.5992 19.428 27.5742 19.4225C27.5659 19.4197 27.5548 19.4141 27.5603 19.4141ZM27.2159 19.4364C27.2048 19.4252 27.202 19.4169 27.202 19.4058C27.202 19.3947 27.202 19.3919 27.2159 19.3752C27.2353 19.3558 27.252 19.3502 27.2853 19.3697C27.3214 19.3891 27.3353 19.3891 27.3353 19.3752C27.3409 19.3614 27.3603 19.3502 27.3798 19.3502C27.3937 19.3502 27.3992 19.3502 27.4103 19.3614C27.4242 19.3725 27.4242 19.3725 27.4242 19.3975C27.4242 19.4225 27.4242 19.4225 27.4103 19.4336C27.3964 19.4447 27.3964 19.4475 27.3742 19.4447C27.3548 19.4447 27.3381 19.4336 27.3353 19.4141C27.3298 19.403 27.3298 19.4002 27.3242 19.4086C27.3242 19.4141 27.3187 19.4141 27.3131 19.4141C27.302 19.4197 27.2881 19.428 27.2742 19.4391C27.2687 19.4447 27.2603 19.4447 27.2492 19.4447C27.2298 19.4502 27.2298 19.4502 27.2159 19.4364ZM26.227 18.9891C26.1909 18.9891 26.1576 19.0197 26.152 19.0502C26.1631 19.0891 26.1909 19.1252 26.1715 19.1641C26.1853 19.2141 26.1326 19.2336 26.0965 19.203C26.077 19.153 26.0659 19.103 26.0326 19.0586C25.9937 19.0475 25.9715 19.1141 25.9465 19.1336C25.9603 19.1725 26.002 19.203 26.0076 19.253C26.0187 19.2975 25.9881 19.3475 25.9465 19.3725C25.9103 19.4086 25.8659 19.3919 25.8215 19.403C25.7715 19.4336 25.8603 19.4419 25.8826 19.4419C25.9326 19.4475 25.9881 19.4419 26.027 19.403C26.0659 19.3836 26.0631 19.3169 26.1076 19.3141C26.1881 19.3086 26.2687 19.3252 26.3437 19.328C26.3826 19.3391 26.4548 19.3225 26.4826 19.353C26.4826 19.4086 26.527 19.4419 26.5715 19.4641C26.5965 19.4697 26.6215 19.4391 26.6465 19.4336C26.6965 19.4197 26.6826 19.3586 26.7103 19.3336C26.7965 19.328 26.8742 19.328 26.9603 19.328C26.9742 19.328 26.9798 19.3086 26.9909 19.2975C26.9909 19.2669 26.9853 19.2336 26.9798 19.203C26.9659 19.1641 26.9853 19.1141 26.9548 19.078C26.9159 19.0669 26.8798 19.103 26.8353 19.1086C26.7909 19.128 26.7492 19.1725 26.7492 19.2225C26.7242 19.2669 26.6798 19.2114 26.6937 19.178C26.6937 19.1641 26.6992 19.1419 26.6937 19.128C26.6687 19.0975 26.6242 19.1086 26.5881 19.103C26.5381 19.103 26.4881 19.0919 26.4381 19.0919C26.3937 19.0864 26.3492 19.0975 26.302 19.0808C26.252 19.0808 26.2576 19.0308 26.2465 18.9919C26.2465 18.9947 26.2353 18.9891 26.227 18.9891ZM26.327 19.1752C26.3409 19.1752 26.3631 19.1808 26.377 19.1808C26.3965 19.1864 26.4215 19.1752 26.4409 19.1808C26.4909 19.1919 26.5409 19.1864 26.5853 19.1919C26.5992 19.1919 26.6048 19.203 26.6159 19.2058C26.6159 19.2419 26.6159 19.2752 26.6159 19.3114C26.6159 19.3252 26.6215 19.3419 26.6048 19.3502C26.5992 19.3558 26.5937 19.3558 26.5937 19.3558C26.5798 19.3502 26.5631 19.3447 26.5576 19.3308C26.5576 19.3114 26.5576 19.2947 26.5576 19.2752C26.5576 19.2697 26.5576 19.2641 26.5576 19.2614C26.5465 19.2502 26.5326 19.2502 26.5215 19.2475C26.4826 19.2475 26.4353 19.2419 26.3965 19.2419C26.3603 19.2419 26.327 19.2475 26.2909 19.2364C26.277 19.2308 26.2603 19.2308 26.252 19.2225C26.2409 19.2086 26.2576 19.1919 26.2659 19.1864C26.2909 19.1808 26.3048 19.1752 26.327 19.1752ZM26.8909 19.1891C26.902 19.1891 26.902 19.1891 26.9048 19.203C26.9048 19.2141 26.9103 19.2225 26.9103 19.228C26.9103 19.2336 26.9103 19.2391 26.8992 19.2391C26.8742 19.2502 26.8492 19.2502 26.8381 19.2336C26.8326 19.228 26.8381 19.2141 26.8492 19.203C26.8659 19.2002 26.8798 19.1891 26.8909 19.1891Z" fill="#C09300"/>
<path d="M27.2794 12.6554C27.3155 12.6554 27.235 12.4749 27.235 12.4749C27.3239 12.5638 27.6544 12.586 27.6544 12.586C27.4544 12.4971 27.2544 11.8304 27.2794 11.2999C27.2989 10.7638 27.2044 10.5554 27.1239 10.4804C27.0239 10.3804 26.7044 10.2916 26.4878 10.2804C26.3683 10.2749 26.3878 10.3693 26.3878 10.3693C26.1683 10.3138 25.9433 10.2888 25.8433 10.3582C25.7489 10.4221 25.7294 10.7332 25.7989 10.6777C25.9628 10.5416 26.11 10.6666 26.21 10.8138C26.2989 10.9388 26.2905 11.3027 26.1655 11.7249C26.0294 12.1693 25.6655 12.611 25.6655 12.611C25.8655 12.611 26.1405 12.436 26.1405 12.436L26.0766 12.711C26.2878 12.611 26.4516 12.4554 26.4516 12.4554L26.6516 12.6666C26.7155 12.5777 26.8517 12.4554 26.8517 12.4554C26.8517 12.4554 27.0267 12.6304 27.2794 12.6554Z" fill="white"/>
<path d="M26.0409 12.7639L26.1048 12.4944C26.0104 12.55 25.8242 12.6389 25.6742 12.6389H25.6104L25.6492 12.5889C25.6548 12.5833 26.0104 12.1444 26.1381 11.7139C26.2687 11.2777 26.2631 10.9389 26.1881 10.8277C26.1187 10.7222 26.0381 10.6639 25.9687 10.6527C25.9187 10.6472 25.8687 10.6639 25.8187 10.7027C25.7992 10.7222 25.7798 10.7166 25.7687 10.7139C25.7492 10.7027 25.7326 10.6777 25.7298 10.6389C25.7187 10.5583 25.7492 10.3889 25.8298 10.3333C25.9492 10.2527 26.1992 10.2944 26.3603 10.3333C26.3659 10.3194 26.3715 10.3027 26.3798 10.2889C26.4048 10.2639 26.4409 10.25 26.4909 10.2527C26.7103 10.2639 27.0409 10.3583 27.1465 10.4639C27.2326 10.55 27.3326 10.7694 27.3103 11.3083C27.2853 11.8527 27.4965 12.4889 27.6715 12.5639L27.6576 12.625C27.627 12.625 27.427 12.6111 27.2965 12.5555C27.3326 12.65 27.3159 12.6666 27.3103 12.675C27.3048 12.6861 27.2909 12.6889 27.2742 12.6889C27.0603 12.6694 26.9103 12.55 26.8548 12.5C26.8159 12.5361 26.7298 12.6194 26.6798 12.6861L26.6603 12.7166L26.4548 12.5027C26.3992 12.5472 26.2604 12.6639 26.0937 12.7416L26.0409 12.7639ZM26.1965 12.3639L26.127 12.65C26.302 12.5555 26.4381 12.4305 26.4381 12.4305L26.4576 12.4111L26.652 12.6166C26.7215 12.5305 26.827 12.4361 26.8326 12.4305L26.852 12.4111L26.8715 12.4305C26.8715 12.4305 27.0215 12.5861 27.2465 12.6166C27.2353 12.5861 27.2159 12.5305 27.1965 12.4805L27.2465 12.4444C27.2965 12.4944 27.4353 12.525 27.5465 12.5333C27.3659 12.3277 27.2159 11.7583 27.2353 11.2889C27.2548 10.7444 27.1548 10.5527 27.0909 10.4889C26.9965 10.3944 26.6853 10.3083 26.477 10.3C26.4576 10.3 26.4326 10.3 26.4159 10.3139C26.402 10.3277 26.4048 10.3527 26.4048 10.3527L26.4159 10.3972L26.3715 10.3861C26.127 10.3222 25.9326 10.3166 25.852 10.3722C25.827 10.3916 25.802 10.4416 25.7881 10.5111C25.777 10.5666 25.777 10.6111 25.7826 10.6361C25.8437 10.5916 25.902 10.575 25.9687 10.5805C26.0576 10.5944 26.1437 10.6611 26.2298 10.7805C26.3298 10.925 26.3104 11.3111 26.1909 11.7166C26.0854 12.0722 25.8354 12.4222 25.7298 12.5555C25.9104 12.525 26.1187 12.3916 26.1187 12.3916L26.1965 12.3639Z" fill="#C09300"/>
<path d="M27.2099 12.4945C27.021 12.214 26.9737 11.4695 26.971 11.439L27.0349 11.4334C27.0349 11.4445 27.0793 12.1945 27.2654 12.4584L27.2099 12.4945ZM26.4849 12.4695L26.4293 12.439C26.5682 12.1834 26.6154 11.364 26.6154 11.3529L26.6793 11.3584C26.6765 11.3945 26.6349 12.2001 26.4849 12.4695ZM26.8293 12.464C26.7737 12.3029 26.7737 11.4251 26.7737 11.389H26.8376C26.8376 11.639 26.8487 12.3195 26.8932 12.4445L26.8293 12.464ZM26.1765 12.4556L26.1321 12.4167C26.3321 12.1917 26.446 11.3862 26.446 11.3779L26.5099 11.389C26.5015 11.414 26.3849 12.214 26.1765 12.4556Z" fill="#C09300"/>
<path d="M26.2709 10.9804C26.2598 10.911 26.2459 10.8499 26.2153 10.8166C26.1153 10.6721 25.9709 10.5527 25.8042 10.6804C25.8042 10.6804 25.8598 10.5054 25.9848 10.4999C26.0792 10.4943 26.2959 10.5693 26.4792 10.8888C26.4792 10.8888 26.3403 10.8582 26.3042 10.8888C26.2459 10.9443 26.2709 10.9804 26.2709 10.9804Z" fill="#C09300"/>
<path d="M26.2599 10.9859C26.2599 10.9859 26.2488 10.972 26.2544 10.9498C26.2432 10.8887 26.2294 10.8498 26.2099 10.8137C26.1349 10.7026 26.0544 10.6387 25.9738 10.6276C25.9182 10.6164 25.8627 10.6387 25.8099 10.6831L25.7849 10.7026L25.796 10.672C25.796 10.6664 25.8571 10.4914 25.9821 10.4831C26.0766 10.4776 26.296 10.5526 26.4877 10.8776L26.4988 10.897L26.4794 10.8914C26.4294 10.8803 26.3349 10.8664 26.3155 10.8859C26.2905 10.9109 26.2794 10.9248 26.2766 10.9414C26.2766 10.9526 26.2821 10.9609 26.2821 10.972L26.2599 10.9859ZM25.9516 10.6137C25.9627 10.6137 25.971 10.6137 25.9821 10.6137C26.0682 10.6248 26.146 10.6887 26.2266 10.8026C26.246 10.8276 26.2627 10.8664 26.271 10.9137C26.2766 10.9026 26.2905 10.8887 26.3071 10.8748C26.3377 10.8498 26.4266 10.8637 26.4682 10.8692C26.2821 10.5637 26.0821 10.4942 25.9877 10.4998C25.9016 10.5053 25.8488 10.5998 25.8266 10.6498C25.8655 10.6303 25.9044 10.6137 25.9516 10.6137Z" fill="#C09300"/>
<path d="M25.7849 10.4638C25.7988 10.4193 25.821 10.3777 25.8488 10.3582C25.9488 10.2943 26.1682 10.3138 26.3932 10.3693C26.3932 10.3693 26.3738 10.2749 26.4932 10.2804C26.7043 10.2916 27.0293 10.3804 27.1293 10.4804C27.1543 10.5054 27.1793 10.5443 27.2043 10.5999H27.1988C27.1488 10.5304 27.0099 10.536 26.9793 10.5388C26.9238 10.5443 26.8932 10.5443 26.8238 10.5582C26.7877 10.5693 26.7377 10.5777 26.7127 10.5971C26.6932 10.6166 26.6738 10.6777 26.6377 10.6777C26.5821 10.6777 26.5877 10.6638 26.5738 10.6471C26.5543 10.6277 26.5488 10.5916 26.5293 10.5971C26.4738 10.6082 26.3849 10.561 26.2738 10.4777C26.1627 10.3888 26.1182 10.3666 25.9738 10.3777C25.8294 10.3888 25.7849 10.4666 25.7849 10.4666V10.4638Z" fill="#C09300"/>
<path d="M26.6352 10.6889C26.5908 10.6889 26.5797 10.6778 26.5714 10.6639C26.5714 10.6584 26.5658 10.6584 26.5658 10.6528C26.5602 10.6417 26.5547 10.6389 26.5519 10.6278C26.5464 10.6167 26.538 10.6028 26.5325 10.6028C26.4769 10.6139 26.388 10.5722 26.2714 10.4778C26.1602 10.3889 26.1214 10.3667 25.9769 10.3778C25.8408 10.3889 25.7964 10.4639 25.7964 10.4667L25.7825 10.4556L25.788 10.4445C25.7991 10.4139 25.8186 10.3584 25.8519 10.3334C25.9714 10.2528 26.238 10.3028 26.3908 10.3445C26.3908 10.3306 26.3908 10.3056 26.4102 10.2834C26.4297 10.2639 26.4602 10.2528 26.4991 10.2528C26.7186 10.2639 27.038 10.3528 27.138 10.4584C27.1686 10.4945 27.1936 10.5334 27.213 10.5778L27.2186 10.5889H27.1991L27.1936 10.5834C27.1491 10.5222 27.0241 10.5222 26.9797 10.5278C26.9658 10.5278 26.9491 10.5334 26.9408 10.5334C26.9047 10.5389 26.8769 10.5389 26.8269 10.5528L26.8158 10.5584C26.7852 10.5639 26.7408 10.5722 26.7214 10.5945C26.7158 10.6 26.7075 10.6139 26.7019 10.625C26.6769 10.6639 26.6602 10.6889 26.6352 10.6889ZM26.5269 10.5945C26.5408 10.5945 26.5519 10.6084 26.563 10.625C26.5686 10.6361 26.5741 10.6389 26.5769 10.6445C26.5825 10.65 26.5825 10.65 26.5825 10.6556C26.588 10.6667 26.5936 10.6695 26.6325 10.6695C26.6464 10.6695 26.663 10.6445 26.6714 10.625C26.6825 10.6111 26.6852 10.5945 26.6964 10.5889C26.7213 10.5695 26.7658 10.5584 26.8019 10.55L26.813 10.5445C26.863 10.5306 26.8991 10.5306 26.9325 10.525C26.9463 10.525 26.9575 10.525 26.9713 10.5195C26.9713 10.5195 27.1019 10.5056 27.1713 10.5556C27.1575 10.525 27.1352 10.5 27.1158 10.475C27.0213 10.3806 26.7019 10.2889 26.4908 10.2806C26.4547 10.2806 26.4297 10.2861 26.4158 10.3056C26.3964 10.3306 26.4019 10.3611 26.4019 10.3611L26.4075 10.375L26.3936 10.3695C26.138 10.3056 25.9436 10.3 25.8575 10.3556C25.8436 10.3667 25.8214 10.3917 25.813 10.4195C25.8436 10.3945 25.8936 10.3639 25.9769 10.3584C26.1214 10.3472 26.1658 10.3695 26.2825 10.4584C26.3852 10.5611 26.4769 10.6056 26.5269 10.5945Z" fill="#C09300"/>
<path d="M26.6043 10.5973C26.6381 10.5973 26.6654 10.5699 26.6654 10.5362C26.6654 10.5024 26.6381 10.4751 26.6043 10.4751C26.5706 10.4751 26.5432 10.5024 26.5432 10.5362C26.5432 10.5699 26.5706 10.5973 26.6043 10.5973Z" fill="white"/>
<path d="M26.6659 16.3611C28.2965 15.1055 28.1548 13.2666 28.1548 13.2666C28.1103 13.2778 28.0687 13.2805 28.0298 13.2805C27.6909 13.2805 26.8687 13.0861 26.6798 12.8361C26.4742 13.0611 25.6409 13.2805 25.2992 13.2805C25.2548 13.2805 25.2131 13.275 25.1742 13.2666C25.177 13.2639 25.0298 15.1055 26.6659 16.3611Z" fill="white"/>
<path d="M26.6657 16.3998L26.6463 16.3859C25.0213 15.1359 25.1407 13.2859 25.1463 13.2665L25.1518 13.2304L25.1824 13.2359C25.2213 13.247 25.2629 13.247 25.3018 13.247C25.6463 13.247 26.4629 13.0276 26.6574 12.8109L26.6824 12.7859L26.7018 12.8109C26.8824 13.047 27.6907 13.247 28.0268 13.247C28.0657 13.247 28.1074 13.2415 28.1463 13.2359L28.1768 13.2304V13.2609C28.1768 13.2804 28.2963 15.1304 26.6713 16.3804L26.6657 16.3998ZM25.2018 13.2998C25.1907 13.5498 25.1963 15.1859 26.6657 16.3248C28.1296 15.1859 28.1407 13.5498 28.1296 13.2998C28.0935 13.3054 28.0657 13.3109 28.0296 13.3109C27.6991 13.3109 26.9102 13.1248 26.6796 12.8804C26.4296 13.1165 25.6185 13.3109 25.3046 13.3109C25.2657 13.3109 25.2352 13.3054 25.2018 13.2998Z" fill="#C09300"/>
<path d="M26.6658 16.2195L26.6519 16.2084C26.0464 15.7279 25.6214 15.0779 25.4158 14.339C25.3519 14.0945 25.3047 13.8501 25.2908 13.6084C25.2853 13.5529 25.2797 13.4779 25.2853 13.3973V13.3723L25.3103 13.3779C25.3241 13.3834 25.3353 13.3834 25.3491 13.3834C25.6547 13.3834 26.3853 13.2029 26.663 12.989L26.6769 12.9779L26.6908 12.989C26.9714 13.2279 27.6964 13.3779 27.9853 13.3779C27.9992 13.3779 28.0103 13.3779 28.0242 13.3779H28.0492V13.4029C28.0492 13.4584 28.0436 13.5417 28.0436 13.6084C28.0297 13.8529 27.9825 14.0973 27.9186 14.339C27.713 15.0779 27.2825 15.7279 26.6797 16.2084L26.6658 16.2195ZM25.3269 13.4251C25.3269 13.489 25.3325 13.5612 25.3325 13.6056C25.3464 13.8445 25.388 14.0917 25.4575 14.3306C25.663 15.0667 26.0686 15.6862 26.663 16.1667C27.263 15.6862 27.6686 15.0667 27.8742 14.3306C27.938 14.0917 27.9853 13.8445 27.9992 13.6056C27.9992 13.5612 28.0047 13.4862 28.0047 13.4306C27.9992 13.4306 27.9908 13.4306 27.9853 13.4306C27.6908 13.4306 26.9742 13.2806 26.6742 13.0417C26.3742 13.2556 25.6603 13.4306 25.3436 13.4306C25.3408 13.4251 25.3353 13.4251 25.3269 13.4251Z" fill="#C09300"/>
<path fill-rule="evenodd" clip-rule="evenodd" d="M25.2964 12.989H26.2103V16.2029H25.2964V12.989Z" fill="#C09300"/>
<path fill-rule="evenodd" clip-rule="evenodd" d="M26.21 12.989H27.1238V16.2029H26.21V12.989Z" fill="white"/>
<path fill-rule="evenodd" clip-rule="evenodd" d="M27.1216 12.989H28.0355V16.2029H27.1216V12.989Z" fill="#C09300"/>
</g>
<defs>
<clipPath id="clip0">
<rect width="53.3333" height="30" fill="white" transform="translate(-0.000976562)"/>
</clipPath>
</defs>
</svg>
