<svg width="24" height="24" viewBox="0 0 24 24" fill="none" xmlns="http://www.w3.org/2000/svg">
<path d="M0 12C0 5.37258 5.37258 0 12 0C18.6274 0 24 5.37258 24 12C24 18.6274 18.6274 24 12 24C5.37258 24 0 18.6274 0 12Z" fill="#F3F5F8"/>
<mask id="mask0" mask-type="alpha" maskUnits="userSpaceOnUse" x="0" y="0" width="24" height="24">
<path fill-rule="evenodd" clip-rule="evenodd" d="M0 12C0 5.37258 5.37258 0 12 0C18.6274 0 24 5.37258 24 12C24 18.6274 18.6274 24 12 24C5.37258 24 0 18.6274 0 12Z" fill="white"/>
</mask>
<g mask="url(#mask0)">
<path fill-rule="evenodd" clip-rule="evenodd" d="M12.0006 5.6001C10.2624 5.6001 10.0443 5.6077 9.36161 5.63876C8.68027 5.66997 8.2152 5.77783 7.80826 5.9361C7.38733 6.09957 7.03026 6.31824 6.67452 6.67411C6.31852 7.02985 6.09985 7.38692 5.93585 7.80772C5.77718 8.21479 5.66918 8.68 5.63851 9.36107C5.60798 10.0437 5.59998 10.262 5.59998 12.0002C5.59998 13.7383 5.60771 13.9558 5.63864 14.6385C5.66998 15.3198 5.77784 15.7849 5.93598 16.1918C6.09958 16.6127 6.31825 16.9698 6.67412 17.3256C7.02972 17.6816 7.38679 17.9008 7.80747 18.0642C8.21467 18.2225 8.67987 18.3304 9.36108 18.3616C10.0438 18.3926 10.2618 18.4002 11.9998 18.4002C13.7381 18.4002 13.9555 18.3926 14.6382 18.3616C15.3195 18.3304 15.7851 18.2225 16.1924 18.0642C16.6132 17.9008 16.9697 17.6816 17.3253 17.3256C17.6813 16.9698 17.9 16.6127 18.064 16.1919C18.2213 15.7849 18.3293 15.3197 18.3613 14.6386C18.392 13.9559 18.4 13.7383 18.4 12.0002C18.4 10.262 18.392 10.0439 18.3613 9.3612C18.3293 8.67986 18.2213 8.21479 18.064 7.80785C17.9 7.38692 17.6813 7.02985 17.3253 6.67411C16.9693 6.31811 16.6133 6.09944 16.192 5.9361C15.7839 5.77783 15.3186 5.66997 14.6373 5.63876C13.9546 5.6077 13.7373 5.6001 11.9986 5.6001H12.0006ZM11.7871 6.75339H11.7873L12.0006 6.75345C13.7094 6.75345 13.9119 6.75959 14.5867 6.79026C15.2107 6.81879 15.5494 6.92306 15.775 7.01066C16.0737 7.12666 16.2866 7.26533 16.5105 7.48933C16.7345 7.71333 16.8732 7.92667 16.9894 8.22534C17.077 8.45067 17.1814 8.78934 17.2098 9.41335C17.2405 10.088 17.2472 10.2907 17.2472 11.9987C17.2472 13.7067 17.2405 13.9094 17.2098 14.5841C17.1813 15.2081 17.077 15.5467 16.9894 15.7721C16.8734 16.0708 16.7345 16.2834 16.5105 16.5073C16.2865 16.7313 16.0738 16.87 15.775 16.986C15.5497 17.074 15.2107 17.178 14.5867 17.2065C13.9121 17.2372 13.7094 17.2438 12.0006 17.2438C10.2916 17.2438 10.0891 17.2372 9.41441 17.2065C8.7904 17.1777 8.45173 17.0734 8.226 16.9858C7.92733 16.8698 7.71399 16.7312 7.48999 16.5072C7.26599 16.2832 7.12732 16.0704 7.01105 15.7716C6.92345 15.5462 6.81905 15.2075 6.79065 14.5835C6.75998 13.9089 6.75385 13.7062 6.75385 11.9971C6.75385 10.288 6.75998 10.0864 6.79065 9.41175C6.81918 8.78774 6.92345 8.44907 7.01105 8.22347C7.12705 7.9248 7.26599 7.71147 7.48999 7.48746C7.71399 7.26346 7.92733 7.12479 8.226 7.00852C8.4516 6.92052 8.7904 6.81652 9.41441 6.78786C10.0048 6.76119 10.2336 6.75319 11.4264 6.75185V6.75345C11.5379 6.75328 11.6577 6.75333 11.7871 6.75339ZM14.6489 8.58392C14.6489 8.15978 14.9929 7.81618 15.4169 7.81618V7.81591C15.8409 7.81591 16.1849 8.15992 16.1849 8.58392C16.1849 9.00792 15.8409 9.35193 15.4169 9.35193C14.9929 9.35193 14.6489 9.00792 14.6489 8.58392ZM12.0005 8.71343C10.1854 8.7135 8.71388 10.1851 8.71388 12.0001C8.71388 13.8152 10.1855 15.2862 12.0006 15.2862C13.8157 15.2862 15.2868 13.8152 15.2868 12.0001C15.2868 10.185 13.8155 8.71343 12.0005 8.71343ZM14.1339 12.0002C14.1339 10.8219 13.1787 9.8668 12.0006 9.8668C10.8223 9.8668 9.86722 10.8219 9.86722 12.0002C9.86722 13.1783 10.8223 14.1335 12.0006 14.1335C13.1787 14.1335 14.1339 13.1783 14.1339 12.0002Z" fill="#103979"/>
</g>
</svg>
