<svg width="54" height="30" viewBox="0 0 54 30" fill="none" xmlns="http://www.w3.org/2000/svg">
<g clip-path="url(#clip0)">
<path d="M0.329102 0H53.6624V30H0.329102V0Z" fill="white"/>
<path d="M0.329102 2.81384H53.6624V7.49996H0.329102V2.81384Z" fill="#0038B8"/>
<path d="M0.329102 22.5H53.6624V27.1889H0.329102V22.5Z" fill="#0038B8"/>
<path d="M26.9957 21.4947L25.1207 18.2475H21.3707L23.2457 15.0002L21.3707 11.753H25.1207L26.9957 8.5058L28.8707 11.753H32.6207L30.7457 15.0002L32.6207 18.2475H28.8707L26.9957 21.4947ZM26.3124 18.2475L26.9957 19.4336L27.6791 18.2475H26.3124ZM29.4679 17.2169H30.8374L30.1541 16.0308L29.4679 17.2169ZM25.7179 17.2169H28.2763L29.5541 15.0002L28.2763 12.7836H25.7179L24.4402 15.0002L25.7179 17.2169ZM23.1568 17.2169H24.5235L23.8402 16.0308L23.1568 17.2169ZM29.4679 12.7836L30.1513 13.9697L30.8346 12.7836H29.4679ZM23.1568 12.7836L23.8402 13.9697L24.5235 12.7836H23.1568ZM26.3124 11.753H27.6818L26.9957 10.5669L26.3124 11.753Z" fill="#0038B8"/>
</g>
<defs>
<clipPath id="clip0">
<rect width="53.3333" height="30" fill="white" transform="translate(0.329102)"/>
</clipPath>
</defs>
</svg>
