<svg width="16" height="16" viewBox="0 0 16 16" fill="none" xmlns="http://www.w3.org/2000/svg">
<path fill-rule="evenodd" clip-rule="evenodd" d="M8.90891 14.6791C10.4713 13.1787 13.5 9.83934 13.5 6.5C13.5 3.46243 11.0376 1 8 1C4.96243 1 2.5 3.46243 2.5 6.5C2.5 9.83934 5.52873 13.1787 7.09109 14.6791C7.60601 15.1736 8.39399 15.1736 8.90891 14.6791ZM8 8.75C9.24264 8.75 10.25 7.74264 10.25 6.5C10.25 5.25736 9.24264 4.25 8 4.25C6.75736 4.25 5.75 5.25736 5.75 6.5C5.75 7.74264 6.75736 8.75 8 8.75Z" fill="white"/>
</svg>
