<svg width="24" height="24" viewBox="0 0 24 24" fill="none" xmlns="http://www.w3.org/2000/svg">
<path d="M19.1343 5.9414C19.2567 5.50789 19.0878 5.09432 18.8318 4.83189C18.5762 4.57 18.1622 4.38769 17.723 4.52082L17.4093 4.61592C12.6341 6.06333 8.05747 7.97334 3.73501 10.323C3.27224 10.5746 3.17421 11.0711 3.2693 11.4515C3.36406 11.8306 3.66523 12.1997 4.13359 12.3055L9.16254 13.4411C9.78609 13.582 10.3246 14.1268 10.4675 14.7845L11.5904 19.9539C11.6915 20.4192 12.0446 20.7337 12.4284 20.8337C12.819 20.9354 13.31 20.8197 13.5496 20.3487C15.8164 15.8943 17.6548 11.1805 19.043 6.26455L19.1343 5.9414Z" fill="white"/>
</svg>
