<svg width="32" height="32" viewBox="0 0 32 32" fill="none" xmlns="http://www.w3.org/2000/svg">
<path d="M0 16C0 7.16344 7.16344 0 16 0C24.8366 0 32 7.16344 32 16C32 24.8366 24.8366 32 16 32C7.16344 32 0 24.8366 0 16Z" fill="white"/>
<path fill-rule="evenodd" clip-rule="evenodd" d="M13.2929 9.95964C13.6834 9.56912 14.3166 9.56912 14.7071 9.95964L20.0404 15.293C20.431 15.6835 20.431 16.3167 20.0404 16.7072L14.7071 22.0405C14.3166 22.431 13.6834 22.431 13.2929 22.0405C12.9024 21.65 12.9024 21.0168 13.2929 20.6263L17.9191 16.0001L13.2929 11.3739C12.9024 10.9833 12.9024 10.3502 13.2929 9.95964Z" fill="#0067C6"/>
</svg>
