<svg width="24" height="24" viewBox="0 0 24 24" fill="none" xmlns="http://www.w3.org/2000/svg">
<path d="M0 12C0 5.37258 5.37258 0 12 0C18.6274 0 24 5.37258 24 12C24 18.6274 18.6274 24 12 24C5.37258 24 0 18.6274 0 12Z" fill="#F3F5F8"/>
<path d="M13.298 14.7201L15.0913 16.4514C15.4587 16.8053 15.4587 17.38 15.0913 17.7343C14.7243 18.0886 14.1295 18.0886 13.7629 17.7343L11.9997 16.0331L10.238 17.7343C10.0543 17.9112 9.81364 17.9998 9.57295 17.9998C9.33263 17.9998 9.09232 17.9112 8.90863 17.7343C8.54163 17.38 8.54163 16.8057 8.90824 16.4514L10.7018 14.7201C10.0488 14.5766 9.41901 14.3268 8.83895 13.9755C8.39998 13.7083 8.26811 13.1486 8.5447 12.7245C8.82053 12.2998 9.40058 12.172 9.84032 12.4392C11.1536 13.2366 12.8454 13.2368 14.1595 12.4392C14.5992 12.172 15.1791 12.2998 15.4555 12.7245C15.732 13.1482 15.5998 13.7083 15.1608 13.9755C14.5808 14.3272 13.951 14.5766 13.298 14.7201Z" fill="#103979"/>
<path fill-rule="evenodd" clip-rule="evenodd" d="M8.78387 9.09679C8.78387 10.804 10.2227 12.1927 11.9918 12.1927C13.7614 12.1927 15.1998 10.804 15.1998 9.09679C15.1998 7.38905 13.7614 6 11.9918 6C10.2227 6 8.78387 7.38905 8.78387 9.09679ZM13.3201 9.0968C13.3201 8.38977 12.7243 7.81484 11.9918 7.81484C11.2599 7.81484 10.6636 8.38977 10.6636 9.0968C10.6636 9.80328 11.2599 10.3786 11.9918 10.3786C12.7243 10.3786 13.3201 9.80328 13.3201 9.0968Z" fill="#103979"/>
</svg>
