<svg width="24" height="24" viewBox="0 0 24 24" fill="none" xmlns="http://www.w3.org/2000/svg">
<path d="M3.83305 11.9292C5.74945 16.1031 9.15946 19.4216 13.399 21.2206L14.0786 21.5234C15.6334 22.2161 17.4612 21.6898 18.4095 20.2763L19.2976 18.9526C19.5863 18.5222 19.4984 17.9426 19.095 17.6172L16.0832 15.1874C15.6408 14.8305 14.9903 14.9136 14.6519 15.3703L13.7202 16.6276C11.3293 15.4482 9.3883 13.5072 8.20895 11.1163L9.4662 10.1846C9.92286 9.8462 10.006 9.19569 9.6491 8.75331L7.21923 5.74137C6.89389 5.33808 6.31438 5.25012 5.88402 5.53869L4.55118 6.43238C3.12883 7.38609 2.60545 9.22894 3.31418 10.7879L3.83227 11.9275L3.83305 11.9292Z" fill="#F3F5F8"/>
<path d="M12.1536 3.43064C12.33 3.0559 12.7769 2.89518 13.1516 3.07165C14.8239 3.8592 16.4 4.92303 17.8121 6.26389C19.2241 7.60474 20.368 9.12373 21.241 10.7531C21.4366 11.1182 21.2992 11.5728 20.9341 11.7684C20.5689 11.964 20.1144 11.8266 19.9188 11.4615C19.1205 9.97142 18.0738 8.58088 16.7792 7.35161C15.4847 6.12234 14.0419 5.14891 12.5125 4.4287C12.1378 4.25222 11.9771 3.80538 12.1536 3.43064Z" fill="#F3F5F8"/>
<path d="M12.3136 6.16944C11.9333 6.0053 11.4919 6.18055 11.3278 6.56086C11.1636 6.94116 11.3389 7.38252 11.7192 7.54665C12.7961 8.01141 13.8116 8.67069 14.7134 9.52709C15.4615 10.2374 16.0781 11.0327 16.5632 11.8831C16.5902 11.9305 16.6168 11.978 16.643 12.0258C16.7136 12.1543 16.7813 12.2841 16.846 12.4149C17.0296 12.7863 17.4794 12.9385 17.8507 12.7549C18.222 12.5713 18.3742 12.1215 18.1907 11.7502C18.1164 11.6 18.0388 11.4511 17.9577 11.3035C17.9276 11.2488 17.8971 11.1942 17.8661 11.1398C17.3091 10.1634 16.6019 9.2518 15.7463 8.43936C14.7146 7.45964 13.5501 6.70311 12.3136 6.16944Z" fill="#F3F5F8"/>
</svg>
