<svg width="50" height="51" viewBox="0 0 50 51" fill="none" xmlns="http://www.w3.org/2000/svg">
<path fill-rule="evenodd" clip-rule="evenodd" d="M9.94484 8.20754C9.94484 3.67464 13.6195 0 18.1524 0C20.691 0 22.9604 1.15251 24.4659 2.96284C25.9714 1.15251 28.2408 0 30.7794 0C35.3123 0 38.9869 3.67464 38.9869 8.20754C38.9869 10.1124 38.338 11.8656 37.2492 13.2583H39.6183C43.1051 13.2583 45.9318 16.085 45.9318 19.5718V22.7286C45.9318 23.7746 45.0838 24.6226 44.0377 24.6226H27.1175C26.6991 24.6226 26.3599 24.2834 26.3599 23.865V15.1248C25.6454 14.6674 25.0064 14.1022 24.4659 13.4523C23.9254 14.1022 23.2864 14.6674 22.5718 15.1248V23.865C22.5718 24.2834 22.2326 24.6226 21.8142 24.6226H4.89405C3.84799 24.6226 3 23.7746 3 22.7286V19.5718C3 16.085 5.82665 13.2583 9.3135 13.2583H11.6825C10.5937 11.8656 9.94484 10.1124 9.94484 8.20754ZM22.5718 8.20754C22.5718 5.76675 20.5932 3.7881 18.1524 3.7881C15.7116 3.7881 13.7329 5.76675 13.7329 8.20754C13.7329 10.6483 15.7116 12.627 18.1524 12.627C20.5932 12.627 22.5718 10.6483 22.5718 8.20754ZM26.3599 8.20754C26.3599 10.6483 28.3386 12.627 30.7794 12.627C33.2202 12.627 35.1988 10.6483 35.1988 8.20754C35.1988 5.76675 33.2202 3.7881 30.7794 3.7881C28.3386 3.7881 26.3599 5.76675 26.3599 8.20754Z" fill="#0067C6"/>
<path d="M22.5718 28.7896C22.5718 28.3711 22.2326 28.0319 21.8142 28.0319H8.42711C7.40268 28.0319 6.52729 28.7701 6.35426 29.7798C5.7935 33.0522 5.7935 36.3962 6.35426 39.6687L6.92074 42.9745C7.30216 45.2004 9.10997 46.9055 11.3543 47.1564L14.0442 47.457C16.6224 47.7452 19.2095 47.9261 21.799 47.9997C22.2232 48.0118 22.5718 47.6698 22.5718 47.2454V28.7896Z" fill="#0067C6"/>
<path d="M27.1328 47.9997C26.7085 48.0118 26.3599 47.6698 26.3599 47.2454L26.3599 28.7896C26.3599 28.3711 26.6991 28.0319 27.1175 28.0319H40.5046C41.5291 28.0319 42.4045 28.7701 42.5775 29.7798C43.1383 33.0522 43.1383 36.3962 42.5775 39.6687L42.011 42.9745C41.6296 45.2004 39.8218 46.9055 37.5774 47.1564L34.8876 47.457C32.3094 47.7452 29.7222 47.9261 27.1328 47.9997Z" fill="#0067C6"/>
<path d="M26.725 38.0812L27.363 37.3111L26.725 38.0812L30.5141 41.2204C30.5843 41.2785 30.6173 41.3702 30.6002 41.4597L29.609 46.6648C29.2957 48.3105 31.0233 49.5891 32.5056 48.8086L37.295 46.2868C37.3679 46.2484 37.455 46.2484 37.5279 46.2868L37.9938 45.4019L37.5279 46.2868L42.3173 48.8086C43.7996 49.5891 45.5272 48.3105 45.2138 46.6648L44.2227 41.4597C44.2056 41.3702 44.2386 41.2785 44.3088 41.2204L48.0978 38.0812C49.4284 36.9788 48.8291 34.8215 47.1206 34.5635L42.0343 33.7953C41.9592 33.7839 41.8934 33.7392 41.8554 33.6735L39.1413 28.9962C38.3705 27.6679 36.4523 27.6679 35.6816 28.9962L35.6816 28.9962L32.9675 33.6735C32.9294 33.7392 32.8636 33.7839 32.7886 33.7953L27.7023 34.5635C25.9937 34.8215 25.3944 36.9788 26.725 38.0812Z" fill="#FF5621" stroke="#F3F5F8" stroke-width="2" stroke-linejoin="round"/>
</svg>
