<svg width="32" height="32" viewBox="0 0 32 32" fill="none" xmlns="http://www.w3.org/2000/svg">
<path d="M0 16C0 7.16344 7.16344 0 16 0C24.8366 0 32 7.16344 32 16C32 24.8366 24.8366 32 16 32C7.16344 32 0 24.8366 0 16Z" fill="white"/>
<path fill-rule="evenodd" clip-rule="evenodd" d="M18.7071 9.95964C19.0976 10.3502 19.0976 10.9833 18.7071 11.3739L14.0809 16.0001L18.7071 20.6263C19.0976 21.0168 19.0976 21.65 18.7071 22.0405C18.3166 22.431 17.6834 22.431 17.2929 22.0405L11.9596 16.7072C11.569 16.3167 11.569 15.6835 11.9596 15.293L17.2929 9.95964C17.6834 9.56912 18.3166 9.56912 18.7071 9.95964Z" fill="#0067C6"/>
</svg>
