<svg width="48" height="48" viewBox="0 0 48 48" fill="none" xmlns="http://www.w3.org/2000/svg">
<path d="M27.5926 0.981243C25.4199 -0.327082 22.7019 -0.32708 20.5291 0.981244L18.9581 1.92725C15.1461 4.22262 10.8667 5.63113 6.43662 6.04851L5.44683 6.14176C3.49302 6.32583 2 7.96613 2 9.92859V14.9307C2 23.3858 5.43263 31.4785 11.5115 37.3551L21.4172 46.9311C22.8915 48.3563 25.2302 48.3563 26.7045 46.9311L36.6102 37.3551C42.6891 31.4785 46.1218 23.3858 46.1218 14.9307V9.92859C46.1218 7.96613 44.6287 6.32583 42.6749 6.14176L41.6851 6.04851C37.2551 5.63113 32.9756 4.22262 29.1637 1.92725L27.5926 0.981243Z" fill="#0067C6"/>
<path d="M18.5241 12C13.9213 12 10 15.4416 10 19.9114C10 22.9949 11.4439 25.5909 13.3575 27.7414C15.2645 29.8845 17.7249 31.6833 19.9492 33.1889L23.7869 35.7866C24.2072 36.0711 24.7583 36.0711 25.1786 35.7866L29.0163 33.1889C31.2406 31.6833 33.701 29.8845 35.608 27.7414C37.5216 25.5909 38.9655 22.9949 38.9655 19.9114C38.9655 15.4416 35.0442 12 30.4414 12C28.0687 12 25.981 13.1125 24.4828 14.552C22.9846 13.1125 20.8968 12 18.5241 12Z" fill="#F3F5F8"/>
<path d="M19.3846 22.6154C18.6199 22.6154 18 23.2353 18 24C18 24.7647 18.6199 25.3846 19.3846 25.3846H22.6154V28.6154C22.6154 29.3801 23.2353 30 24 30C24.7647 30 25.3846 29.3801 25.3846 28.6154V25.3846H28.6154C29.3801 25.3846 30 24.7647 30 24C30 23.2353 29.3801 22.6154 28.6154 22.6154H25.3846V19.3846C25.3846 18.6199 24.7647 18 24 18C23.2353 18 22.6154 18.6199 22.6154 19.3846V22.6154H19.3846Z" fill="#FF5621"/>
</svg>
