<svg width="78" height="14" viewBox="0 0 78 14" fill="none" xmlns="http://www.w3.org/2000/svg">
<path d="M6.31191 1.5868C6.57303 0.984639 7.42697 0.984639 7.68809 1.5868L8.72474 3.9774C8.83342 4.22802 9.06975 4.39973 9.34169 4.42564L11.9356 4.67282C12.589 4.73507 12.8529 5.54723 12.3609 5.98164L10.4076 7.70629C10.2029 7.88709 10.1126 8.16493 10.172 8.43156L10.7385 10.9749C10.8812 11.6156 10.1903 12.1175 9.62512 11.7838L7.38129 10.4591C7.14607 10.3202 6.85393 10.3202 6.61871 10.4591L4.37488 11.7838C3.80969 12.1175 3.11883 11.6156 3.26152 10.9749L3.82802 8.43156C3.88741 8.16493 3.79713 7.88709 3.59237 7.70629L1.63911 5.98164C1.14711 5.54723 1.41099 4.73507 2.06437 4.67282L4.65831 4.42564C4.93025 4.39973 5.16658 4.22802 5.27526 3.9774L6.31191 1.5868Z" fill="#FFE600"/>
<path d="M22.3119 1.5868C22.573 0.984639 23.427 0.984639 23.6881 1.5868L24.7247 3.9774C24.8334 4.22802 25.0698 4.39973 25.3417 4.42564L27.9356 4.67282C28.589 4.73507 28.8529 5.54723 28.3609 5.98164L26.4076 7.70629C26.2029 7.88709 26.1126 8.16493 26.172 8.43156L26.7385 10.9749C26.8812 11.6156 26.1903 12.1175 25.6251 11.7838L23.3813 10.4591C23.1461 10.3202 22.8539 10.3202 22.6187 10.4591L20.3749 11.7838C19.8097 12.1175 19.1188 11.6156 19.2615 10.9749L19.828 8.43155C19.8874 8.16493 19.7971 7.88709 19.5924 7.70629L17.6391 5.98164C17.1471 5.54723 17.411 4.73507 18.0644 4.67282L20.6583 4.42564C20.9302 4.39973 21.1666 4.22802 21.2753 3.9774L22.3119 1.5868Z" fill="#FFE600"/>
<path d="M38.3119 1.5868C38.573 0.984639 39.427 0.984639 39.6881 1.5868L40.7247 3.9774C40.8334 4.22802 41.0698 4.39973 41.3417 4.42564L43.9356 4.67282C44.589 4.73507 44.8529 5.54723 44.3609 5.98164L42.4076 7.70629C42.2029 7.88709 42.1126 8.16493 42.172 8.43156L42.7385 10.9749C42.8812 11.6156 42.1903 12.1175 41.6251 11.7838L39.3813 10.4591C39.1461 10.3202 38.8539 10.3202 38.6187 10.4591L36.3749 11.7838C35.8097 12.1175 35.1188 11.6156 35.2615 10.9749L35.828 8.43155C35.8874 8.16493 35.7971 7.88709 35.5924 7.70629L33.6391 5.98164C33.1471 5.54723 33.411 4.73507 34.0644 4.67282L36.6583 4.42564C36.9302 4.39973 37.1666 4.22802 37.2753 3.9774L38.3119 1.5868Z" fill="#FFE600"/>
<path d="M54.3119 1.5868C54.573 0.984639 55.427 0.984639 55.6881 1.5868L56.7247 3.9774C56.8334 4.22802 57.0698 4.39973 57.3417 4.42564L59.9356 4.67282C60.589 4.73507 60.8529 5.54723 60.3609 5.98164L58.4076 7.70629C58.2029 7.88709 58.1126 8.16493 58.172 8.43156L58.7385 10.9749C58.8812 11.6156 58.1903 12.1175 57.6251 11.7838L55.3813 10.4591C55.1461 10.3202 54.8539 10.3202 54.6187 10.4591L52.3749 11.7838C51.8097 12.1175 51.1188 11.6156 51.2615 10.9749L51.828 8.43155C51.8874 8.16493 51.7971 7.88709 51.5924 7.70629L49.6391 5.98164C49.1471 5.54723 49.411 4.73507 50.0644 4.67282L52.6583 4.42564C52.9302 4.39973 53.1666 4.22802 53.2753 3.9774L54.3119 1.5868Z" fill="#FFE600"/>
<path d="M70.3119 1.5868C70.573 0.984639 71.427 0.984639 71.6881 1.5868L72.7247 3.9774C72.8334 4.22802 73.0698 4.39973 73.3417 4.42564L75.9356 4.67282C76.589 4.73507 76.8529 5.54723 76.3609 5.98164L74.4076 7.70629C74.2029 7.88709 74.1126 8.16493 74.172 8.43156L74.7385 10.9749C74.8812 11.6156 74.1903 12.1175 73.6251 11.7838L71.3813 10.4591C71.1461 10.3202 70.8539 10.3202 70.6187 10.4591L68.3749 11.7838C67.8097 12.1175 67.1188 11.6156 67.2615 10.9749L67.828 8.43155C67.8874 8.16493 67.7971 7.88709 67.5924 7.70629L65.6391 5.98164C65.1471 5.54723 65.411 4.73507 66.0644 4.67282L68.6583 4.42564C68.9302 4.39973 69.1666 4.22802 69.2753 3.9774L70.3119 1.5868Z" fill="#FFE600"/>
</svg>
