<svg width="12" height="11" viewBox="0 0 12 11" fill="none" xmlns="http://www.w3.org/2000/svg">
<path d="M5.31191 0.586799C5.57303 -0.0153612 6.42697 -0.0153611 6.68809 0.586799L7.72474 2.9774C7.83342 3.22802 8.06975 3.39973 8.34169 3.42564L10.9356 3.67282C11.589 3.73507 11.8529 4.54723 11.3609 4.98164L9.40763 6.70629C9.20287 6.88709 9.11259 7.16493 9.17198 7.43156L9.73848 9.97492C9.88117 10.6156 9.19031 11.1175 8.62512 10.7838L6.38129 9.45911C6.14607 9.32023 5.85393 9.32023 5.61871 9.45911L3.37488 10.7838C2.80969 11.1175 2.11883 10.6156 2.26152 9.97492L2.82802 7.43155C2.88741 7.16493 2.79713 6.88709 2.59237 6.70629L0.639107 4.98164C0.147109 4.54723 0.410994 3.73507 1.06437 3.67282L3.65831 3.42564C3.93025 3.39973 4.16658 3.22802 4.27526 2.9774L5.31191 0.586799Z" fill="#FFE600"/>
</svg>
