<svg width="54" height="30" viewBox="0 0 54 30" fill="none" xmlns="http://www.w3.org/2000/svg">
<g clip-path="url(#clip0)">
<path d="M54.2565 -2.953H0.395386V32.9553H54.2565V-2.953Z" fill="#E30A17"/>
<path d="M19.4696 23.9779C24.4279 23.9779 28.4473 19.9584 28.4473 15.0001C28.4473 10.0418 24.4279 6.02234 19.4696 6.02234C14.5113 6.02234 10.4918 10.0418 10.4918 15.0001C10.4918 19.9584 14.5113 23.9779 19.4696 23.9779Z" fill="white"/>
<path d="M21.7148 22.1803C25.6805 22.1803 28.8954 18.9655 28.8954 14.9998C28.8954 11.0341 25.6805 7.81921 21.7148 7.81921C17.7491 7.81921 14.5343 11.0341 14.5343 14.9998C14.5343 18.9655 17.7491 22.1803 21.7148 22.1803Z" fill="#E30A17"/>
<path d="M26.5787 15.0002L34.6982 17.639L29.6787 10.7307V19.2696L34.6982 12.3613L26.5787 15.0002Z" fill="white"/>
</g>
<defs>
<clipPath id="clip0">
<rect width="53.3333" height="30" fill="white" transform="translate(0.65918)"/>
</clipPath>
</defs>
</svg>
