<svg width="128" height="128" viewBox="0 0 128 128" fill="none" xmlns="http://www.w3.org/2000/svg">
<g clip-path="url(#clip0)">
<path d="M52 32.1881C49 31.9373 47 31.9373 44 32.1881C31.6593 33.2199 20.1949 38.9802 12.0029 48.2653C3.81096 57.5504 -0.474646 69.6416 0.0417963 82.0119C0.558238 94.3822 5.83676 106.074 14.7742 114.645C23.7116 123.215 35.6162 128 48 128C60.3839 128 72.2885 123.215 81.2259 114.645C90.1633 106.074 95.4418 94.3822 95.9583 82.0119C96.4747 69.6416 92.1891 57.5504 83.9971 48.2653C75.8052 38.9802 64.3408 33.2199 52 32.1881ZM48 119.989C40.0888 119.989 32.3552 117.643 25.7772 113.249C19.1993 108.855 14.0724 102.609 11.0449 95.3015C8.01735 87.994 7.22522 79.9532 8.76863 72.1957C10.312 64.4381 14.1217 57.3124 19.7158 51.7195C25.3099 46.1267 32.4372 42.3179 40.1964 40.7748C47.9557 39.2317 55.9983 40.0237 63.3074 43.0505C70.6164 46.0774 76.8636 51.2032 81.2588 57.7797C85.6541 64.3562 88 72.088 88 79.9976C88 90.6039 83.7858 100.776 76.2843 108.276C68.7828 115.775 58.6087 119.989 48 119.989Z" fill="#F3F5F8"/>
<path d="M84 0.18811C81 -0.0627072 79 -0.062701 76 0.18811C63.6593 1.21987 52.1949 6.98023 44.0029 16.2653C35.811 25.5504 31.5254 37.6416 32.0418 50.0119C32.5582 62.3822 37.8368 74.0743 46.7742 82.6446C55.7116 91.2148 67.6162 96 80 96C92.3839 96 104.288 91.2148 113.226 82.6446C122.163 74.0743 127.442 62.3822 127.958 50.0119C128.475 37.6416 124.189 25.5504 115.997 16.2653C107.805 6.98023 96.3408 1.21987 84 0.18811ZM80 87.9887C72.0888 87.9887 64.3552 85.6433 57.7772 81.249C51.1993 76.8547 46.0724 70.6089 43.0449 63.3015C40.0174 55.994 39.2252 47.9532 40.7686 40.1957C42.312 32.4381 46.1217 25.3124 51.7158 19.7195C57.3099 14.1267 64.4372 10.3179 72.1964 8.7748C79.9557 7.23173 87.9983 8.02369 95.3074 11.0505C102.616 14.0774 108.864 19.2032 113.259 25.7797C117.654 32.3562 120 40.088 120 47.9976C120 58.6039 115.786 68.7758 108.284 76.2756C100.783 83.7754 90.6087 87.9887 80 87.9887Z" fill="#F3F5F8"/>
</g>
<defs>
<clipPath id="clip0">
<rect width="128" height="128" fill="white"/>
</clipPath>
</defs>
</svg>
