<svg width="128" height="128" viewBox="0 0 128 128" fill="none" xmlns="http://www.w3.org/2000/svg">
<g clip-path="url(#clip0)">
<path d="M104 24V20C104 18.9391 103.579 17.9217 102.828 17.1716C102.078 16.4214 101.061 16 100 16C83 16 82 15.78 78.26 16.7C76.0673 10.251 71.8606 4.67704 66.26 0.800015C65.5904 0.335505 64.7949 0.0865936 63.98 0.0865936C63.1651 0.0865936 62.3696 0.335505 61.7 0.800015C56.0863 4.70706 51.8789 10.3169 49.7 16.8C46 15.76 44.94 16 28 16C26.9391 16 25.9217 16.4214 25.1716 17.1716C24.4214 17.9217 24 18.9391 24 20V24C24.0018 28.3969 25.2115 32.7088 27.497 36.465C29.7825 40.2212 33.0559 43.2774 36.96 45.3C34.1635 47.5488 31.9069 50.3962 30.3562 53.6324C28.8056 56.8687 28.0004 60.4115 28 64V104C28 110.365 30.5286 116.47 35.0294 120.971C39.5303 125.471 45.6348 128 52 128H76C82.3652 128 88.4697 125.471 92.9706 120.971C97.4714 116.47 100 110.365 100 104V64C99.9996 60.4115 99.1944 56.8687 97.6438 53.6324C96.0931 50.3962 93.8365 47.5488 91.04 45.3C94.9441 43.2774 98.2175 40.2212 100.503 36.465C102.788 32.7088 103.998 28.3969 104 24ZM64 9.16002C67.2609 12.0222 69.6634 15.7332 70.94 19.88C68.1793 21.6731 65.817 24.015 64 26.76C62.183 24.015 59.8207 21.6731 57.06 19.88C58.3366 15.7332 60.7391 12.0222 64 9.16002ZM92 72.6L85.12 64L90.5 57.28C92.5 61.54 92 64.64 92 72.6ZM90.5 110.74L85.12 104L92 95.4C92 104.1 92.4 106.68 90.5 110.74ZM37.5 110.74C35.66 106.32 36 105.64 36 95.42C45.42 107.2 42.2 103.14 42.88 104.02L37.5 110.74ZM37.5 57.3L42.88 64L36 72.6C36 64 35.6 61.32 37.5 57.28V57.3ZM64 50.4C65.86 52.7 74.58 63.6 74.88 64L64 77.6L53.12 64C54 63.04 50 67.82 64 50.4ZM55.68 48L48 57.6L42.72 50.98C47.68 47.68 50.62 48 55.68 48ZM37.12 84L48 70.4L58.88 84L48 97.6C47.04 96.5 51.68 102.2 37.12 84ZM64 90.42L74.88 104L64 117.6L53.12 104L64 90.42ZM69.12 84L80 70.4L90.88 84C76.5 102 80.88 96.56 80 97.6L69.12 84ZM80 57.6L72.32 48C77.3 48 80.32 47.66 85.28 50.98L80 57.6ZM32 24C44.38 24 45.48 23.82 48.12 24.54C51.5269 25.4479 54.5385 27.4557 56.6869 30.2514C58.8352 33.0472 59.9999 36.4742 60 40H48C43.7565 40 39.6869 38.3143 36.6863 35.3137C33.6857 32.3131 32 28.2435 32 24ZM42.72 117C43.9 115.54 45.72 113.28 48 110.4L55.68 120C50.92 120 47.28 120.3 42.72 117ZM72.32 120L80 110.4L85.28 117.02C80.32 120.32 77.38 120 72.32 120ZM80 40H68C68.0001 36.4742 69.1648 33.0472 71.3131 30.2514C73.4615 27.4557 76.4731 25.4479 79.88 24.54C82.46 23.84 83.02 24 96 24C96 28.2435 94.3143 32.3131 91.3137 35.3137C88.3131 38.3143 84.2435 40 80 40Z" fill="#F3F5F8"/>
</g>
<defs>
<clipPath id="clip0">
<rect width="128" height="128" fill="white"/>
</clipPath>
</defs>
</svg>
