<svg width="128" height="128" viewBox="0 0 128 128" fill="none" xmlns="http://www.w3.org/2000/svg">
<path d="M88 40C90.3734 40 92.6935 39.2962 94.6669 37.9776C96.6402 36.6591 98.1783 34.7849 99.0866 32.5922C99.9948 30.3995 100.232 27.9867 99.7694 25.6589C99.3064 23.3311 98.1635 21.193 96.4853 19.5147C94.8071 17.8365 92.6689 16.6936 90.3411 16.2306C88.0133 15.7676 85.6005 16.0052 83.4078 16.9135C81.2151 17.8217 79.3409 19.3598 78.0224 21.3332C76.7038 23.3066 76 25.6266 76 28C76 31.1826 77.2643 34.2348 79.5147 36.4853C81.7652 38.7357 84.8174 40 88 40V40ZM88 24C88.7911 24 89.5645 24.2346 90.2223 24.6741C90.8801 25.1137 91.3928 25.7384 91.6955 26.4693C91.9983 27.2002 92.0775 28.0044 91.9232 28.7804C91.7688 29.5563 91.3879 30.269 90.8284 30.8284C90.269 31.3878 89.5563 31.7688 88.7804 31.9231C88.0044 32.0775 87.2002 31.9983 86.4693 31.6955C85.7384 31.3928 85.1137 30.8801 84.6741 30.2223C84.2346 29.5645 84 28.7911 84 28C84 26.9391 84.4214 25.9217 85.1716 25.1716C85.9217 24.4214 86.9391 24 88 24V24Z" fill="#F3F5F8"/>
<path d="M88 12C89.0609 12 90.0783 11.5786 90.8284 10.8284C91.5786 10.0783 92 9.06087 92 8V4C92 2.93913 91.5786 1.92172 90.8284 1.17157C90.0783 0.421427 89.0609 0 88 0C86.9391 0 85.9217 0.421427 85.1716 1.17157C84.4214 1.92172 84 2.93913 84 4V8C84 9.06087 84.4214 10.0783 85.1716 10.8284C85.9217 11.5786 86.9391 12 88 12Z" fill="#F3F5F8"/>
<path d="M64 32H68C69.0609 32 70.0783 31.5786 70.8284 30.8284C71.5786 30.0783 72 29.0609 72 28C72 26.9391 71.5786 25.9217 70.8284 25.1716C70.0783 24.4214 69.0609 24 68 24H64C62.9391 24 61.9217 24.4214 61.1716 25.1716C60.4214 25.9217 60 26.9391 60 28C60 29.0609 60.4214 30.0783 61.1716 30.8284C61.9217 31.5786 62.9391 32 64 32Z" fill="#F3F5F8"/>
<path d="M84 48V52C84 53.0609 84.4214 54.0783 85.1716 54.8284C85.9217 55.5786 86.9391 56 88 56C89.0609 56 90.0783 55.5786 90.8284 54.8284C91.5786 54.0783 92 53.0609 92 52V48C92 46.9391 91.5786 45.9217 90.8284 45.1716C90.0783 44.4214 89.0609 44 88 44C86.9391 44 85.9217 44.4214 85.1716 45.1716C84.4214 45.9217 84 46.9391 84 48Z" fill="#F3F5F8"/>
<path d="M104 28C104 29.0609 104.421 30.0783 105.172 30.8284C105.922 31.5786 106.939 32 108 32H112C113.061 32 114.078 31.5786 114.828 30.8284C115.579 30.0783 116 29.0609 116 28C116 26.9391 115.579 25.9217 114.828 25.1716C114.078 24.4214 113.061 24 112 24H108C106.939 24 105.922 24.4214 105.172 25.1716C104.421 25.9217 104 26.9391 104 28Z" fill="#F3F5F8"/>
<path d="M102.14 17.86C102.668 17.8604 103.191 17.7564 103.678 17.5538C104.165 17.3513 104.608 17.0543 104.98 16.68L107.8 13.86C108.172 13.4884 108.466 13.0472 108.668 12.5616C108.869 12.076 108.972 11.5556 108.972 11.03C108.972 10.5044 108.869 9.98398 108.668 9.49841C108.466 9.01284 108.172 8.57164 107.8 8.2C107.428 7.82835 106.987 7.53355 106.502 7.33242C106.016 7.13129 105.496 7.02777 104.97 7.02777C104.444 7.02777 103.924 7.13129 103.438 7.33242C102.953 7.53355 102.512 7.82835 102.14 8.2L99.32 11.02C98.7571 11.5783 98.3728 12.2912 98.2159 13.0684C98.059 13.8455 98.1366 14.6517 98.4388 15.3846C98.7409 16.1176 99.2541 16.7442 99.9131 17.1849C100.572 17.6257 101.347 17.8606 102.14 17.86Z" fill="#F3F5F8"/>
<path d="M71.02 16.68C71.3916 17.0516 71.8328 17.3464 72.3184 17.5476C72.804 17.7487 73.3244 17.8522 73.85 17.8522C74.3756 17.8522 74.896 17.7487 75.3816 17.5476C75.8671 17.3464 76.3084 17.0516 76.68 16.68C77.0516 16.3084 77.3464 15.8672 77.5476 15.3816C77.7487 14.896 77.8522 14.3756 77.8522 13.85C77.8522 13.3244 77.7487 12.804 77.5476 12.3184C77.3464 11.8328 77.0516 11.3916 76.68 11.02L73.86 8.2C73.4884 7.82835 73.0471 7.53355 72.5616 7.33242C72.076 7.13129 71.5556 7.02777 71.03 7.02777C70.5044 7.02777 69.984 7.13129 69.4984 7.33242C69.0128 7.53355 68.5716 7.82835 68.2 8.2C67.8283 8.57164 67.5336 9.01284 67.3324 9.49841C67.1313 9.98398 67.0278 10.5044 67.0278 11.03C67.0278 11.5556 67.1313 12.076 67.3324 12.5616C67.5336 13.0472 67.8283 13.4884 68.2 13.86L71.02 16.68Z" fill="#F3F5F8"/>
<path d="M71.02 39.32L68.2 42.14C67.4494 42.8906 67.0278 43.9085 67.0278 44.97C67.0278 46.0315 67.4494 47.0494 68.2 47.8C68.9506 48.5506 69.9685 48.9722 71.03 48.9722C72.0914 48.9722 73.1094 48.5506 73.86 47.8L76.68 44.98C77.4306 44.2294 77.8522 43.2115 77.8522 42.15C77.8522 41.0885 77.4306 40.0706 76.68 39.32C75.9294 38.5694 74.9114 38.1478 73.85 38.1478C72.7885 38.1478 71.7706 38.5694 71.02 39.32V39.32Z" fill="#F3F5F8"/>
<path d="M104.98 39.32C104.229 38.5694 103.211 38.1478 102.15 38.1478C101.089 38.1478 100.071 38.5694 99.32 39.32C98.5694 40.0706 98.1478 41.0885 98.1478 42.15C98.1478 43.2114 98.5694 44.2294 99.32 44.98C101.84 47.5 102.78 48.98 104.98 48.98C105.773 48.9806 106.548 48.7457 107.207 48.3049C107.866 47.8642 108.379 47.2376 108.681 46.5046C108.983 45.7717 109.061 44.9655 108.904 44.1884C108.747 43.4112 108.363 42.6983 107.8 42.14L104.98 39.32Z" fill="#F3F5F8"/>
<path d="M122 97H120V85C120 83.9391 119.579 82.9217 118.828 82.1716C118.078 81.4214 117.061 81 116 81H47L21.48 55.52C20.7305 54.775 19.7167 54.3568 18.66 54.3568C17.6033 54.3568 16.5894 54.775 15.84 55.52L3.18 68.18C2.435 68.9294 2.01683 69.9432 2.01683 71C2.01683 72.0567 2.435 73.0705 3.18 73.82L26.34 97H6C4.93913 97 3.92172 97.4214 3.17157 98.1716C2.42143 98.9217 2 99.9391 2 101C2 102.061 2.42143 103.078 3.17157 103.828C3.92172 104.579 4.93913 105 6 105H22.62L15.7 111.9C14.9494 112.651 14.5278 113.669 14.5278 114.73C14.5278 115.791 14.9494 116.809 15.7 117.56C16.4506 118.311 17.4685 118.732 18.53 118.732C19.5915 118.732 20.6094 118.311 21.36 117.56L34 105H102.88C116.56 118.68 116.06 118.74 118.26 118.74C119.055 118.745 119.832 118.513 120.494 118.073C121.157 117.634 121.673 117.008 121.977 116.274C122.282 115.54 122.361 114.732 122.205 113.953C122.049 113.174 121.664 112.459 121.1 111.9L114.2 105H122C123.061 105 124.078 104.579 124.828 103.828C125.579 103.078 126 102.061 126 101C126 99.9391 125.579 98.9217 124.828 98.1716C124.078 97.4214 123.061 97 122 97ZM11.66 71L18.66 64L42.52 87.82C44.18 89.5 39.36 89 112 89V97H37.66L11.66 71Z" fill="#F3F5F8"/>
</svg>
