<svg width="128" height="128" viewBox="0 0 128 128" fill="none" xmlns="http://www.w3.org/2000/svg">
<path d="M78 94C82.7739 94 87.3523 92.1036 90.7279 88.7279C94.1036 85.3523 96 80.7739 96 76V52C96 47.2261 94.1036 42.6477 90.7279 39.2721C87.3523 35.8964 82.7739 34 78 34H18C13.2261 34 8.64773 35.8964 5.27208 39.2721C1.89642 42.6477 0 47.2261 0 52L0 76C0 80.7739 1.89642 85.3523 5.27208 88.7279C8.64773 92.1036 13.2261 94 18 94H32.52C33.4149 97.424 35.4198 100.455 38.2208 102.618C41.0219 104.781 44.461 105.954 48 105.954C51.539 105.954 54.9781 104.781 57.7792 102.618C60.5802 100.455 62.5851 97.424 63.48 94H78ZM8 76V52C8 49.3478 9.05357 46.8043 10.9289 44.9289C12.8043 43.0536 15.3478 42 18 42H78C80.6522 42 83.1957 43.0536 85.0711 44.9289C86.9464 46.8043 88 49.3478 88 52V76C88 78.6522 86.9464 81.1957 85.0711 83.0711C83.1957 84.9464 80.6522 86 78 86H61.66L53.66 78C52.917 77.2562 52.0347 76.6661 51.0635 76.2635C50.0923 75.8609 49.0513 75.6537 48 75.6537C46.9487 75.6537 45.9077 75.8609 44.9365 76.2635C43.9653 76.6661 43.083 77.2562 42.34 78L34.34 86H18C15.3478 86 12.8043 84.9464 10.9289 83.0711C9.05357 81.1957 8 78.6522 8 76ZM40.14 91.52L48 83.66L55.86 91.52C55.513 93.3506 54.5378 95.0026 53.1029 96.1911C51.668 97.3796 49.8632 98.0299 48 98.0299C46.1368 98.0299 44.332 97.3796 42.8971 96.1911C41.4622 95.0026 40.487 93.3506 40.14 91.52Z" fill="#F3F5F8"/>
<path d="M116 128C112.817 128 109.765 126.736 107.515 124.485C105.264 122.235 104 119.183 104 116V32C104 29.8783 103.157 27.8434 101.657 26.3431C100.157 24.8429 98.1217 24 96 24H68C65.8783 24 63.8434 23.1571 62.3431 21.6569C60.8429 20.1566 60 18.1217 60 16V8C60 5.87827 60.8429 3.84344 62.3431 2.34315C63.8434 0.842857 65.8783 0 68 0H96C104.487 0 112.626 3.37141 118.627 9.37258C124.629 15.3737 128 23.5131 128 32V116C128 119.183 126.736 122.235 124.485 124.485C122.235 126.736 119.183 128 116 128V128ZM116 120C116.791 120 117.564 119.765 118.222 119.326C118.88 118.886 119.393 118.262 119.696 117.531C119.998 116.8 120.077 115.996 119.923 115.22C119.769 114.444 119.388 113.731 118.828 113.172C118.269 112.612 117.556 112.231 116.78 112.077C116.004 111.923 115.2 112.002 114.469 112.304C113.738 112.607 113.114 113.12 112.674 113.778C112.235 114.436 112 115.209 112 116C112 117.061 112.421 118.078 113.172 118.828C113.922 119.579 114.939 120 116 120ZM68 8V16H76V8H68ZM96 8H84V16H96C100.243 16 104.313 17.6857 107.314 20.6863C110.314 23.6869 112 27.7565 112 32V104.7C114.586 103.77 117.414 103.77 120 104.7V32C120 25.6348 117.471 19.5303 112.971 15.0294C108.47 10.5286 102.365 8 96 8Z" fill="#F3F5F8"/>
</svg>
