<svg width="128" height="128" viewBox="0 0 128 128" fill="none" xmlns="http://www.w3.org/2000/svg">
<path d="M116 84H108C108 41.02 108.32 42.52 107.16 39.58C109.7 38.8867 111.941 37.3776 113.538 35.285C115.136 33.1924 116.001 30.6326 116 28V12C116 8.8174 114.736 5.76515 112.485 3.51472C110.235 1.26428 107.183 0 104 0L24 0C20.8174 0 17.7652 1.26428 15.5147 3.51472C13.2643 5.76515 12 8.8174 12 12V28C11.9992 30.6326 12.8642 33.1924 14.4616 35.285C16.0591 37.3776 18.3003 38.8867 20.84 39.58C19.68 42.5 20 40.8 20 84H12C9.87827 84 7.84344 84.8429 6.34315 86.3431C4.84285 87.8434 4 89.8783 4 92V108C4 113.304 6.10714 118.391 9.85786 122.142C11.715 123.999 13.9198 125.472 16.3463 126.478C18.7728 127.483 21.3736 128 24 128H104C109.304 128 114.391 125.893 118.142 122.142C121.893 118.391 124 113.304 124 108V92C124 89.8783 123.157 87.8434 121.657 86.3431C120.157 84.8429 118.122 84 116 84ZM70 82C70 83.5913 69.3679 85.1174 68.2426 86.2426C67.1174 87.3679 65.5913 88 64 88C62.4087 88 60.8826 87.3679 59.7574 86.2426C58.6321 85.1174 58 83.5913 58 82V80H70V82ZM74 72H54C52.9391 72 51.9217 72.4214 51.1716 73.1716C50.4214 73.9217 50 74.9391 50 76V80C40.84 80 34.6 79.04 28 84V44C28 42.9391 28.4214 41.9217 29.1716 41.1716C29.9217 40.4214 30.9391 40 32 40H36V52.56C35.2492 53.0054 34.6647 53.6842 34.3357 54.4929C34.0067 55.3015 33.9513 56.1955 34.178 57.0386C34.4046 57.8817 34.9008 58.6275 35.5909 59.1621C36.281 59.6968 37.1271 59.9911 38 60H42C42.8729 59.9911 43.719 59.6968 44.4091 59.1621C45.0992 58.6275 45.5954 57.8817 45.822 57.0386C46.0487 56.1955 45.9933 55.3015 45.6643 54.4929C45.3353 53.6842 44.7508 53.0054 44 52.56V40H84V52.56C83.2492 53.0054 82.6647 53.6842 82.3357 54.4929C82.0067 55.3015 81.9513 56.1955 82.178 57.0386C82.4046 57.8817 82.9008 58.6275 83.5909 59.1621C84.281 59.6968 85.1271 59.9911 86 60H90C90.8729 59.9911 91.719 59.6968 92.4091 59.1621C93.0992 58.6275 93.5954 57.8817 93.822 57.0386C94.0487 56.1955 93.9933 55.3015 93.6643 54.4929C93.3353 53.6842 92.7508 53.0054 92 52.56V40H96C97.0609 40 98.0783 40.4214 98.8284 41.1716C99.5786 41.9217 100 42.9391 100 44V84C93.36 78.98 87.32 80 78 80V76C78 74.9391 77.5786 73.9217 76.8284 73.1716C76.0783 72.4214 75.0609 72 74 72ZM44 8H84V32H44V8ZM108 12V28C108 29.0609 107.579 30.0783 106.828 30.8284C106.078 31.5786 105.061 32 104 32H92V8H104C105.061 8 106.078 8.42143 106.828 9.17157C107.579 9.92172 108 10.9391 108 12ZM20 28V12C20 10.9391 20.4214 9.92172 21.1716 9.17157C21.9217 8.42143 22.9391 8 24 8H36V32H24C22.9391 32 21.9217 31.5786 21.1716 30.8284C20.4214 30.0783 20 29.0609 20 28ZM12 108V92H20V119.32C17.6594 118.492 15.633 116.959 14.2002 114.932C12.7674 112.905 11.9987 110.483 12 108ZM28 100C28 96.8174 29.2643 93.7652 31.5147 91.5147C33.7652 89.2643 36.8174 88 40 88H51.36C52.4975 90.3887 54.2886 92.4062 56.5257 93.8187C58.7628 95.2311 61.3543 95.9808 64 95.9808C66.6457 95.9808 69.2372 95.2311 71.4743 93.8187C73.7114 92.4062 75.5025 90.3887 76.64 88H88C91.1826 88 94.2348 89.2643 96.4853 91.5147C98.7357 93.7652 100 96.8174 100 100V120H28V100ZM116 108C116.001 110.483 115.233 112.905 113.8 114.932C112.367 116.959 110.341 118.492 108 119.32V92H116V108Z" fill="#F3F5F8"/>
</svg>
