<svg width="128" height="128" viewBox="0 0 128 128" fill="none" xmlns="http://www.w3.org/2000/svg">
<g clip-path="url(#clip0)">
<path d="M55.66 70L84.34 41.32C85.083 40.5762 85.9653 39.9861 86.9365 39.5835C87.9077 39.1809 88.9487 38.9737 90 38.9737C91.0514 38.9737 92.0924 39.1809 93.0635 39.5835C94.0347 39.9861 94.917 40.5762 95.66 41.32L121.18 66.82C121.539 67.2387 121.98 67.5788 122.476 67.8189C122.972 68.059 123.513 68.1939 124.064 68.2152C124.615 68.2365 125.164 68.1436 125.677 67.9425C126.191 67.7414 126.657 67.4364 127.047 67.0466C127.436 66.6568 127.741 66.1906 127.943 65.6773C128.144 65.164 128.236 64.6147 128.215 64.0638C128.194 63.5129 128.059 62.9724 127.819 62.4761C127.579 61.9799 127.239 61.5386 126.82 61.18L101.32 35.66C99.8341 34.1724 98.0694 32.9922 96.1271 32.187C94.1847 31.3819 92.1027 30.9674 90 30.9674C87.8974 30.9674 85.8154 31.3819 83.873 32.187C81.9306 32.9922 80.166 34.1724 78.68 35.66L50 64.34L43.32 57.66C41.834 56.1724 40.0694 54.9922 38.1271 54.187C36.1847 53.3819 34.1027 52.9674 32 52.9674C29.8974 52.9674 27.8153 53.3819 25.873 54.187C23.9306 54.9922 22.166 56.1724 20.68 57.66L1.18002 77.18C0.435013 77.9294 0.0168457 78.9432 0.0168457 80C0.0168457 81.0567 0.435013 82.0705 1.18002 82.82C1.92947 83.565 2.94327 83.9832 4.00002 83.9832C5.05676 83.9832 6.07057 83.565 6.82002 82.82L26.34 63.32C27.083 62.5762 27.9653 61.9861 28.9365 61.5835C29.9077 61.1809 30.9487 60.9737 32 60.9737C33.0513 60.9737 34.0924 61.1809 35.0635 61.5835C36.0347 61.9861 36.917 62.5762 37.66 63.32L57.18 82.82C57.5386 83.2387 57.9799 83.5788 58.4761 83.8189C58.9724 84.059 59.5129 84.1939 60.0638 84.2152C60.6147 84.2365 61.164 84.1436 61.6773 83.9425C62.1906 83.7414 62.6568 83.4364 63.0466 83.0466C63.4364 82.6568 63.7415 82.1906 63.9426 81.6773C64.1437 81.164 64.2365 80.6147 64.2152 80.0638C64.1939 79.5129 64.059 78.9724 63.8189 78.4761C63.5788 77.9799 63.2388 77.5386 62.82 77.18L55.66 70Z" fill="#F3F5F8"/>
<path d="M20 40C23.9556 40 27.8224 38.827 31.1114 36.6294C34.4004 34.4318 36.9638 31.3082 38.4776 27.6537C39.9913 23.9992 40.3874 19.9778 39.6157 16.0982C38.844 12.2186 36.9392 8.65492 34.1421 5.85787C31.3451 3.06082 27.7814 1.15601 23.9018 0.384303C20.0222 -0.387401 16.0009 0.00866568 12.3463 1.52242C8.69181 3.03617 5.56824 5.59962 3.37061 8.8886C1.17298 12.1776 0 16.0444 0 20C0 25.3043 2.10714 30.3914 5.85786 34.1421C9.60859 37.8929 14.6957 40 20 40ZM20 8.00001C22.3734 8.00001 24.6935 8.7038 26.6668 10.0224C28.6402 11.341 30.1783 13.2151 31.0866 15.4078C31.9948 17.6005 32.2324 20.0133 31.7694 22.3411C31.3064 24.6689 30.1635 26.8071 28.4853 28.4853C26.8071 30.1635 24.6689 31.3064 22.3411 31.7694C20.0133 32.2325 17.6005 31.9948 15.4078 31.0866C13.2151 30.1783 11.3409 28.6402 10.0224 26.6669C8.70379 24.6935 8 22.3734 8 20C8 16.8174 9.26428 13.7652 11.5147 11.5147C13.7652 9.26429 16.8174 8.00001 20 8.00001Z" fill="#F3F5F8"/>
</g>
<defs>
<clipPath id="clip0">
<rect width="128" height="128" fill="white"/>
</clipPath>
</defs>
</svg>
