<svg width="128" height="128" viewBox="0 0 128 128" fill="none" xmlns="http://www.w3.org/2000/svg">
<g clip-path="url(#clip0)">
<path d="M103.32 44.42C102.809 44.1983 102.257 44.0826 101.7 44.08H101.52C102.457 38.4045 102.087 32.5899 100.437 27.0791C98.7876 21.5683 95.9019 16.5068 92 12.28C68 -13.72 23.38 4.08001 26.26 42.28C26.214 42.7381 26.0472 43.1757 25.7766 43.5482C25.506 43.9207 25.1414 44.2146 24.72 44.4C22.3678 45.3802 20.4185 47.1307 19.1917 49.3642C17.965 51.5978 17.5336 54.1819 17.9684 56.6928C18.4032 59.2037 19.6782 61.4924 21.5845 63.1835C23.4908 64.8746 25.9152 65.8677 28.46 66L30.04 78.6C30.1837 79.547 30.6624 80.411 31.389 81.0349C32.1157 81.6588 33.0422 82.0013 34 82H38.48L43.12 117.56C43.5008 120.465 44.9313 123.131 47.1418 125.054C49.3523 126.977 52.1901 128.025 55.12 128H73.12C76.0327 128 78.8462 126.942 81.0357 125.021C83.2252 123.1 84.6413 120.448 85.02 117.56L89.52 82H94C94.9797 82.0077 95.9281 81.6556 96.6654 81.0105C97.4027 80.3653 97.8776 79.472 98 78.5L99.58 65.9C102.078 65.7158 104.443 64.7025 106.299 63.021C108.155 61.3395 109.397 59.0861 109.827 56.6185C110.256 54.1509 109.849 51.6105 108.671 49.4006C107.492 47.1906 105.609 45.4377 103.32 44.42ZM36.54 66H56C55.7283 68.687 55.9658 71.4011 56.7 74H37.54L36.54 66ZM72 69.66C72.0736 70.4656 71.9012 71.2746 71.5056 71.9802C71.11 72.6859 70.5097 73.2549 69.784 73.6124C69.0583 73.9698 68.2412 74.0988 67.4407 73.9824C66.6402 73.8659 65.8938 73.5094 65.3 72.96C63.54 71.34 64 69.38 64 66H72V69.66ZM76.94 116.52C76.8131 117.488 76.3362 118.377 75.5994 119.018C74.8625 119.659 73.9166 120.008 72.94 120H54.94C53.9634 120.008 53.0174 119.659 52.2806 119.018C51.5438 118.377 51.0669 117.488 50.94 116.52L46.56 82H81.44L76.94 116.52ZM90.46 74H79.2C80.0054 71.415 80.2776 68.6934 80 66H91.46L90.46 74ZM102 55.36C101.26 58.42 98.28 58 96 58H29.62C28.8526 58.0507 28.0916 57.8318 27.4684 57.3811C26.8453 56.9304 26.3991 56.2762 26.207 55.5315C26.0149 54.7868 26.0889 53.9984 26.4163 53.3025C26.7437 52.6066 27.3038 52.0469 28 51.72C29.9197 50.8668 31.5399 49.4583 32.6521 47.676C33.7642 45.8938 34.3172 43.8194 34.24 41.72C32.72 22.7 46.24 9.30001 61.56 8.08001C66.0831 7.71077 70.631 8.3725 74.8613 10.0154C79.0916 11.6582 82.8941 14.2394 85.9824 17.5646C89.0708 20.8897 91.3645 24.8722 92.6909 29.2122C94.0173 33.5522 94.3418 38.1365 93.64 42.62C93.444 43.6973 93.4712 44.8033 93.72 45.8696C93.9687 46.9359 94.4338 47.9398 95.0862 48.8191C95.7387 49.6984 96.5647 50.4344 97.5131 50.9816C98.4615 51.5287 99.5122 51.8754 100.6 52C101.145 52.3535 101.57 52.8635 101.82 53.4632C102.07 54.0629 102.133 54.7241 102 55.36Z" fill="#F3F5F8"/>
<path d="M76 28C78.2091 28 80 26.2091 80 24C80 21.7909 78.2091 20 76 20C73.7909 20 72 21.7909 72 24C72 26.2091 73.7909 28 76 28Z" fill="#F3F5F8"/>
<path d="M70 54C72.2091 54 74 52.2091 74 50C74 47.7909 72.2091 46 70 46C67.7909 46 66 47.7909 66 50C66 52.2091 67.7909 54 70 54Z" fill="#F3F5F8"/>
<path d="M50 36C52.2091 36 54 34.2091 54 32C54 29.7909 52.2091 28 50 28C47.7909 28 46 29.7909 46 32C46 34.2091 47.7909 36 50 36Z" fill="#F3F5F8"/>
</g>
<defs>
<clipPath id="clip0">
<rect width="128" height="128" fill="white"/>
</clipPath>
</defs>
</svg>
