<svg width="128" height="128" viewBox="0 0 128 128" fill="none" xmlns="http://www.w3.org/2000/svg">
<path d="M44 86H42V84C42 82.9391 41.5786 81.9217 40.8284 81.1716C40.0783 80.4214 39.0609 80 38 80C36.9391 80 35.9217 80.4214 35.1716 81.1716C34.4214 81.9217 34 82.9391 34 84V86H32C30.9391 86 29.9217 86.4214 29.1716 87.1716C28.4214 87.9217 28 88.9391 28 90C28 91.0609 28.4214 92.0783 29.1716 92.8284C29.9217 93.5786 30.9391 94 32 94H34V96C34 97.0609 34.4214 98.0783 35.1716 98.8284C35.9217 99.5786 36.9391 100 38 100C39.0609 100 40.0783 99.5786 40.8284 98.8284C41.5786 98.0783 42 97.0609 42 96V94H44C45.0609 94 46.0783 93.5786 46.8284 92.8284C47.5786 92.0783 48 91.0609 48 90C48 88.9391 47.5786 87.9217 46.8284 87.1716C46.0783 86.4214 45.0609 86 44 86Z" fill="#F3F5F8"/>
<path d="M94 38C96.2091 38 98 36.2091 98 34C98 31.7909 96.2091 30 94 30C91.7909 30 90 31.7909 90 34C90 36.2091 91.7909 38 94 38Z" fill="#F3F5F8"/>
<path d="M126.819 109.179L111.659 93.9995C110.916 93.2557 110.034 92.6656 109.063 92.263C108.092 91.8604 107.051 91.6532 105.999 91.6532C104.948 91.6532 103.907 91.8604 102.936 92.263C101.965 92.6656 101.082 93.2557 100.339 93.9995C99.8395 94.4995 101.179 95.5195 89.4395 83.7795C106.532 65.349 116.02 41.1355 115.999 15.9995C115.999 14.9386 115.578 13.9212 114.828 13.171C114.078 12.4209 113.06 11.9995 111.999 11.9995C86.8634 11.9791 62.6499 21.4673 44.2195 38.5595L33.6595 27.9995C34.4778 27.2749 35.139 26.3902 35.6023 25.4002C36.0655 24.4101 36.3209 23.3356 36.3528 22.243C36.3847 21.1504 36.1923 20.0629 35.7875 19.0475C35.3828 18.0322 34.7742 17.1105 33.9995 16.3395L18.8195 1.17947C18.07 0.434463 17.0562 0.0162964 15.9995 0.0162964C14.9427 0.0162964 13.9289 0.434463 13.1795 1.17947L1.17947 13.1795C0.434463 13.9289 0.0162964 14.9427 0.0162964 15.9995C0.0162964 17.0562 0.434463 18.07 1.17947 18.8195L16.3395 33.9995C17.1105 34.7742 18.0322 35.3828 19.0475 35.7875C20.0629 36.1923 21.1504 36.3847 22.243 36.3528C23.3356 36.3209 24.4101 36.0655 25.4002 35.6023C26.3902 35.139 27.2749 34.4778 27.9995 33.6595L38.5595 44.2195C21.4673 62.6499 11.9791 86.8634 11.9995 111.999C11.9995 113.06 12.4209 114.078 13.171 114.828C13.9212 115.578 14.9386 115.999 15.9995 115.999C41.1355 116.02 65.349 106.532 83.7795 89.4395C95.9995 101.579 94.4795 99.8595 93.9995 100.339C93.2557 101.082 92.6656 101.965 92.263 102.936C91.8604 103.907 91.6532 104.948 91.6532 105.999C91.6532 107.051 91.8604 108.092 92.263 109.063C92.6656 110.034 93.2557 110.916 93.9995 111.659L109.179 126.819C109.929 127.564 110.943 127.983 111.999 127.983C113.056 127.983 114.07 127.564 114.819 126.819L126.819 114.819C127.564 114.07 127.983 113.056 127.983 111.999C127.983 110.943 127.564 109.929 126.819 109.179ZM9.65947 15.9995L15.9995 9.65947L28.3395 21.9995L21.9995 28.3395L9.65947 15.9995ZM107.999 19.9995C107.035 41.5725 98.4857 62.1125 83.8595 77.9995L77.6595 71.9995L80.8195 68.8195C83.6891 65.9498 85.3013 62.0578 85.3013 57.9995C85.3013 53.9412 83.6891 50.0491 80.8195 47.1795C77.9498 44.3098 74.0578 42.6977 69.9995 42.6977C65.9412 42.6977 62.0491 44.3098 59.1795 47.1795L55.9995 50.3395L49.8795 44.2195C65.786 29.538 86.3744 20.9584 107.999 19.9995ZM55.9995 61.6595L66.3395 71.9995L61.9995 76.3395L51.6595 65.9995L55.9995 61.6595ZM61.6595 55.9995L64.8195 52.8195C66.1933 51.4456 68.0566 50.6738 69.9995 50.6738C71.9423 50.6738 73.8056 51.4456 75.1795 52.8195C76.5533 54.1933 77.3251 56.0566 77.3251 57.9995C77.3251 59.9423 76.5533 61.8056 75.1795 63.1795L71.9995 66.3395L61.6595 55.9995ZM19.9995 107.999C20.9643 86.4265 29.5132 65.8865 44.1395 49.9995L50.3395 55.9995L45.9995 60.3395C45.2557 61.0825 44.6656 61.9648 44.263 62.9359C43.8604 63.9071 43.6532 64.9481 43.6532 65.9995C43.6532 67.0508 43.8604 68.0918 44.263 69.063C44.6656 70.0342 45.2557 70.9165 45.9995 71.6595L56.3395 81.9995C57.083 82.7421 57.9655 83.3311 58.9367 83.7326C59.9078 84.1341 60.9486 84.3403 61.9995 84.3395C66.2195 84.3395 67.9995 81.6395 71.9995 77.6595L78.1195 83.7795C62.2129 98.4609 41.6246 107.041 19.9995 107.999ZM111.999 118.419L99.6595 105.999L105.999 99.6595L118.339 111.999L111.999 118.419Z" fill="#F3F5F8"/>
</svg>
