<svg width="128" height="128" viewBox="0 0 128 128" fill="none" xmlns="http://www.w3.org/2000/svg">
<g clip-path="url(#clip0)">
<path d="M105.26 96.9C108.314 93.2949 109.993 88.7249 110 84V67.28C110 62.6139 108.369 58.0944 105.389 54.5041C102.408 50.9138 98.2665 48.4786 93.68 47.62L83.68 45.74C89.2 37.84 88.04 31.74 88.04 16.32C88.0374 14.1742 87.6121 12.0499 86.7886 10.0685C85.965 8.08703 84.7592 6.28719 83.24 4.77174C81.7208 3.25629 79.918 2.0549 77.9346 1.23616C75.9511 0.417429 73.8258 -0.00261579 71.68 1.2256e-05H56.32C51.9933 0.00530487 47.8453 1.72643 44.7859 4.78588C41.7264 7.84532 40.0053 11.9933 40 16.32C40 31.78 38.92 38.02 44.32 45.74L34.32 47.62C29.7335 48.4786 25.5916 50.9138 22.6112 54.5041C19.6309 58.0944 17.9997 62.6139 18 67.28V84C18.0066 88.7249 19.6858 93.2949 22.74 96.9C19.1768 98.1484 16.1698 100.617 14.2509 103.868C12.3321 107.12 11.6249 110.946 12.2545 114.668C12.8842 118.391 14.81 121.771 17.6915 124.211C20.573 126.651 24.2244 127.993 28 128C28 127.8 23.2 128 100 128C103.776 127.993 107.427 126.651 110.309 124.211C113.19 121.771 115.116 118.391 115.745 114.668C116.375 110.946 115.668 107.12 113.749 103.868C111.83 100.617 108.823 98.1484 105.26 96.9ZM102 67.28V84C102 87.1826 100.736 90.2349 98.4853 92.4853C96.2349 94.7357 93.1826 96 90 96H68V86H76C79.1826 86 82.2349 84.7357 84.4853 82.4853C86.7357 80.2349 88 77.1826 88 74V54.7L92.2 55.48C94.954 55.9936 97.4416 57.4546 99.2315 59.6098C101.021 61.765 102.001 64.4785 102 67.28ZM48 53.28C52.48 52.44 50.96 52.36 53.5 53.62C56.5761 55.1335 59.9421 55.9668 63.369 56.0635C66.7959 56.1601 70.2035 55.5177 73.36 54.18C77.78 52.3 74.88 52.32 80 53.28V74C80 75.0609 79.5786 76.0783 78.8284 76.8284C78.0783 77.5786 77.0609 78 76 78H52C50.9391 78 49.9217 77.5786 49.1716 76.8284C48.4214 76.0783 48 75.0609 48 74V53.28ZM48 24H80V32C79.9965 34.5554 79.3809 37.0728 78.2048 39.3416C77.0287 41.6103 75.3262 43.5643 73.24 45.04C70.8466 46.7331 68.0341 47.736 65.1094 47.9393C62.1848 48.1425 59.2606 47.5384 56.656 46.1927C54.0514 44.8471 51.8665 42.8117 50.3401 40.3088C48.8136 37.8059 48.0041 34.9317 48 32V24ZM56.32 8.00001H71.68C73.8308 8.00338 75.8971 8.83753 77.4475 10.3283C78.9978 11.819 79.9123 13.851 80 16H48C48.0877 13.851 49.0022 11.819 50.5526 10.3283C52.1029 8.83753 54.1692 8.00338 56.32 8.00001ZM26 67.28C25.9992 64.4785 26.9787 61.765 28.7685 59.6098C30.5584 57.4546 33.046 55.9936 35.8 55.48L40 54.7V74C40 77.1826 41.2643 80.2349 43.5147 82.4853C45.7652 84.7357 48.8174 86 52 86H60V96H38C34.8174 96 31.7652 94.7357 29.5147 92.4853C27.2643 90.2349 26 87.1826 26 84V67.28ZM28 120C25.8783 120 23.8435 119.157 22.3432 117.657C20.8429 116.157 20 114.122 20 112C20 109.878 20.8429 107.843 22.3432 106.343C23.8435 104.843 25.8783 104 28 104H62.5C68.5 109.32 73.82 112.56 75.52 120C75.6 120.22 28.2 120 28 120ZM100 120H83.7C82.7241 113.962 79.6848 108.449 75.1 104.4C74.42 103.8 71.28 104 100 104C102.122 104 104.157 104.843 105.657 106.343C107.157 107.843 108 109.878 108 112C108 114.122 107.157 116.157 105.657 117.657C104.157 119.157 102.122 120 100 120Z" fill="#F3F5F8"/>
</g>
<defs>
<clipPath id="clip0">
<rect width="128" height="128" fill="white"/>
</clipPath>
</defs>
</svg>
