<svg width="128" height="128" viewBox="0 0 128 128" fill="none" xmlns="http://www.w3.org/2000/svg">
<g clip-path="url(#clip0)">
<path d="M113.36 121.84C105.64 109.84 100.8 102.76 94.98 90H98C99.0609 90 100.078 89.5786 100.828 88.8284C101.579 88.0783 102 87.0609 102 86C102 84.9391 101.579 83.9217 100.828 83.1716C100.078 82.4214 99.0609 82 98 82H91.56C88.7267 74.8372 86.3944 67.4861 84.58 60H86C87.0609 60 88.0783 59.5786 88.8284 58.8284C89.5786 58.0783 90 57.0609 90 56C90 54.9391 89.5786 53.9217 88.8284 53.1716C88.0783 52.4214 87.0609 52 86 52H82.84C81.5731 45.3915 80.7049 38.7128 80.24 32H82C83.0609 32 84.0783 31.5786 84.8284 30.8284C85.5786 30.0783 86 29.0609 86 28C86 26.9391 85.5786 25.9217 84.8284 25.1716C84.0783 24.4214 83.0609 24 82 24H80C79.9974 20.4549 78.8174 17.0111 76.6455 14.2093C74.4735 11.4074 71.4325 9.40627 68 8.52V4C68 2.93913 67.5786 1.92172 66.8284 1.17157C66.0783 0.421427 65.0609 0 64 0C62.9391 0 61.9217 0.421427 61.1716 1.17157C60.4214 1.92172 60 2.93913 60 4V8.52C56.5675 9.40627 53.5265 11.4074 51.3545 14.2093C49.1826 17.0111 48.0026 20.4549 48 24H46C44.9391 24 43.9217 24.4214 43.1716 25.1716C42.4214 25.9217 42 26.9391 42 28C42 29.0609 42.4214 30.0783 43.1716 30.8284C43.9217 31.5786 44.9391 32 46 32H47.76C47.2951 38.7128 46.4269 45.3915 45.16 52H42C40.9391 52 39.9217 52.4214 39.1716 53.1716C38.4214 53.9217 38 54.9391 38 56C38 57.0609 38.4214 58.0783 39.1716 58.8284C39.9217 59.5786 40.9391 60 42 60H43.42C41.6056 67.4861 39.2733 74.8372 36.44 82H30C28.9391 82 27.9217 82.4214 27.1716 83.1716C26.4214 83.9217 26 84.9391 26 86C26 87.0609 26.4214 88.0783 27.1716 88.8284C27.9217 89.5786 28.9391 90 30 90H33.02C27.2 102.76 22.38 109.72 14.64 121.84C14.2526 122.444 14.0347 123.141 14.0092 123.858C13.9837 124.575 14.1515 125.286 14.4951 125.915C14.8386 126.545 15.3453 127.071 15.9619 127.438C16.5786 127.805 17.2825 127.999 18 128H40C40.657 127.999 41.3036 127.836 41.8827 127.525C42.4617 127.215 42.9554 126.767 43.32 126.22L48.68 118.22C50.3595 115.695 52.6369 113.625 55.3096 112.193C57.9824 110.76 60.9677 110.011 64 110.011C67.0323 110.011 70.0176 110.76 72.6903 112.193C75.3631 113.625 77.6405 115.695 79.32 118.22L84.68 126.22C85.0446 126.767 85.5383 127.215 86.1173 127.525C86.6964 127.836 87.343 127.999 88 128H110C110.717 127.999 111.421 127.805 112.038 127.438C112.655 127.071 113.161 126.545 113.505 125.915C113.848 125.286 114.016 124.575 113.991 123.858C113.965 123.141 113.747 122.444 113.36 121.84ZM64 16C66.1217 16 68.1566 16.8429 69.6568 18.3431C71.1571 19.8434 72 21.8783 72 24H56C56 21.8783 56.8428 19.8434 58.3431 18.3431C59.8434 16.8429 61.8783 16 64 16ZM55.78 32H72.22C72.6644 38.7085 73.4924 45.3861 74.7 52H53.3C54.5075 45.3861 55.3356 38.7085 55.78 32ZM51.64 60H76.36C78.0804 67.4732 80.2987 74.8229 83 82H68V74C68 72.9391 67.5786 71.9217 66.8284 71.1716C66.0783 70.4214 65.0609 70 64 70C62.9391 70 61.9217 70.4214 61.1716 71.1716C60.4214 71.9217 60 72.9391 60 74V82H45C47.7013 74.8229 49.9196 67.4732 51.64 60ZM90.14 120L86 113.76C83.5856 110.138 80.3142 107.168 76.4764 105.114C72.6385 103.06 68.3529 101.985 64 101.985C59.647 101.985 55.3614 103.06 51.5236 105.114C47.6858 107.168 44.4144 110.138 42 113.76L37.86 120H25.3C31.7018 110.527 37.2184 100.484 41.78 90H86.22C90.7835 100.483 96.3 110.525 102.7 120H90.14Z" fill="#F3F5F8"/>
</g>
<defs>
<clipPath id="clip0">
<rect width="128" height="128" fill="white"/>
</clipPath>
</defs>
</svg>
