<svg width="128" height="128" viewBox="0 0 128 128" fill="none" xmlns="http://www.w3.org/2000/svg">
<g clip-path="url(#clip0)">
<path d="M116.36 51.72C108.74 39.64 110 39.38 110 8C110 5.87827 109.157 3.84344 107.657 2.34315C106.157 0.842855 104.122 0 102 0L86 0C83.8782 0 81.8434 0.842855 80.3431 2.34315C78.8428 3.84344 78 5.87827 78 8V32.66C78.0009 39.2124 75.9903 45.6071 72.24 50.98C63.74 62.98 63.94 70.54 63.94 83.64C63.94 90.24 63.94 104.98 63.94 124C63.94 125.061 64.3614 126.078 65.1116 126.828C65.8617 127.579 66.8791 128 67.94 128H120C121.061 128 122.078 127.579 122.828 126.828C123.579 126.078 124 125.061 124 124C124 67.18 126 66.92 116.36 51.72ZM72.82 68H115.18C116.36 72.76 116 78.34 116 104H72C72 82.98 71.62 72.9 72.82 68ZM86 8H102V16H86V8ZM78.78 55.58C86.84 44 86 34.22 86 24H102V32.66C102 46.5 108 52.9 112 60H76C76.8458 58.4773 77.7738 57.0018 78.78 55.58ZM72 120C72 117.16 72 114.52 72 112H116V120H72Z" fill="#F3F5F8"/>
<path d="M52 52C4.61998 52 6.81998 51.48 5.11998 53.22C3.41998 54.96 3.83998 49.86 5.77998 116.36C5.87361 119.48 7.17911 122.44 9.41948 124.614C11.6598 126.787 14.6588 128.001 17.78 128H42.24C45.3612 128.001 48.3601 126.787 50.6005 124.614C52.8409 122.44 54.1464 119.48 54.24 116.36C55 90.36 55.28 80.36 56.02 56.12C56.0361 55.583 55.9439 55.0483 55.7489 54.5477C55.5538 54.0471 55.2599 53.591 54.8847 53.2065C54.5096 52.822 54.0608 52.517 53.5651 52.3097C53.0695 52.1024 52.5372 51.9971 52 52ZM47.88 60L47.64 68H12.36L12.12 60H47.88ZM46.22 116.12C46.1888 117.16 45.7536 118.147 45.0068 118.871C44.26 119.596 43.2604 120 42.22 120H17.76C16.7196 120 15.7199 119.596 14.9731 118.871C14.2264 118.147 13.7912 117.16 13.76 116.12L12.6 76H47.4L46.22 116.12Z" fill="#F3F5F8"/>
<path d="M22 90C24.2091 90 26 88.2091 26 86C26 83.7909 24.2091 82 22 82C19.7909 82 18 83.7909 18 86C18 88.2091 19.7909 90 22 90Z" fill="#F3F5F8"/>
<path d="M36 100C38.2091 100 40 98.2091 40 96C40 93.7909 38.2091 92 36 92C33.7909 92 32 93.7909 32 96C32 98.2091 33.7909 100 36 100Z" fill="#F3F5F8"/>
<path d="M26 112C28.2091 112 30 110.209 30 108C30 105.791 28.2091 104 26 104C23.7909 104 22 105.791 22 108C22 110.209 23.7909 112 26 112Z" fill="#F3F5F8"/>
</g>
<defs>
<clipPath id="clip0">
<rect width="128" height="128" fill="white"/>
</clipPath>
</defs>
</svg>
