<svg width="128" height="128" viewBox="0 0 128 128" fill="none" xmlns="http://www.w3.org/2000/svg">
<g clip-path="url(#clip0)">
<path d="M101.78 66.42L96 63.54V40C96 37.8783 95.1572 35.8434 93.6569 34.3431C92.1566 32.8429 90.1217 32 88 32V24C88 21.8783 87.1572 19.8434 85.6569 18.3431C84.1566 16.8429 82.1217 16 80 16H76V4C76 2.93913 75.5786 1.92172 74.8284 1.17157C74.0783 0.421427 73.0609 0 72 0L56 0C54.9392 0 53.9217 0.421427 53.1716 1.17157C52.4214 1.92172 52 2.93913 52 4V16H48C45.8783 16 43.8435 16.8429 42.3432 18.3431C40.8429 19.8434 40 21.8783 40 24V32C37.8783 32 35.8435 32.8429 34.3432 34.3431C32.8429 35.8434 32 37.8783 32 40V63.54L26.22 66.42C25.5536 66.7512 24.9928 67.2616 24.6006 67.8941C24.2084 68.5265 24.0004 69.2558 24 70V79.12C23.9459 90.4478 27.7662 101.454 34.8271 110.312C41.8881 119.17 51.7652 125.347 62.82 127.82C63.5888 128.057 64.4113 128.057 65.18 127.82C76.2348 125.347 86.112 119.17 93.1729 110.312C100.234 101.454 104.054 90.4478 104 79.12V70C104 69.2558 103.792 68.5265 103.399 67.8941C103.007 67.2616 102.446 66.7512 101.78 66.42ZM60 8H68V16H60V8ZM48 24H80V32H48V24ZM40 40H88V59.54C63.76 47.4 65.34 48 64 48C62.66 48 64 47.52 40 59.54V40ZM32 79.12V72.48L60 58.48V118.72C51.7898 115.858 44.6782 110.503 39.6585 103.404C34.6387 96.3045 31.9612 87.8147 32 79.12ZM96 79.12C96.0388 87.8147 93.3614 96.3045 88.3416 103.404C83.3218 110.503 76.2103 115.858 68 118.72V58.48L96 72.48V79.12Z" fill="#F3F5F8"/>
</g>
<defs>
<clipPath id="clip0">
<rect width="128" height="128" fill="white"/>
</clipPath>
</defs>
</svg>
