<svg width="160" height="40" viewBox="0 0 160 40" fill="none" xmlns="http://www.w3.org/2000/svg">
<path fill-rule="evenodd" clip-rule="evenodd" d="M0 40C10.8416 38.708 70.5336 31.5488 70.5336 31.5488H5.1968C5.1968 31.5488 5.6376 35.3168 0 40ZM13.9208 28.5448L24.1296 5.0704C24.1296 5.0704 26.7168 5.0664 29.3264 5.4456C30.2936 3.128 31.5544 0 31.5544 0C31.5544 0 19.984 0 14.1064 0C13.3024 1.8776 12.5672 3.5096 11.6936 5.4456C14.6592 5.0664 17.2624 5.0704 17.2624 5.0704L7.0536 28.5448H13.9208ZM48.4456 28.5448L56.7984 17.4648L52.1584 28.5448H56.6128L64.78 9.5776H60.3256L51.9728 20.6576L56.6128 9.5776H52.1584L43.9904 28.5448H48.4456ZM16.8912 28.5448H21.3456L23.5728 24.6008H27.4704L26.3568 28.5448H30.8112L35.6376 9.5776H28.584L16.8912 28.5448ZM30.812 12.9576L28.3992 21.408H25.4296L30.2552 12.9576H30.812ZM36.752 28.5448L43.4344 12.7704L49.0032 12.9584L50.488 9.5784H40.464L32.2968 28.5448H36.752ZM96.148 15.0232L98.5608 9.5768H81.1128L78.7 15.0232C78.756 14.9904 82.3112 14.6336 84.2872 14.6368C80.928 22.4096 74.0592 38.1224 74.0592 38.1224H80.7416C80.7416 38.1224 87.6096 22.472 90.9504 14.648C92.9616 14.6792 96.148 15.0232 96.148 15.0232ZM69.6056 9.5776L58.0976 28.5448H62.3664L71.4616 12.9576H72.0184L67.564 28.5448H72.0184L76.6584 9.5776H69.6056ZM136.613 34.7416H132.901L138.098 22.5352H141.81L140.139 25.9152H144.594L145.893 23.0984V22.3472L143.666 19.1544H139.026L133.642 22.7224L128.445 34.5536L130.858 38.1216H135.312L140.695 34.7416L142.366 30.9856H137.911L136.613 34.7416ZM149.049 19.1544C149.049 19.1544 148.175 21.2128 147.564 22.5344C149.242 22.3312 150.905 22.3464 150.905 22.3464L144.037 38.1208H148.491L155.359 22.3464C155.359 22.3464 156.875 22.3424 158.514 22.5344C158.97 21.5744 159.999 19.1544 159.999 19.1544H149.049ZM128.446 19.1544L120.093 30.2344L124.733 19.1544H120.278L112.111 38.1216H116.566L125.104 26.8536L120.278 38.1216H124.732L132.899 19.1544H128.446ZM100.974 19.1544L94.8488 28.356L96.7048 19.1544H92.2504L90.58 33.9896L87.0536 38.1208H91.3224L105.614 19.1536H100.974V19.1544ZM116.938 22.7232L114.525 19.1552H106.729L98.5616 38.1224H103.016L105.8 31.5496H109.326L114.524 28.1696L116.938 22.7232ZM110.07 28.3568H107.286L109.698 22.5352H112.482L110.07 28.3568Z" fill="white"/>
</svg>
